<?xml version="1.0" encoding="UTF-8" standalone="no"?>
<!-- Created with Inkscape (http://www.inkscape.org/) -->

<svg
   version="1.1"
   id="svg1"
   width="894.2226"
   height="216.16624"
   viewBox="0 0 894.2226 216.16625"
   sodipodi:docname="pulleyandspring.svg"
   inkscape:version="1.4.2 (ebf0e940d0, 2025-05-08)"
   xmlns:inkscape="http://www.inkscape.org/namespaces/inkscape"
   xmlns:sodipodi="http://sodipodi.sourceforge.net/DTD/sodipodi-0.dtd"
   xmlns="http://www.w3.org/2000/svg"
   xmlns:svg="http://www.w3.org/2000/svg">
  <defs
     id="defs1">
    <clipPath
       clipPathUnits="userSpaceOnUse"
       id="clipPath1">
      <path
         d="M 0,0 H 450 V 225 H 0 Z"
         id="path1" />
    </clipPath>
    <clipPath
       clipPathUnits="userSpaceOnUse"
       id="clipPath2">
      <path
         d="M 0,0 H 450 V 225 H 0 Z"
         transform="scale(1.3333333)"
         id="path2" />
    </clipPath>
    <clipPath
       clipPathUnits="userSpaceOnUse"
       id="clipPath3">
      <path
         d="M 0,0 H 450 V 225 H 0 Z"
         id="path3" />
    </clipPath>
    <clipPath
       clipPathUnits="userSpaceOnUse"
       id="clipPath4">
      <path
         d="M 0,0 H 450 V 225 H 0 Z"
         id="path4" />
    </clipPath>
    <clipPath
       clipPathUnits="userSpaceOnUse"
       id="clipPath5">
      <path
         d="M 0,0 H 450 V 225 H 0 Z"
         id="path5" />
    </clipPath>
    <clipPath
       clipPathUnits="userSpaceOnUse"
       id="clipPath6">
      <path
         d="M 0,0 H 450 V 225 H 0 Z"
         id="path6" />
    </clipPath>
    <clipPath
       clipPathUnits="userSpaceOnUse"
       id="clipPath7">
      <path
         d="M 0,0 H 450 V 225 H 0 Z"
         transform="matrix(0.80000001,0.40000002,-0.40000002,0.80000001,0,0)"
         id="path7" />
    </clipPath>
    <clipPath
       clipPathUnits="userSpaceOnUse"
       id="clipPath8">
      <path
         d="M 0,0 H 450 V 225 H 0 Z"
         id="path8" />
    </clipPath>
    <clipPath
       clipPathUnits="userSpaceOnUse"
       id="clipPath9">
      <path
         d="M 0,0 H 450 V 225 H 0 Z"
         transform="matrix(-0.80000001,-0.40000002,0.40000002,-0.80000001,0,0)"
         id="path9" />
    </clipPath>
    <clipPath
       clipPathUnits="userSpaceOnUse"
       id="clipPath10">
      <path
         d="M 0,0 H 450 V 225 H 0 Z"
         id="path10" />
    </clipPath>
    <clipPath
       clipPathUnits="userSpaceOnUse"
       id="clipPath11">
      <path
         d="M 0,0 H 450 V 225 H 0 Z"
         transform="matrix(0.50000001,-0.50000001,0.50000001,0.50000001,0,0)"
         id="path11" />
    </clipPath>
    <clipPath
       clipPathUnits="userSpaceOnUse"
       id="clipPath12">
      <path
         d="M 0,0 H 450 V 225 H 0 Z"
         id="path12" />
    </clipPath>
    <clipPath
       clipPathUnits="userSpaceOnUse"
       id="clipPath13">
      <path
         d="M 0,0 H 450 V 225 H 0 Z"
         transform="matrix(-0.50000001,0.50000001,-0.50000001,-0.50000001,0,0)"
         id="path13" />
    </clipPath>
    <clipPath
       clipPathUnits="userSpaceOnUse"
       id="clipPath54">
      <path
         d="M 0,0 H 450 V 225 H 0 Z"
         id="path54" />
    </clipPath>
    <clipPath
       clipPathUnits="userSpaceOnUse"
       id="clipPath55">
      <path
         d="M 0,0 H 450 V 225 H 0 Z"
         transform="matrix(-0.80000001,-0.40000002,0.40000002,-0.80000001,0,0)"
         id="path55" />
    </clipPath>
    <clipPath
       clipPathUnits="userSpaceOnUse"
       id="clipPath56">
      <path
         d="M 0,0 H 450 V 225 H 0 Z"
         id="path56" />
    </clipPath>
    <clipPath
       clipPathUnits="userSpaceOnUse"
       id="clipPath57">
      <path
         d="M 0,0 H 450 V 225 H 0 Z"
         transform="matrix(0.80000001,0.40000002,-0.40000002,0.80000001,0,0)"
         id="path57" />
    </clipPath>
    <clipPath
       clipPathUnits="userSpaceOnUse"
       id="clipPath58">
      <path
         d="M 0,0 H 450 V 225 H 0 Z"
         id="path58" />
    </clipPath>
    <clipPath
       clipPathUnits="userSpaceOnUse"
       id="clipPath59">
      <path
         d="M 0,0 H 450 V 225 H 0 Z"
         transform="matrix(-0.50000001,0.50000001,-0.50000001,-0.50000001,0,0)"
         id="path59" />
    </clipPath>
    <clipPath
       clipPathUnits="userSpaceOnUse"
       id="clipPath60">
      <path
         d="M 0,0 H 450 V 225 H 0 Z"
         id="path60" />
    </clipPath>
    <clipPath
       clipPathUnits="userSpaceOnUse"
       id="clipPath61">
      <path
         d="M 0,0 H 450 V 225 H 0 Z"
         transform="matrix(0.50000001,-0.50000001,0.50000001,0.50000001,0,0)"
         id="path61" />
    </clipPath>
    <clipPath
       clipPathUnits="userSpaceOnUse"
       id="clipPath62">
      <path
         d="M 0,0 H 450 V 225 H 0 Z"
         id="path62" />
    </clipPath>
    <clipPath
       clipPathUnits="userSpaceOnUse"
       id="clipPath63">
      <path
         d="M 0,0 H 450 V 225 H 0 Z"
         id="path63" />
    </clipPath>
    <clipPath
       clipPathUnits="userSpaceOnUse"
       id="clipPath64">
      <path
         d="M 0,0 H 450 V 225 H 0 Z"
         id="path64" />
    </clipPath>
    <clipPath
       clipPathUnits="userSpaceOnUse"
       id="clipPath31">
      <path
         d="M 0,0 H 450 V 225 H 0 Z"
         id="path31-3" />
    </clipPath>
    <clipPath
       clipPathUnits="userSpaceOnUse"
       id="clipPath32">
      <path
         d="M 0,0 H 450 V 225 H 0 Z"
         transform="matrix(-0.90000182,-0.29999761,0.29999761,-0.90000182,0,0)"
         id="path32-6" />
    </clipPath>
    <clipPath
       clipPathUnits="userSpaceOnUse"
       id="clipPath33">
      <path
         d="M 0,0 H 450 V 225 H 0 Z"
         id="path33-0" />
    </clipPath>
    <clipPath
       clipPathUnits="userSpaceOnUse"
       id="clipPath34">
      <path
         d="M 0,0 H 450 V 225 H 0 Z"
         transform="matrix(0.90000182,0.29999761,-0.29999761,0.90000182,0,0)"
         id="path34-5" />
    </clipPath>
    <clipPath
       clipPathUnits="userSpaceOnUse"
       id="clipPath35">
      <path
         d="M 0,0 H 450 V 225 H 0 Z"
         id="path35-0" />
    </clipPath>
    <clipPath
       clipPathUnits="userSpaceOnUse"
       id="clipPath36">
      <path
         d="M 0,0 H 450 V 225 H 0 Z"
         id="path36-2" />
    </clipPath>
    <clipPath
       clipPathUnits="userSpaceOnUse"
       id="clipPath2-9">
      <path
         d="M 0,0 H 450 V 225 H 0 Z"
         transform="scale(1.3333333)"
         id="path2-4" />
    </clipPath>
    <clipPath
       clipPathUnits="userSpaceOnUse"
       id="clipPath1-3">
      <path
         d="M 0,0 H 450 V 225 H 0 Z"
         id="path1-5" />
    </clipPath>
    <clipPath
       clipPathUnits="userSpaceOnUse"
       id="clipPath3-1">
      <path
         d="M 0,0 H 450 V 225 H 0 Z"
         id="path3-7" />
    </clipPath>
    <clipPath
       clipPathUnits="userSpaceOnUse"
       id="clipPath4-4">
      <path
         d="M 0,0 H 450 V 225 H 0 Z"
         id="path4-3" />
    </clipPath>
    <clipPath
       clipPathUnits="userSpaceOnUse"
       id="clipPath5-1">
      <path
         d="M 0,0 H 450 V 225 H 0 Z"
         id="path5-4" />
    </clipPath>
    <clipPath
       clipPathUnits="userSpaceOnUse"
       id="clipPath6-6">
      <path
         d="M 0,0 H 450 V 225 H 0 Z"
         transform="matrix(0.90000182,0.29999761,-0.29999761,0.90000182,0,0)"
         id="path6-9" />
    </clipPath>
    <clipPath
       clipPathUnits="userSpaceOnUse"
       id="clipPath7-4">
      <path
         d="M 0,0 H 450 V 225 H 0 Z"
         id="path7-2" />
    </clipPath>
    <clipPath
       clipPathUnits="userSpaceOnUse"
       id="clipPath8-2">
      <path
         d="M 0,0 H 450 V 225 H 0 Z"
         transform="matrix(-0.90000182,-0.29999761,0.29999761,-0.90000182,0,0)"
         id="path8-6" />
    </clipPath>
  </defs>
  <sodipodi:namedview
     id="namedview1"
     pagecolor="#ffffff"
     bordercolor="#000000"
     borderopacity="0.25"
     inkscape:showpageshadow="2"
     inkscape:pageopacity="0.0"
     inkscape:pagecheckerboard="0"
     inkscape:deskcolor="#d1d1d1"
     inkscape:zoom="0.83573952"
     inkscape:cx="341.61361"
     inkscape:cy="108.28733"
     inkscape:window-width="1920"
     inkscape:window-height="1024"
     inkscape:window-x="0"
     inkscape:window-y="0"
     inkscape:window-maximized="1"
     inkscape:current-layer="g25">
    <inkscape:page
       x="0"
       y="0"
       inkscape:label="1"
       id="page1"
       width="894.2226"
       height="216.16624"
       margin="0"
       bleed="0" />
  </sodipodi:namedview>
  <g
     id="g1"
     inkscape:groupmode="layer"
     inkscape:label="1"
     transform="translate(365.96794,-82.098657)">
    <g
       id="g25">
      <g
         clip-path="url(#clipPath2)"
         id="g14" />
      <path
         d="M 94.227,176.371 272.648,87.16"
         style="fill:none;stroke:#000000;stroke-width:1.5;stroke-linecap:butt;stroke-linejoin:round;stroke-miterlimit:4;stroke-dasharray:none;stroke-opacity:1"
         transform="scale(1.3333333)"
         clip-path="url(#clipPath4)"
         id="path16" />
      <path
         d="m 272.641,87.156 89.211,89.211"
         style="fill:none;stroke:#000000;stroke-width:1.5;stroke-linecap:butt;stroke-linejoin:round;stroke-miterlimit:4;stroke-dasharray:none;stroke-opacity:1"
         transform="scale(1.3333333)"
         clip-path="url(#clipPath5)"
         id="path17" />
      <path
         d="M 183.441,149.609 97.547,192.555"
         style="fill:none;stroke:#000000;stroke-width:0.5625;stroke-linecap:butt;stroke-linejoin:round;stroke-miterlimit:4;stroke-dasharray:none;stroke-opacity:1"
         transform="scale(1.3333333)"
         clip-path="url(#clipPath6)"
         id="path18" />
      <path
         d="m 0.833,193.061 1.003,-1.006 -3.519,1.006 3.521,1.006 z"
         style="fill:#000000;fill-opacity:1;fill-rule:nonzero;stroke:#000000;stroke-width:0.26833;stroke-linecap:butt;stroke-linejoin:miter;stroke-miterlimit:4;stroke-dasharray:none;stroke-opacity:1"
         transform="matrix(1.3333333,-0.66666667,0.66666667,1.3333333,0,0)"
         clip-path="url(#clipPath7)"
         id="path19" />
      <path
         d="M 183.441,149.609 269.332,106.66"
         style="fill:none;stroke:#000000;stroke-width:0.5625;stroke-linecap:butt;stroke-linejoin:round;stroke-miterlimit:4;stroke-dasharray:none;stroke-opacity:1"
         transform="scale(1.3333333)"
         clip-path="url(#clipPath8)"
         id="path20" />
      <path
         d="m -172.981,-193.061 1.004,-1.009 -3.52,1.009 3.52,1.006 z"
         style="fill:#000000;fill-opacity:1;fill-rule:nonzero;stroke:#000000;stroke-width:0.26833;stroke-linecap:butt;stroke-linejoin:miter;stroke-miterlimit:4;stroke-dasharray:none;stroke-opacity:1"
         transform="matrix(-1.3333333,0.66666667,-0.66666667,-1.3333333,0,0)"
         clip-path="url(#clipPath9)"
         id="path21" />
      <path
         d="M 317.25,149.609 275.266,107.625"
         style="fill:none;stroke:#000000;stroke-width:0.5625;stroke-linecap:butt;stroke-linejoin:round;stroke-miterlimit:4;stroke-dasharray:none;stroke-opacity:1"
         transform="scale(1.3333333)"
         clip-path="url(#clipPath10)"
         id="path22" />
      <path
         d="m 191.301,-83.824 0.795,-0.795 -2.784,0.795 2.786,0.797 z"
         style="fill:#000000;fill-opacity:1;fill-rule:nonzero;stroke:#000000;stroke-width:0.21213;stroke-linecap:butt;stroke-linejoin:miter;stroke-miterlimit:4;stroke-dasharray:none;stroke-opacity:1"
         transform="matrix(1.3333333,1.3333333,-1.3333333,1.3333333,0,0)"
         clip-path="url(#clipPath11)"
         id="path23" />
      <path
         d="m 317.25,149.609 41.984,41.981"
         style="fill:none;stroke:#000000;stroke-width:0.5625;stroke-linecap:butt;stroke-linejoin:round;stroke-miterlimit:4;stroke-dasharray:none;stroke-opacity:1"
         transform="scale(1.3333333)"
         clip-path="url(#clipPath12)"
         id="path24" />
      <path
         d="m -275.549,83.822 0.795,-0.795 -2.783,0.795 2.785,0.797 z"
         style="fill:#000000;fill-opacity:1;fill-rule:nonzero;stroke:#000000;stroke-width:0.21213;stroke-linecap:butt;stroke-linejoin:miter;stroke-miterlimit:4;stroke-dasharray:none;stroke-opacity:1"
         transform="matrix(-1.3333333,-1.3333333,1.3333333,-1.3333333,0,0)"
         clip-path="url(#clipPath13)"
         id="path25" />
      <g
         id="g15"
         transform="translate(-447.21327,0.29199254)">
        <path
           d="M 94.227,176.371 361.855,87.16"
           style="fill:none;stroke:#000000;stroke-width:1.5;stroke-linecap:butt;stroke-linejoin:round;stroke-miterlimit:4;stroke-dasharray:none;stroke-opacity:1"
           transform="scale(1.3333333)"
           clip-path="url(#clipPath4-4)"
           id="path11-8" />
        <path
           d="M 228.039,149.609 97.75,193.039"
           style="fill:none;stroke:#000000;stroke-width:0.5625;stroke-linecap:butt;stroke-linejoin:round;stroke-miterlimit:4;stroke-dasharray:none;stroke-opacity:1"
           transform="scale(1.3333333)"
           clip-path="url(#clipPath5-1)"
           id="path12-9" />
        <path
           d="m 29.865,203.06 1.067,-1.07 -3.734,1.068 3.737,1.07 z"
           style="fill:#000000;fill-opacity:1;fill-rule:nonzero;stroke:#000000;stroke-width:0.2846;stroke-linecap:butt;stroke-linejoin:miter;stroke-miterlimit:4;stroke-dasharray:none;stroke-opacity:1"
           transform="matrix(1.3333333,-0.44444,0.44444,1.3333333,0,0)"
           clip-path="url(#clipPath6-6)"
           id="path13-2" />
        <path
           d="M 228.039,149.609 358.34,106.176"
           style="fill:none;stroke:#000000;stroke-width:0.5625;stroke-linecap:butt;stroke-linejoin:round;stroke-miterlimit:4;stroke-dasharray:none;stroke-opacity:1"
           transform="scale(1.3333333)"
           clip-path="url(#clipPath7-4)"
           id="path14-8" />
        <path
           d="m -290.842,-203.059 1.067,-1.067 -3.735,1.068 3.734,1.068 z"
           style="fill:#000000;fill-opacity:1;fill-rule:nonzero;stroke:#000000;stroke-width:0.2846;stroke-linecap:butt;stroke-linejoin:miter;stroke-miterlimit:4;stroke-dasharray:none;stroke-opacity:1"
           transform="matrix(-1.3333333,0.44444,-0.44444,-1.3333333,0,0)"
           clip-path="url(#clipPath8-2)"
           id="path15-8" />
      </g>
      <path
         id="path16-8"
         d="m -352.34394,259.23998 v -12.87466 c 0,-1.62534 -0.36933,-2.83334 -1.104,-3.62534 -0.73867,-0.80266 -1.896,-1.208 -3.47867,-1.208 -2.07333,0 -3.59333,0.56267 -4.56266,1.68667 -0.97467,1.12533 -1.45867,2.99067 -1.45867,5.584 v 10.43733 h -3.02 v -19.896 h 2.45733 l 0.5,2.708 h 0.14667 c 0.60933,-0.968 1.468,-1.72933 2.58267,-2.27066 1.10933,-0.54134 2.35466,-0.812 3.72933,-0.812 2.38533,0 4.188,0.58266 5.396,1.74933 1.21867,1.15733 1.83333,3 1.83333,5.54267 v 12.97866 z"
         style="fill:#000000;fill-opacity:1;fill-rule:nonzero;stroke:none;stroke-width:1.33333" />
      <path
         id="path17-6"
         d="m -336.32794,264.81865 v -0.688 h -0.77067 c -2.25066,0 -2.292,-0.27067 -2.292,-1.208 v -14.75067 c 0,-0.54133 -0.0413,-0.56266 -0.396,-0.56266 -1.02,1.20933 -2.56266,1.604 -4.02,1.66666 -0.0627,0 -0.20933,0 -0.22933,0.0427 -0.0213,0.0613 -0.0213,0.104 -0.0213,0.64533 0.81333,0 2.16666,-0.14533 3.208,-0.77066 v 13.72933 c 0,0.896 -0.0613,1.208 -2.29067,1.208 h -0.792 v 0.688 l 3.812,-0.0627 z"
         style="fill:#000000;fill-opacity:1;fill-rule:nonzero;stroke:none;stroke-width:1.33333" />
      <path
         id="path18-8"
         d="m 63.96405,116.49999 v -12.87467 c 0,-1.62533 -0.37067,-2.83333 -1.104,-3.62533 -0.74,-0.801334 -1.896,-1.208 -3.48,-1.208 -2.072,0 -3.59333,0.562666 -4.56267,1.688 -0.97333,1.124 -1.45733,2.98933 -1.45733,5.58267 v 10.43733 h -3.02133 v -19.896 h 2.45866 l 0.5,2.709333 h 0.14534 c 0.60933,-0.969333 1.46933,-1.729333 2.584,-2.272 1.10933,-0.541333 2.35333,-0.812 3.72933,-0.812 2.38533,0 4.18667,0.584 5.39467,1.750667 1.22,1.156 1.83333,3 1.83333,5.54133 v 12.97867 z"
         style="fill:#000000;fill-opacity:1;fill-rule:nonzero;stroke:none;stroke-width:1.33333" />
      <path
         id="path19-3"
         d="m 80.83338,118.03732 h -0.45866 c -0.27067,1.85333 -0.47867,2.16667 -0.58267,2.312 -0.12533,0.208 -2,0.208 -2.35467,0.208 h -5 l 4.95867,-5 c 1.604,-1.5 3.43733,-3.27067 3.43733,-5.85333 0,-3.06267 -2.43733,-4.83333 -5.16666,-4.83333 -2.87467,0 -4.62534,2.52 -4.62534,4.85333 0,1.02133 0.772,1.14666 1.084,1.14666 0.24934,0 1.04134,-0.14666 1.04134,-1.06266 0,-0.81333 -0.68667,-1.04267 -1.04134,-1.04267 -0.16666,0 -0.312,0.0213 -0.41733,0.084 0.48,-2.208 2,-3.312 3.584,-3.312 2.27067,0 3.74933,1.79067 3.74933,4.16667 0,2.27066 -1.33333,4.228 -2.812,5.916 l -5.188,5.85466 v 0.604 h 9.16667 z"
         style="fill:#000000;fill-opacity:1;fill-rule:nonzero;stroke:none;stroke-width:1.33333" />
      <path
         id="path20-8"
         d="m -307.45327,189.56265 h -4.79067 v 16.14533 h -5.54267 v -16.14533 h -3.04133 v -2.66666 l 3.04133,-1.47867 v -1.5 c 0,-2.30267 0.568,-3.98933 1.70934,-5.06267 1.13466,-1.068 2.95733,-1.604 5.45733,-1.604 1.91733,0 3.61467,0.28667 5.104,0.85334 l -1.416,4.06266 c -1.11467,-0.344 -2.14133,-0.52 -3.084,-0.52 -0.78133,0 -1.348,0.23867 -1.708,0.708 -0.34933,0.45867 -0.52,1.05734 -0.52,1.792 v 1.27067 h 4.79067 z"
         style="fill:#ff0000;fill-opacity:1;fill-rule:nonzero;stroke:none;stroke-width:1.33333" />
      <path
         id="path21-3"
         d="m -302.81727,212.00532 h -2.12534 v -13.93733 h 2.12534 z m -2.292,-17.708 c 0,-0.484 0.11466,-0.83867 0.35466,-1.06267 0.23467,-0.21866 0.53067,-0.33333 0.896,-0.33333 0.33334,0 0.624,0.12 0.87467,0.35467 0.24933,0.224 0.37467,0.572 0.37467,1.04133 0,0.47333 -0.12534,0.828 -0.37467,1.06267 -0.25067,0.23866 -0.54133,0.35333 -0.87467,0.35333 -0.36533,0 -0.66133,-0.11467 -0.896,-0.35333 -0.24,-0.23467 -0.35466,-0.58934 -0.35466,-1.06267 z"
         style="fill:#ff0000;fill-opacity:1;fill-rule:nonzero;stroke:none;stroke-width:1.33333" />
      <path
         id="path22-3"
         d="m -288.81727,212.00532 v -9.02 c 0,-1.136 -0.26,-1.98534 -0.77067,-2.54267 -0.516,-0.552 -1.328,-0.83333 -2.43733,-0.83333 -1.45867,0 -2.532,0.396 -3.20934,1.188 -0.66666,0.78133 -1,2.07866 -1,3.896 v 7.312 h -2.124 v -13.93733 h 1.72934 l 0.33333,1.91733 h 0.104 c 0.42667,-0.69333 1.03067,-1.22933 1.812,-1.60533 0.792,-0.37467 1.66667,-0.56134 2.62533,-0.56134 1.66667,0 2.92134,0.40534 3.77067,1.208 0.85867,0.80667 1.292,2.104 1.292,3.896 v 9.08267 z"
         style="fill:#ff0000;fill-opacity:1;fill-rule:nonzero;stroke:none;stroke-width:1.33333" />
      <path
         id="path23-3"
         d="m -277.86927,210.52665 c 0.37466,0 0.73466,-0.0267 1.08266,-0.084 0.344,-0.052 0.62534,-0.11467 0.83334,-0.18667 v 1.624 c -0.224,0.11467 -0.56267,0.19867 -1.02,0.272 -0.448,0.0667 -0.844,0.104 -1.188,0.104 -2.69734,0 -4.04134,-1.41733 -4.04134,-4.25066 v -8.292 h -2 v -1.02 l 2,-0.87467 0.87467,-2.98 h 1.22933 v 3.22934 h 4.04134 v 1.64533 h -4.04134 v 8.188 c 0,0.84933 0.192,1.5 0.58267,1.95866 0.40133,0.448 0.948,0.66667 1.64667,0.66667 z"
         style="fill:#ff0000;fill-opacity:1;fill-rule:nonzero;stroke:none;stroke-width:1.33333" />
      <path
         id="path24-8"
         d="m -21.97861,94.41199 h -4.792 v 16.14533 h -5.54134 V 94.41199 h -3.04133 v -2.666667 l 3.04133,-1.48 v -1.5 c 0,-2.301333 0.568,-3.989333 1.708,-5.061333 1.136,-1.068 2.95867,-1.605333 5.45867,-1.605333 1.916,0 3.61467,0.286666 5.104,0.854666 l -1.41733,4.062667 c -1.11467,-0.344 -2.14,-0.521333 -3.08267,-0.521333 -0.78133,0 -1.34933,0.24 -1.708,0.709333 -0.34933,0.457333 -0.52133,1.057333 -0.52133,1.790666 v 1.270667 h 4.792 z"
         style="fill:#ff0000;fill-opacity:1;fill-rule:nonzero;stroke:none;stroke-width:1.33333" />
      <path
         id="path25-0"
         d="m -17.34928,116.85465 h -2.124 v -13.93733 h 2.124 z m -2.29067,-17.707994 c 0,-0.485333 0.11467,-0.838666 0.35334,-1.062666 0.23466,-0.218667 0.532,-0.333334 0.896,-0.333334 0.33333,0 0.62533,0.12 0.87466,0.353334 0.25067,0.224 0.376,0.573333 0.376,1.042666 0,0.473334 -0.12533,0.828 -0.376,1.062664 -0.24933,0.23867 -0.54133,0.35334 -0.87466,0.35334 -0.364,0 -0.66134,-0.11467 -0.896,-0.35334 -0.23867,-0.234664 -0.35334,-0.58933 -0.35334,-1.062664 z"
         style="fill:#ff0000;fill-opacity:1;fill-rule:nonzero;stroke:none;stroke-width:1.33333" />
      <path
         id="path26-4"
         d="m -3.34395,116.85465 v -9.02133 c 0,-1.13466 -0.26,-1.984 -0.77066,-2.54133 -0.51467,-0.552 -1.328,-0.83333 -2.43734,-0.83333 -1.45866,0 -2.53066,0.396 -3.208,1.188 -0.66666,0.78133 -1,2.07733 -1,3.89599 v 7.312 h -2.12533 v -13.93733 h 1.72933 l 0.33334,1.916 h 0.104 c 0.42666,-0.692 1.032,-1.22933 1.812,-1.604 0.792,-0.37466 1.66666,-0.56266 2.62533,-0.56266 1.66667,0 2.92267,0.40666 3.77067,1.20933 0.86,0.80667 1.292,2.104 1.292,3.89467 v 9.08399 z"
         style="fill:#ff0000;fill-opacity:1;fill-rule:nonzero;stroke:none;stroke-width:1.33333" />
      <path
         id="path27-7"
         d="m 7.59872,115.37465 c 0.376,0 0.73467,-0.0253 1.084,-0.0827 0.344,-0.052 0.62533,-0.11467 0.83333,-0.188 v 1.62533 c -0.224,0.11467 -0.56266,0.19867 -1.02133,0.27067 -0.448,0.068 -0.844,0.104 -1.18667,0.104 -2.69866,0 -4.04266,-1.416 -4.04266,-4.24934 v -8.29199 h -2 v -1.02 l 2,-0.876 0.876,-2.97867 h 1.22933 v 3.22933 h 4.04133 v 1.64534 H 5.37072 v 8.18799 c 0,0.848 0.192,1.5 0.58267,1.95734 0.40133,0.448 0.948,0.66666 1.64533,0.66666 z"
         style="fill:#ff0000;fill-opacity:1;fill-rule:nonzero;stroke:none;stroke-width:1.33333" />
      <path
         id="path28-6"
         d="m -134.38528,230.13065 c 0,-0.188 -0.14533,-0.33333 -0.37466,-0.33333 -0.33334,0 -0.35467,0.188 -0.52134,0.72933 -0.66666,2.58267 -1.33333,4.54133 -2.812,4.54133 -1.12533,0 -1.12533,-1.188 -1.12533,-1.708 0,-0.14666 0,-0.93733 0.27067,-1.98 l 5.22933,-20.80666 c 0.0413,-0.14534 0.12533,-0.37467 0.12533,-0.56267 0,-0.37467 -0.45866,-0.37467 -0.45866,-0.37467 l -2.04134,0.18667 c -0.62533,0.0427 -1.188,0.10533 -1.85466,0.14667 -0.896,0.0827 -1.14534,0.12533 -1.14534,0.792 0,0.37466 0.35334,0.37466 0.72934,0.37466 1.896,0 1.896,0.33334 1.896,0.708 0,0.14534 0,0.208 -0.188,0.87467 l -4.604,18.45867 c -0.104,0.396 -0.188,0.708 -0.188,1.292 0,1.85333 1.37466,3.35333 3.27066,3.35333 1.22934,0 2.04267,-0.812 2.64667,-1.97867 0.624,-1.22933 1.14533,-3.56266 1.14533,-3.708 z"
         style="fill:#000000;fill-opacity:1;fill-rule:nonzero;stroke:none;stroke-width:1.33333" />
      <path
         id="path29-8"
         d="m -122.30661,241.02665 v -0.688 h -0.77067 c -2.25066,0 -2.292,-0.27067 -2.292,-1.208 v -14.75067 c 0,-0.54133 -0.0413,-0.56133 -0.396,-0.56133 -1.02133,1.208 -2.56266,1.604 -4.02133,1.66667 -0.0627,0 -0.208,0 -0.22933,0.0413 -0.02,0.0627 -0.02,0.104 -0.02,0.64533 0.812,0 2.16666,-0.14533 3.208,-0.77066 v 13.72933 c 0,0.896 -0.0627,1.208 -2.292,1.208 h -0.79067 v 0.688 l 3.812,-0.0627 z"
         style="fill:#000000;fill-opacity:1;fill-rule:nonzero;stroke:none;stroke-width:1.33333" />
      <path
         id="path30-9"
         d="m -109.51595,236.98532 h -0.45733 c -0.27067,1.85333 -0.48,2.16666 -0.584,2.312 -0.12533,0.208 -2,0.208 -2.35333,0.208 h -5 l 4.95733,-5 c 1.604,-1.5 3.43733,-3.27067 3.43733,-5.85334 0,-3.06266 -2.43733,-4.83333 -5.16666,-4.83333 -2.87467,0 -4.624,2.52 -4.624,4.85333 0,1.02134 0.77067,1.14667 1.08267,1.14667 0.25066,0 1.04133,-0.14667 1.04133,-1.06267 0,-0.81333 -0.68667,-1.04266 -1.04133,-1.04266 -0.16667,0 -0.312,0.0213 -0.416,0.084 0.47866,-2.208 2,-3.312 3.58266,-3.312 2.27067,0 3.75067,1.79066 3.75067,4.16666 0,2.27067 -1.33334,4.228 -2.81333,5.916 l -5.18667,5.85467 v 0.604 h 9.16666 z"
         style="fill:#000000;fill-opacity:1;fill-rule:nonzero;stroke:none;stroke-width:1.33333" />
      <g
         id="g42"
         transform="translate(-447.21327,0.29199254)">
        <path
           d="m 94.227,176.371 32.933,-10.98"
           style="fill:none;stroke:#ff0000;stroke-width:1.5;stroke-linecap:butt;stroke-linejoin:round;stroke-miterlimit:4;stroke-dasharray:none;stroke-opacity:1"
           transform="scale(1.3333333)"
           clip-path="url(#clipPath31)"
           id="path37-0" />
        <path
           d="m -65.34,-186.998 2.843,-2.846 -9.959,2.844 9.96,2.848 z"
           style="fill:#ff0000;fill-opacity:1;fill-rule:nonzero;stroke:#ff0000;stroke-width:0.75895;stroke-linecap:butt;stroke-linejoin:miter;stroke-miterlimit:4;stroke-dasharray:none;stroke-opacity:1"
           transform="matrix(-1.3333333,0.44444,-0.44444,-1.3333333,0,0)"
           clip-path="url(#clipPath32)"
           id="path38-6" />
        <path
           d="M 361.859,87.156 328.926,98.137"
           style="fill:none;stroke:#ff0000;stroke-width:1.5;stroke-linecap:butt;stroke-linejoin:round;stroke-miterlimit:4;stroke-dasharray:none;stroke-opacity:1"
           transform="scale(1.3333333)"
           clip-path="url(#clipPath33)"
           id="path39-8" />
        <path
           d="m 266.081,187.001 2.843,-2.845 -9.96,2.844 9.961,2.848 z"
           style="fill:#ff0000;fill-opacity:1;fill-rule:nonzero;stroke:#ff0000;stroke-width:0.75895;stroke-linecap:butt;stroke-linejoin:miter;stroke-miterlimit:4;stroke-dasharray:none;stroke-opacity:1"
           transform="matrix(1.3333333,-0.44444,0.44444,1.3333333,0,0)"
           clip-path="url(#clipPath34)"
           id="path40-7" />
        <path
           d="m 98.086,176.371 c 0,2.172 -1.766,3.938 -3.938,3.938 -2.175,0 -3.937,-1.766 -3.937,-3.938 0,-2.176 1.762,-3.937 3.937,-3.937 2.172,0 3.938,1.761 3.938,3.937 z"
           style="fill:#000000;fill-opacity:1;fill-rule:nonzero;stroke:#000000;stroke-width:2.3625;stroke-linecap:butt;stroke-linejoin:round;stroke-miterlimit:4;stroke-dasharray:none;stroke-opacity:1"
           transform="scale(1.3333333)"
           clip-path="url(#clipPath35)"
           id="path41-9" />
        <path
           d="m 365.711,87.156 c 0,2.176 -1.766,3.938 -3.938,3.938 -2.175,0 -3.937,-1.762 -3.937,-3.938 0,-2.172 1.762,-3.937 3.937,-3.937 2.172,0 3.938,1.765 3.938,3.937 z"
           style="fill:#000000;fill-opacity:1;fill-rule:nonzero;stroke:#000000;stroke-width:2.3625;stroke-linecap:butt;stroke-linejoin:round;stroke-miterlimit:4;stroke-dasharray:none;stroke-opacity:1"
           transform="scale(1.3333333)"
           clip-path="url(#clipPath36)"
           id="path42-0" />
      </g>
    </g>
    <path
       id="path26"
       d="m 71.152,194.211 v -9.656 c 0,-1.219 -0.277,-2.125 -0.828,-2.719 -0.554,-0.602 -1.422,-0.906 -2.609,-0.906 -1.555,0 -2.695,0.422 -3.422,1.265 -0.731,0.844 -1.094,2.243 -1.094,4.188 v 7.828 h -2.265 v -14.922 h 1.843 l 0.375,2.031 h 0.11 c 0.457,-0.726 1.101,-1.297 1.937,-1.703 0.832,-0.406 1.766,-0.609 2.797,-0.609 1.789,0 3.141,0.437 4.047,1.312 0.914,0.868 1.375,2.25 1.375,4.157 v 9.734 z"
       style="fill:#000000;fill-opacity:1;fill-rule:nonzero;stroke:none"
       transform="scale(1.3333333)" />
    <path
       id="path27"
       d="m 83.164,198.395 v -0.516 h -0.578 c -1.688,0 -1.719,-0.203 -1.719,-0.906 V 185.91 c 0,-0.406 -0.031,-0.422 -0.297,-0.422 -0.765,0.907 -1.922,1.203 -3.015,1.25 -0.047,0 -0.157,0 -0.172,0.032 -0.016,0.046 -0.016,0.078 -0.016,0.484 0.61,0 1.625,-0.109 2.406,-0.578 v 10.297 c 0,0.672 -0.046,0.906 -1.718,0.906 h -0.594 v 0.516 l 2.859,-0.047 z"
       style="fill:#000000;fill-opacity:1;fill-rule:nonzero;stroke:none"
       transform="scale(1.3333333)" />
    <path
       id="path28"
       d="m 267.41,78.234 v -9.656 c 0,-1.219 -0.277,-2.125 -0.828,-2.719 -0.555,-0.601 -1.422,-0.906 -2.609,-0.906 -1.555,0 -2.696,0.422 -3.422,1.266 -0.731,0.843 -1.094,2.242 -1.094,4.187 v 7.828 h -2.266 V 63.312 h 1.844 l 0.375,2.032 h 0.11 c 0.457,-0.727 1.101,-1.297 1.937,-1.703 0.832,-0.407 1.766,-0.61 2.797,-0.61 1.789,0 3.141,0.438 4.047,1.313 0.914,0.867 1.375,2.25 1.375,4.156 v 9.734 z"
       style="fill:#000000;fill-opacity:1;fill-rule:nonzero;stroke:none"
       transform="scale(1.3333333)" />
    <path
       id="path29"
       d="m 280.062,79.391 h -0.343 c -0.203,1.39 -0.36,1.625 -0.438,1.734 -0.093,0.156 -1.5,0.156 -1.765,0.156 h -3.75 l 3.718,-3.75 c 1.204,-1.125 2.578,-2.453 2.578,-4.39 0,-2.297 -1.828,-3.625 -3.874,-3.625 -2.157,0 -3.469,1.89 -3.469,3.64 0,0.766 0.578,0.86 0.812,0.86 0.188,0 0.781,-0.11 0.781,-0.797 0,-0.61 -0.515,-0.781 -0.781,-0.781 -0.125,0 -0.234,0.015 -0.312,0.062 0.359,-1.656 1.5,-2.484 2.687,-2.484 1.703,0 2.813,1.343 2.813,3.125 0,1.703 -1,3.171 -2.11,4.437 l -3.89,4.391 v 0.453 h 6.875 z"
       style="fill:#000000;fill-opacity:1;fill-rule:nonzero;stroke:none"
       transform="scale(1.3333333)" />
    <path
       id="path30"
       d="m 383.383,194.211 v -9.656 c 0,-1.219 -0.278,-2.125 -0.828,-2.719 -0.555,-0.602 -1.422,-0.906 -2.61,-0.906 -1.554,0 -2.695,0.422 -3.422,1.265 -0.73,0.844 -1.093,2.243 -1.093,4.188 v 7.828 h -2.266 v -14.922 h 1.844 l 0.375,2.031 h 0.109 c 0.457,-0.726 1.102,-1.297 1.938,-1.703 0.832,-0.406 1.765,-0.609 2.797,-0.609 1.789,0 3.14,0.437 4.046,1.312 0.915,0.868 1.375,2.25 1.375,4.157 v 9.734 z"
       style="fill:#000000;fill-opacity:1;fill-rule:nonzero;stroke:none"
       transform="scale(1.3333333)" />
    <path
       id="path31"
       d="m 396.191,195.02 c 0,-1.907 -1.562,-3.266 -3.406,-3.485 1.485,-0.312 2.906,-1.64 2.906,-3.422 0,-1.515 -1.546,-2.625 -3.296,-2.625 -1.782,0 -3.344,1.094 -3.344,2.657 0,0.671 0.5,0.796 0.765,0.796 0.407,0 0.75,-0.25 0.75,-0.765 0,-0.5 -0.343,-0.766 -0.75,-0.766 -0.078,0 -0.187,0 -0.265,0.047 0.578,-1.297 2.109,-1.531 2.797,-1.531 0.687,0 1.968,0.344 1.968,2.219 0,0.546 -0.078,1.515 -0.734,2.375 -0.594,0.765 -1.25,0.796 -1.891,0.859 -0.109,0 -0.546,0.047 -0.625,0.047 -0.14,0.015 -0.218,0.031 -0.218,0.172 0,0.14 0.015,0.156 0.406,0.156 h 0.953 c 1.75,0 2.5,1.5 2.5,3.234 0,2.344 -1.25,3.25 -2.375,3.25 -1.031,0 -2.719,-0.515 -3.25,-2.015 0.109,0.047 0.203,0.047 0.297,0.047 0.469,0 0.828,-0.313 0.828,-0.829 0,-0.562 -0.437,-0.812 -0.828,-0.812 -0.328,0 -0.844,0.156 -0.844,0.875 0,1.797 1.766,3.203 3.828,3.203 2.172,0 3.828,-1.703 3.828,-3.687 z"
       style="fill:#000000;fill-opacity:1;fill-rule:nonzero;stroke:none"
       transform="scale(1.3333333)" />
    <path
       id="path32"
       d="m 104.82,137.496 h -3.593 v 12.109 H 97.07 v -12.109 h -2.281 v -2 l 2.281,-1.109 v -1.125 c 0,-1.727 0.426,-2.992 1.282,-3.797 0.851,-0.801 2.218,-1.203 4.093,-1.203 1.438,0 2.711,0.215 3.828,0.64 l -1.062,3.047 c -0.836,-0.258 -1.606,-0.39 -2.313,-0.39 -0.586,0 -1.011,0.179 -1.281,0.531 -0.262,0.344 -0.39,0.793 -0.39,1.344 v 0.953 h 3.593 z"
       style="fill:#ff0000;fill-opacity:1;fill-rule:nonzero;stroke:none"
       transform="scale(1.3333333)" />
    <path
       id="path33"
       d="m 108.297,154.328 h -1.594 v -10.453 h 1.594 z m -1.719,-13.281 c 0,-0.363 0.086,-0.629 0.266,-0.797 0.176,-0.164 0.398,-0.25 0.672,-0.25 0.25,0 0.468,0.09 0.656,0.266 0.187,0.168 0.281,0.429 0.281,0.781 0,0.355 -0.094,0.621 -0.281,0.797 -0.188,0.179 -0.406,0.265 -0.656,0.265 -0.274,0 -0.496,-0.086 -0.672,-0.265 -0.18,-0.176 -0.266,-0.442 -0.266,-0.797 z"
       style="fill:#ff0000;fill-opacity:1;fill-rule:nonzero;stroke:none"
       transform="scale(1.3333333)" />
    <path
       id="path34"
       d="m 118.797,154.328 v -6.766 c 0,-0.851 -0.195,-1.488 -0.578,-1.906 -0.387,-0.414 -0.996,-0.625 -1.828,-0.625 -1.094,0 -1.899,0.297 -2.407,0.891 -0.5,0.586 -0.75,1.558 -0.75,2.922 v 5.484 h -1.593 v -10.453 h 1.297 l 0.25,1.437 h 0.078 c 0.32,-0.519 0.773,-0.921 1.359,-1.203 0.594,-0.281 1.25,-0.421 1.969,-0.421 1.25,0 2.191,0.304 2.828,0.906 0.644,0.605 0.969,1.578 0.969,2.922 v 6.812 z"
       style="fill:#ff0000;fill-opacity:1;fill-rule:nonzero;stroke:none"
       transform="scale(1.3333333)" />
    <path
       id="path35"
       d="m 127.008,153.219 c 0.281,0 0.551,-0.02 0.812,-0.063 0.258,-0.039 0.469,-0.086 0.625,-0.14 v 1.218 c -0.168,0.086 -0.422,0.149 -0.765,0.204 -0.336,0.05 -0.633,0.078 -0.891,0.078 -2.023,0 -3.031,-1.063 -3.031,-3.188 v -6.219 h -1.5 v -0.765 l 1.5,-0.656 0.656,-2.235 h 0.922 v 2.422 h 3.031 v 1.234 h -3.031 v 6.141 c 0,0.637 0.144,1.125 0.437,1.469 0.301,0.336 0.711,0.5 1.235,0.5 z"
       style="fill:#ff0000;fill-opacity:1;fill-rule:nonzero;stroke:none"
       transform="scale(1.3333333)" />
    <path
       id="path36"
       d="m 220.789,75.047 h -3.594 v 12.109 h -4.156 V 75.047 h -2.281 v -2 l 2.281,-1.109 v -1.126 c 0,-1.726 0.426,-2.992 1.281,-3.796 0.852,-0.801 2.219,-1.204 4.094,-1.204 1.438,0 2.711,0.215 3.828,0.641 L 221.18,69.5 c -0.836,-0.258 -1.606,-0.391 -2.313,-0.391 -0.586,0 -1.012,0.18 -1.281,0.532 -0.262,0.343 -0.391,0.793 -0.391,1.343 v 0.954 h 3.594 z"
       style="fill:#ff0000;fill-opacity:1;fill-rule:nonzero;stroke:none"
       transform="scale(1.3333333)" />
    <path
       id="path37"
       d="m 224.262,91.879 h -1.594 V 81.426 h 1.594 z m -1.719,-13.281 c 0,-0.364 0.086,-0.629 0.266,-0.797 0.175,-0.164 0.398,-0.25 0.671,-0.25 0.25,0 0.469,0.09 0.657,0.265 0.187,0.168 0.281,0.43 0.281,0.782 0,0.355 -0.094,0.621 -0.281,0.797 -0.188,0.179 -0.407,0.265 -0.657,0.265 -0.273,0 -0.496,-0.086 -0.671,-0.265 -0.18,-0.176 -0.266,-0.442 -0.266,-0.797 z"
       style="fill:#ff0000;fill-opacity:1;fill-rule:nonzero;stroke:none"
       transform="scale(1.3333333)" />
    <path
       id="path38"
       d="m 234.766,91.879 v -6.766 c 0,-0.851 -0.196,-1.488 -0.578,-1.906 -0.387,-0.414 -0.997,-0.625 -1.829,-0.625 -1.093,0 -1.898,0.297 -2.406,0.891 -0.5,0.586 -0.75,1.558 -0.75,2.922 v 5.484 h -1.594 V 81.426 h 1.297 l 0.25,1.437 h 0.078 c 0.321,-0.519 0.774,-0.922 1.36,-1.203 0.594,-0.281 1.25,-0.422 1.968,-0.422 1.25,0 2.192,0.305 2.829,0.907 0.644,0.605 0.968,1.578 0.968,2.921 v 6.813 z"
       style="fill:#ff0000;fill-opacity:1;fill-rule:nonzero;stroke:none"
       transform="scale(1.3333333)" />
    <path
       id="path39"
       d="m 242.973,90.77 c 0.281,0 0.55,-0.02 0.812,-0.063 0.258,-0.039 0.469,-0.086 0.625,-0.141 v 1.219 c -0.168,0.086 -0.422,0.149 -0.765,0.203 -0.336,0.051 -0.633,0.078 -0.891,0.078 -2.024,0 -3.031,-1.062 -3.031,-3.187 V 82.66 h -1.5 v -0.765 l 1.5,-0.657 0.656,-2.234 h 0.922 v 2.422 h 3.031 v 1.234 h -3.031 v 6.141 c 0,0.637 0.144,1.125 0.437,1.469 0.301,0.335 0.711,0.5 1.235,0.5 z"
       style="fill:#ff0000;fill-opacity:1;fill-rule:nonzero;stroke:none"
       transform="scale(1.3333333)" />
    <path
       id="path40"
       d="m 305.543,83.965 h -3.594 v 12.109 h -4.156 V 83.965 h -2.281 v -2 l 2.281,-1.11 V 79.73 c 0,-1.726 0.426,-2.992 1.281,-3.796 0.852,-0.801 2.219,-1.204 4.094,-1.204 1.437,0 2.711,0.215 3.828,0.641 l -1.062,3.047 c -0.836,-0.258 -1.606,-0.391 -2.313,-0.391 -0.586,0 -1.012,0.18 -1.281,0.532 -0.262,0.343 -0.391,0.793 -0.391,1.343 v 0.953 h 3.594 z"
       style="fill:#ff0000;fill-opacity:1;fill-rule:nonzero;stroke:none"
       transform="scale(1.3333333)" />
    <path
       id="path41"
       d="m 309.016,100.797 h -1.594 V 90.344 h 1.594 z m -1.719,-13.281 c 0,-0.364 0.086,-0.629 0.265,-0.797 0.176,-0.164 0.399,-0.25 0.672,-0.25 0.25,0 0.469,0.09 0.657,0.265 0.187,0.168 0.281,0.43 0.281,0.782 0,0.355 -0.094,0.621 -0.281,0.796 -0.188,0.18 -0.407,0.266 -0.657,0.266 -0.273,0 -0.496,-0.086 -0.672,-0.266 -0.179,-0.175 -0.265,-0.441 -0.265,-0.796 z"
       style="fill:#ff0000;fill-opacity:1;fill-rule:nonzero;stroke:none"
       transform="scale(1.3333333)" />
    <path
       id="path42"
       d="m 319.52,100.797 v -6.766 c 0,-0.851 -0.196,-1.488 -0.579,-1.906 -0.386,-0.414 -0.996,-0.625 -1.828,-0.625 -1.093,0 -1.898,0.297 -2.406,0.891 -0.5,0.586 -0.75,1.558 -0.75,2.921 v 5.485 h -1.594 V 90.344 h 1.297 l 0.25,1.437 h 0.078 c 0.321,-0.519 0.774,-0.922 1.36,-1.203 0.593,-0.281 1.25,-0.422 1.968,-0.422 1.25,0 2.192,0.305 2.829,0.906 0.644,0.606 0.968,1.579 0.968,2.922 v 6.813 z"
       style="fill:#ff0000;fill-opacity:1;fill-rule:nonzero;stroke:none"
       transform="scale(1.3333333)" />
    <path
       id="path43"
       d="m 327.727,99.688 c 0.281,0 0.55,-0.02 0.812,-0.063 0.258,-0.039 0.469,-0.086 0.625,-0.141 v 1.219 c -0.168,0.086 -0.422,0.149 -0.766,0.203 -0.336,0.051 -0.632,0.078 -0.89,0.078 -2.024,0 -3.031,-1.062 -3.031,-3.187 v -6.219 h -1.5 v -0.766 l 1.5,-0.656 0.656,-2.234 h 0.922 v 2.422 h 3.031 v 1.234 h -3.031 v 6.141 c 0,0.636 0.144,1.125 0.437,1.469 0.301,0.335 0.711,0.5 1.235,0.5 z"
       style="fill:#ff0000;fill-opacity:1;fill-rule:nonzero;stroke:none"
       transform="scale(1.3333333)" />
    <path
       id="path44"
       d="m 363.531,146.418 h -3.593 v 12.109 h -4.157 V 146.418 H 353.5 v -2 l 2.281,-1.109 v -1.125 c 0,-1.727 0.426,-2.993 1.281,-3.797 0.852,-0.801 2.219,-1.203 4.094,-1.203 1.438,0 2.711,0.214 3.828,0.64 l -1.062,3.047 c -0.836,-0.258 -1.606,-0.391 -2.313,-0.391 -0.586,0 -1.011,0.18 -1.281,0.532 -0.262,0.343 -0.39,0.793 -0.39,1.343 v 0.954 h 3.593 z"
       style="fill:#ff0000;fill-opacity:1;fill-rule:nonzero;stroke:none"
       transform="scale(1.3333333)" />
    <path
       id="path45"
       d="m 367.004,163.246 h -1.594 v -10.449 h 1.594 z m -1.719,-13.277 c 0,-0.364 0.086,-0.629 0.266,-0.797 0.176,-0.164 0.398,-0.25 0.672,-0.25 0.25,0 0.468,0.09 0.656,0.266 0.187,0.167 0.281,0.429 0.281,0.781 0,0.355 -0.094,0.621 -0.281,0.797 -0.188,0.179 -0.406,0.265 -0.656,0.265 -0.274,0 -0.496,-0.086 -0.672,-0.265 -0.18,-0.176 -0.266,-0.442 -0.266,-0.797 z"
       style="fill:#ff0000;fill-opacity:1;fill-rule:nonzero;stroke:none"
       transform="scale(1.3333333)" />
    <path
       id="path46"
       d="m 377.504,163.246 v -6.766 c 0,-0.851 -0.195,-1.488 -0.578,-1.902 -0.387,-0.414 -0.996,-0.625 -1.828,-0.625 -1.094,0 -1.899,0.297 -2.407,0.891 -0.5,0.586 -0.75,1.558 -0.75,2.922 v 5.484 h -1.593 v -10.453 h 1.297 l 0.25,1.437 h 0.078 c 0.32,-0.519 0.773,-0.922 1.359,-1.203 0.594,-0.281 1.25,-0.422 1.969,-0.422 1.25,0 2.191,0.305 2.828,0.907 0.644,0.605 0.969,1.578 0.969,2.922 v 6.812 z"
       style="fill:#ff0000;fill-opacity:1;fill-rule:nonzero;stroke:none"
       transform="scale(1.3333333)" />
    <path
       id="path47"
       d="m 385.715,162.137 c 0.281,0 0.551,-0.02 0.812,-0.063 0.258,-0.039 0.469,-0.086 0.625,-0.14 v 1.218 c -0.168,0.086 -0.422,0.149 -0.765,0.203 -0.336,0.051 -0.633,0.079 -0.891,0.079 -2.023,0 -3.031,-1.063 -3.031,-3.188 v -6.219 h -1.5 v -0.765 l 1.5,-0.657 0.656,-2.234 h 0.922 v 2.422 h 3.031 v 1.234 h -3.031 v 6.141 c 0,0.637 0.145,1.125 0.437,1.469 0.301,0.336 0.711,0.5 1.235,0.5 z"
       style="fill:#ff0000;fill-opacity:1;fill-rule:nonzero;stroke:none"
       transform="scale(1.3333333)" />
    <path
       id="path48"
       d="m 190.016,172.379 c 0,-0.141 -0.11,-0.25 -0.282,-0.25 -0.25,0 -0.265,0.141 -0.39,0.547 -0.5,1.937 -1,3.406 -2.11,3.406 -0.843,0 -0.843,-0.891 -0.843,-1.281 0,-0.11 0,-0.703 0.203,-1.485 l 3.922,-15.605 c 0.031,-0.109 0.093,-0.281 0.093,-0.422 0,-0.281 -0.343,-0.281 -0.343,-0.281 l -1.532,0.14 c -0.468,0.032 -0.89,0.079 -1.39,0.11 -0.672,0.062 -0.86,0.094 -0.86,0.594 0,0.281 0.266,0.281 0.547,0.281 1.422,0 1.422,0.25 1.422,0.531 0,0.109 0,0.156 -0.141,0.656 l -3.453,13.844 c -0.078,0.297 -0.14,0.531 -0.14,0.969 0,1.39 1.031,2.515 2.453,2.515 0.922,0 1.531,-0.609 1.984,-1.484 0.469,-0.922 0.86,-2.672 0.86,-2.781 z"
       style="fill:#000000;fill-opacity:1;fill-rule:nonzero;stroke:none"
       transform="scale(1.3333333)" />
    <path
       id="path49"
       d="m 199.074,180.551 v -0.516 h -0.578 c -1.687,0 -1.719,-0.203 -1.719,-0.906 v -11.063 c 0,-0.406 -0.031,-0.421 -0.297,-0.421 -0.765,0.906 -1.921,1.203 -3.015,1.25 -0.047,0 -0.156,0 -0.172,0.031 -0.016,0.047 -0.016,0.078 -0.016,0.484 0.61,0 1.625,-0.109 2.407,-0.578 v 10.297 c 0,0.672 -0.047,0.906 -1.719,0.906 h -0.594 v 0.516 l 2.859,-0.047 z"
       style="fill:#000000;fill-opacity:1;fill-rule:nonzero;stroke:none"
       transform="scale(1.3333333)" />
    <path
       id="path50"
       d="m 208.668,177.52 h -0.344 c -0.203,1.39 -0.359,1.625 -0.437,1.734 -0.094,0.156 -1.5,0.156 -1.766,0.156 h -3.75 l 3.719,-3.75 c 1.203,-1.125 2.578,-2.453 2.578,-4.39 0,-2.297 -1.828,-3.625 -3.875,-3.625 -2.156,0 -3.469,1.89 -3.469,3.64 0,0.766 0.578,0.86 0.813,0.86 0.187,0 0.781,-0.11 0.781,-0.797 0,-0.61 -0.516,-0.782 -0.781,-0.782 -0.125,0 -0.235,0.016 -0.313,0.063 0.36,-1.656 1.5,-2.484 2.688,-2.484 1.703,0 2.812,1.343 2.812,3.125 0,1.703 -1,3.171 -2.109,4.437 l -3.891,4.391 v 0.453 h 6.875 z"
       style="fill:#000000;fill-opacity:1;fill-rule:nonzero;stroke:none"
       transform="scale(1.3333333)" />
    <path
       id="path51"
       d="m 301.527,163.461 c 0,-0.141 -0.109,-0.25 -0.281,-0.25 -0.25,0 -0.266,0.141 -0.391,0.547 -0.5,1.937 -1,3.406 -2.109,3.406 -0.844,0 -0.844,-0.891 -0.844,-1.281 0,-0.11 0,-0.703 0.203,-1.485 l 3.922,-15.609 c 0.032,-0.109 0.094,-0.281 0.094,-0.422 0,-0.281 -0.344,-0.281 -0.344,-0.281 l -1.531,0.141 c -0.469,0.031 -0.891,0.078 -1.391,0.109 -0.671,0.062 -0.859,0.094 -0.859,0.594 0,0.281 0.266,0.281 0.547,0.281 1.422,0 1.422,0.25 1.422,0.531 0,0.11 0,0.156 -0.141,0.656 l -3.453,13.844 c -0.078,0.297 -0.141,0.531 -0.141,0.969 0,1.391 1.032,2.516 2.454,2.516 0.921,0 1.531,-0.61 1.984,-1.485 0.469,-0.922 0.859,-2.672 0.859,-2.781 z"
       style="fill:#000000;fill-opacity:1;fill-rule:nonzero;stroke:none"
       transform="scale(1.3333333)" />
    <path
       id="path52"
       d="m 311.227,168.598 h -0.344 c -0.203,1.39 -0.36,1.625 -0.438,1.734 -0.093,0.156 -1.5,0.156 -1.765,0.156 h -3.75 l 3.718,-3.75 c 1.204,-1.125 2.579,-2.453 2.579,-4.39 0,-2.297 -1.829,-3.625 -3.875,-3.625 -2.157,0 -3.469,1.89 -3.469,3.64 0,0.766 0.578,0.86 0.812,0.86 0.188,0 0.782,-0.11 0.782,-0.797 0,-0.61 -0.516,-0.781 -0.782,-0.781 -0.125,0 -0.234,0.015 -0.312,0.062 0.359,-1.656 1.5,-2.484 2.687,-2.484 1.703,0 2.813,1.343 2.813,3.125 0,1.703 -1,3.172 -2.11,4.437 l -3.89,4.391 v 0.453 h 6.875 z"
       style="fill:#000000;fill-opacity:1;fill-rule:nonzero;stroke:none"
       transform="scale(1.3333333)" />
    <path
       id="path53"
       d="m 320.336,168.254 c 0,-1.906 -1.563,-3.266 -3.406,-3.484 1.484,-0.313 2.906,-1.641 2.906,-3.422 0,-1.516 -1.547,-2.625 -3.297,-2.625 -1.781,0 -3.344,1.093 -3.344,2.656 0,0.672 0.5,0.797 0.766,0.797 0.406,0 0.75,-0.25 0.75,-0.766 0,-0.5 -0.344,-0.765 -0.75,-0.765 -0.078,0 -0.188,0 -0.266,0.046 0.578,-1.296 2.11,-1.531 2.797,-1.531 0.688,0 1.969,0.344 1.969,2.219 0,0.547 -0.078,1.516 -0.734,2.375 -0.594,0.766 -1.25,0.797 -1.891,0.859 -0.109,0 -0.547,0.047 -0.625,0.047 -0.141,0.016 -0.219,0.031 -0.219,0.172 0,0.141 0.016,0.156 0.406,0.156 h 0.954 c 1.75,0 2.5,1.5 2.5,3.235 0,2.343 -1.25,3.25 -2.375,3.25 -1.032,0 -2.719,-0.516 -3.25,-2.016 0.109,0.047 0.203,0.047 0.296,0.047 0.469,0 0.829,-0.313 0.829,-0.828 0,-0.563 -0.438,-0.813 -0.829,-0.813 -0.328,0 -0.843,0.157 -0.843,0.875 0,1.797 1.765,3.203 3.828,3.203 2.172,0 3.828,-1.703 3.828,-3.687 z"
       style="fill:#000000;fill-opacity:1;fill-rule:nonzero;stroke:none"
       transform="scale(1.3333333)" />
    <g
       id="g75">
      <path
         d="m 94.227,176.371 31.05,-15.527"
         style="fill:none;stroke:#ff0000;stroke-width:1.5;stroke-linecap:butt;stroke-linejoin:round;stroke-miterlimit:4;stroke-dasharray:none;stroke-opacity:1"
         transform="scale(1.3333333)"
         clip-path="url(#clipPath54)"
         id="path65" />
      <path
         d="m -36.37,-178.791 2.684,-2.681 -9.392,2.683 9.392,2.684 z"
         style="fill:#ff0000;fill-opacity:1;fill-rule:nonzero;stroke:#ff0000;stroke-width:0.71554;stroke-linecap:butt;stroke-linejoin:miter;stroke-miterlimit:4;stroke-dasharray:none;stroke-opacity:1"
         transform="matrix(-1.3333333,0.66666667,-0.66666667,-1.3333333,0,0)"
         clip-path="url(#clipPath55)"
         id="path66" />
      <path
         d="M 272.641,87.156 241.59,102.684"
         style="fill:none;stroke:#ff0000;stroke-width:1.5;stroke-linecap:butt;stroke-linejoin:round;stroke-miterlimit:4;stroke-dasharray:none;stroke-opacity:1"
         transform="scale(1.3333333)"
         clip-path="url(#clipPath56)"
         id="path67" />
      <path
         d="m 151.719,178.789 2.683,-2.686 -9.393,2.683 9.393,2.684 z"
         style="fill:#ff0000;fill-opacity:1;fill-rule:nonzero;stroke:#ff0000;stroke-width:0.71554;stroke-linecap:butt;stroke-linejoin:miter;stroke-miterlimit:4;stroke-dasharray:none;stroke-opacity:1"
         transform="matrix(1.3333333,-0.66666667,0.66666667,1.3333333,0,0)"
         clip-path="url(#clipPath57)"
         id="path68" />
      <path
         d="m 272.641,87.156 24.547,24.547"
         style="fill:none;stroke:#ff0000;stroke-width:1.5;stroke-linecap:butt;stroke-linejoin:round;stroke-miterlimit:4;stroke-dasharray:none;stroke-opacity:1"
         transform="scale(1.3333333)"
         clip-path="url(#clipPath58)"
         id="path69" />
      <path
         d="m -204.83,92.744 2.121,-2.121 -7.426,2.121 7.426,2.121 z"
         style="fill:#ff0000;fill-opacity:1;fill-rule:nonzero;stroke:#ff0000;stroke-width:0.56568;stroke-linecap:butt;stroke-linejoin:miter;stroke-miterlimit:4;stroke-dasharray:none;stroke-opacity:1"
         transform="matrix(-1.3333333,-1.3333333,1.3333333,-1.3333333,0,0)"
         clip-path="url(#clipPath59)"
         id="path70" />
      <path
         d="M 361.859,176.371 337.312,151.824"
         style="fill:none;stroke:#ff0000;stroke-width:1.5;stroke-linecap:butt;stroke-linejoin:round;stroke-miterlimit:4;stroke-dasharray:none;stroke-opacity:1"
         transform="scale(1.3333333)"
         clip-path="url(#clipPath60)"
         id="path71" />
      <path
         d="m 244.182,-92.744 2.121,-2.121 -7.426,2.121 7.426,2.121 z"
         style="fill:#ff0000;fill-opacity:1;fill-rule:nonzero;stroke:#ff0000;stroke-width:0.56568;stroke-linecap:butt;stroke-linejoin:miter;stroke-miterlimit:4;stroke-dasharray:none;stroke-opacity:1"
         transform="matrix(1.3333333,1.3333333,-1.3333333,1.3333333,0,0)"
         clip-path="url(#clipPath61)"
         id="path72" />
      <path
         d="m 98.086,176.371 c 0,2.172 -1.766,3.938 -3.938,3.938 -2.175,0 -3.937,-1.766 -3.937,-3.938 0,-2.176 1.762,-3.937 3.937,-3.937 2.172,0 3.938,1.761 3.938,3.937 z"
         style="fill:#000000;fill-opacity:1;fill-rule:nonzero;stroke:#000000;stroke-width:2.3625;stroke-linecap:butt;stroke-linejoin:round;stroke-miterlimit:4;stroke-dasharray:none;stroke-opacity:1"
         transform="scale(1.3333333)"
         clip-path="url(#clipPath62)"
         id="path73" />
      <path
         d="m 276.5,91.617 c 0,2.176 -1.766,3.938 -3.938,3.938 -2.171,0 -3.937,-1.762 -3.937,-3.938 0,-2.172 1.766,-3.937 3.937,-3.937 2.172,0 3.938,1.765 3.938,3.937 z"
         style="fill:#000000;fill-opacity:1;fill-rule:nonzero;stroke:#000000;stroke-width:2.3625;stroke-linecap:butt;stroke-linejoin:round;stroke-miterlimit:4;stroke-dasharray:none;stroke-opacity:1"
         transform="scale(1.3333333)"
         clip-path="url(#clipPath63)"
         id="path74" />
      <path
         d="m 365.711,176.371 c 0,2.172 -1.766,3.938 -3.938,3.938 -2.175,0 -3.937,-1.766 -3.937,-3.938 0,-2.176 1.762,-3.937 3.937,-3.937 2.172,0 3.938,1.761 3.938,3.937 z"
         style="fill:#000000;fill-opacity:1;fill-rule:nonzero;stroke:#000000;stroke-width:2.3625;stroke-linecap:butt;stroke-linejoin:round;stroke-miterlimit:4;stroke-dasharray:none;stroke-opacity:1"
         transform="scale(1.3333333)"
         clip-path="url(#clipPath64)"
         id="path75" />
    </g>
    <text
       xml:space="preserve"
       style="font-style:normal;font-variant:normal;font-weight:normal;font-stretch:normal;font-size:24px;font-family:Georgia;-inkscape-font-specification:Georgia;text-align:start;writing-mode:lr-tb;direction:ltr;text-anchor:start;fill:#000000;fill-opacity:1;stroke:none;stroke-width:1.88976;stroke-miterlimit:3.6;stroke-dasharray:none"
       x="-292.97437"
       y="292.94568"
       id="text75"><tspan
         sodipodi:role="line"
         id="tspan75"
         x="-292.97437"
         y="292.94568"
         style="font-style:normal;font-variant:normal;font-weight:normal;font-stretch:normal;font-size:24px;font-family:'Liberation Sans';-inkscape-font-specification:'Liberation Sans'">(a)</tspan></text>
    <text
       xml:space="preserve"
       style="font-style:normal;font-variant:normal;font-weight:normal;font-stretch:normal;font-size:24px;font-family:'Liberation Sans';-inkscape-font-specification:'Liberation Sans';text-align:start;writing-mode:lr-tb;direction:ltr;text-anchor:start;fill:#000000;fill-opacity:1;stroke:none;stroke-width:1.88976;stroke-miterlimit:3.6;stroke-dasharray:none"
       x="156.36304"
       y="293.29614"
       id="text76"><tspan
         sodipodi:role="line"
         id="tspan76"
         x="156.36304"
         y="293.29614">(b)</tspan></text>
  </g>
</svg>
