<?xml version="1.0" encoding="UTF-8"?>
<svg width="450pt" height="225pt" version="1.1" viewBox="0 0 450 225" xmlns="http://www.w3.org/2000/svg" xmlns:xlink="http://www.w3.org/1999/xlink">
<defs>
<g id="f">
<path d="m12.609 0v-9.6562c0-1.2188-0.27734-2.125-0.82812-2.7188-0.55469-0.60156-1.4219-0.90625-2.6094-0.90625-1.5547 0-2.6953 0.42188-3.4219 1.2656-0.73047 0.84375-1.0938 2.2422-1.0938 4.1875v7.8281h-2.2656v-14.922h1.8438l0.375 2.0312h0.10938c0.45703-0.72656 1.1016-1.2969 1.9375-1.7031 0.83203-0.40625 1.7656-0.60938 2.7969-0.60938 1.7891 0 3.1406 0.4375 4.0469 1.3125 0.91406 0.86719 1.375 2.25 1.375 4.1562v9.7344z"/>
</g>
<g id="i">
<path d="m7.5 0v-0.51562h-0.57812c-1.6875 0-1.7188-0.20312-1.7188-0.90625v-11.062c0-0.40625-0.03125-0.42188-0.29688-0.42188-0.76562 0.90625-1.9219 1.2031-3.0156 1.25-0.046875 0-0.15625 0-0.17188 0.03125-0.015625 0.046875-0.015625 0.078125-0.015625 0.48438 0.60938 0 1.625-0.10938 2.4062-0.57812v10.297c0 0.67188-0.046875 0.90625-1.7188 0.90625h-0.59375v0.51562l2.8594-0.046875z"/>
</g>
<g id="e">
<path d="m8.1406-3.0312h-0.34375c-0.20312 1.3906-0.35938 1.625-0.4375 1.7344-0.09375 0.15625-1.5 0.15625-1.7656 0.15625h-3.75l3.7188-3.75c1.2031-1.125 2.5781-2.4531 2.5781-4.3906 0-2.2969-1.8281-3.625-3.875-3.625-2.1562 0-3.4688 1.8906-3.4688 3.6406 0 0.76562 0.57812 0.85938 0.8125 0.85938 0.1875 0 0.78125-0.10938 0.78125-0.79688 0-0.60938-0.51562-0.78125-0.78125-0.78125-0.125 0-0.23438 0.015625-0.3125 0.0625 0.35938-1.6562 1.5-2.4844 2.6875-2.4844 1.7031 0 2.8125 1.3438 2.8125 3.125 0 1.7031-1 3.1719-2.1094 4.4375l-3.8906 4.3906v0.45312h6.875z"/>
</g>
<g id="h">
<path d="m8.2969-3.375c0-1.9062-1.5625-3.2656-3.4062-3.4844 1.4844-0.3125 2.9062-1.6406 2.9062-3.4219 0-1.5156-1.5469-2.625-3.2969-2.625-1.7812 0-3.3438 1.0938-3.3438 2.6562 0 0.67188 0.5 0.79688 0.76562 0.79688 0.40625 0 0.75-0.25 0.75-0.76562 0-0.5-0.34375-0.76562-0.75-0.76562-0.078125 0-0.1875 0-0.26562 0.046875 0.57812-1.2969 2.1094-1.5312 2.7969-1.5312s1.9688 0.34375 1.9688 2.2188c0 0.54688-0.078125 1.5156-0.73438 2.375-0.59375 0.76562-1.25 0.79688-1.8906 0.85938-0.10938 0-0.54688 0.046875-0.625 0.046875-0.14062 0.015625-0.21875 0.03125-0.21875 0.17188s0.015625 0.15625 0.40625 0.15625h0.95312c1.75 0 2.5 1.5 2.5 3.2344 0 2.3438-1.25 3.25-2.375 3.25-1.0312 0-2.7188-0.51562-3.25-2.0156 0.10938 0.046875 0.20312 0.046875 0.29688 0.046875 0.46875 0 0.82812-0.3125 0.82812-0.82812 0-0.5625-0.4375-0.8125-0.82812-0.8125-0.32812 0-0.84375 0.15625-0.84375 0.875 0 1.7969 1.7656 3.2031 3.8281 3.2031 2.1719 0 3.8281-1.7031 3.8281-3.6875z"/>
</g>
<g id="d">
<path d="m10.594-12.109h-3.5938v12.109h-4.1562v-12.109h-2.2812v-2l2.2812-1.1094v-1.125c0-1.7266 0.42578-2.9922 1.2812-3.7969 0.85156-0.80078 2.2188-1.2031 4.0938-1.2031 1.4375 0 2.7109 0.21484 3.8281 0.64062l-1.0625 3.0469c-0.83594-0.25781-1.6055-0.39062-2.3125-0.39062-0.58594 0-1.0117 0.17969-1.2812 0.53125-0.26172 0.34375-0.39062 0.79297-0.39062 1.3438v0.95312h3.5938z"/>
</g>
<g id="c">
<path d="m3.2656 0h-1.5938v-10.453h1.5938zm-1.7188-13.281c0-0.36328 0.085937-0.62891 0.26562-0.79688 0.17578-0.16406 0.39844-0.25 0.67188-0.25 0.25 0 0.46875 0.089844 0.65625 0.26562 0.1875 0.16797 0.28125 0.42969 0.28125 0.78125 0 0.35547-0.09375 0.62109-0.28125 0.79688-0.1875 0.17969-0.40625 0.26562-0.65625 0.26562-0.27344 0-0.49609-0.085938-0.67188-0.26562-0.17969-0.17578-0.26562-0.44141-0.26562-0.79688z"/>
</g>
<g id="b">
<path d="m8.8281 0v-6.7656c0-0.85156-0.19531-1.4883-0.57812-1.9062-0.38672-0.41406-0.99609-0.625-1.8281-0.625-1.0938 0-1.8984 0.29688-2.4062 0.89062-0.5 0.58594-0.75 1.5586-0.75 2.9219v5.4844h-1.5938v-10.453h1.2969l0.25 1.4375h0.078125c0.32031-0.51953 0.77344-0.92188 1.3594-1.2031 0.59375-0.28125 1.25-0.42188 1.9688-0.42188 1.25 0 2.1914 0.30469 2.8281 0.90625 0.64453 0.60547 0.96875 1.5781 0.96875 2.9219v6.8125z"/>
</g>
<g id="a">
<path d="m5.0469-1.1094c0.28125 0 0.55078-0.019531 0.8125-0.0625 0.25781-0.039063 0.46875-0.085937 0.625-0.14062v1.2188c-0.16797 0.085938-0.42188 0.14844-0.76562 0.20312-0.33594 0.050781-0.63281 0.078125-0.89062 0.078125-2.0234 0-3.0312-1.0625-3.0312-3.1875v-6.2188h-1.5v-0.76562l1.5-0.65625 0.65625-2.2344h0.92188v2.4219h3.0312v1.2344h-3.0312v6.1406c0 0.63672 0.14453 1.125 0.4375 1.4688 0.30078 0.33594 0.71094 0.5 1.2344 0.5z"/>
</g>
<g id="g">
<path d="m6.5781-3.9844c0-0.14062-0.10938-0.25-0.28125-0.25-0.25 0-0.26562 0.14062-0.39062 0.54688-0.5 1.9375-1 3.4062-2.1094 3.4062-0.84375 0-0.84375-0.89062-0.84375-1.2812 0-0.10938 0-0.70312 0.20312-1.4844l3.9219-15.609c0.03125-0.10938 0.09375-0.28125 0.09375-0.42188 0-0.28125-0.34375-0.28125-0.34375-0.28125l-1.5312 0.14062c-0.46875 0.03125-0.89062 0.078125-1.3906 0.10938-0.67188 0.0625-0.85938 0.09375-0.85938 0.59375 0 0.28125 0.26562 0.28125 0.54688 0.28125 1.4219 0 1.4219 0.25 1.4219 0.53125 0 0.10938 0 0.15625-0.14062 0.65625l-3.4531 13.844c-0.078125 0.29688-0.14062 0.53125-0.14062 0.96875 0 1.3906 1.0312 2.5156 2.4531 2.5156 0.92188 0 1.5312-0.60938 1.9844-1.4844 0.46875-0.92188 0.85938-2.6719 0.85938-2.7812z"/>
</g>
<clipPath id="n">
<path d="m0 0h450v225h-450z"/>
</clipPath>
<clipPath id="m">
<rect width="450" height="225"/>
</clipPath>
<g id="k" clip-path="url(#m)">
<g clip-path="url(#n)">
<rect x="-99" y="-49.5" width="648" height="324" fill="#fff"/>
</g>
<path d="m112.5 0h225v225h-225z" fill="#fff"/>
<path d="m94.227 176.37 178.42-89.211" fill="none" stroke="#000" stroke-linejoin="round" stroke-width="1.5"/>
<path d="m272.64 87.156 89.211 89.211" fill="none" stroke="#000" stroke-linejoin="round" stroke-width="1.5"/>
<path d="m183.44 149.61-85.895 42.945" fill="none" stroke="#000" stroke-linejoin="round" stroke-width=".5625"/>
<path transform="matrix(1 -.5 .5 1 0 0)" d="m0.83438 193.06 1.0031-1.0063-3.5188 1.0063 3.5203 1.0062z" stroke="#000" stroke-width=".26833"/>
<path d="m183.44 149.61 85.891-42.949" fill="none" stroke="#000" stroke-linejoin="round" stroke-width=".5625"/>
<path transform="matrix(-1 .5 -.5 -1 0 0)" d="m-172.98-193.06 1.0047-1.0094-3.5203 1.0094 3.5203 1.0062z" stroke="#000" stroke-width=".26833"/>
<path d="m317.25 149.61-41.984-41.984" fill="none" stroke="#000" stroke-linejoin="round" stroke-width=".5625"/>
<path transform="matrix(1 1 -1 1 0 0)" d="m191.3-83.824 0.79492-0.79492-2.7832 0.79492 2.7852 0.79688z" stroke="#000" stroke-width=".21213"/>
<path d="m317.25 149.61 41.984 41.98" fill="none" stroke="#000" stroke-linejoin="round" stroke-width=".5625"/>
<path transform="matrix(-1 -1 1 -1 0 0)" d="m-275.55 83.822 0.79492-0.79492-2.7832 0.79492 2.7852 0.79688z" stroke="#000" stroke-width=".21213"/>
</g>
<clipPath id="l">
<rect width="450" height="225"/>
</clipPath>
<g id="j" clip-path="url(#l)">
<path d="m94.227 176.37 31.051-15.527" fill="none" stroke="#f00" stroke-linejoin="round" stroke-width="1.5"/>
<path transform="matrix(-1 .5 -.5 -1 0 0)" d="m-36.369-178.79 2.6844-2.6812-9.3922 2.6828 9.3922 2.6844z" fill="#f00" stroke="#f00" stroke-width=".71554"/>
<path d="m272.64 87.156-31.051 15.527" fill="none" stroke="#f00" stroke-linejoin="round" stroke-width="1.5"/>
<path transform="matrix(1 -.5 .5 1 0 0)" d="m151.72 178.79 2.6828-2.6859-9.3922 2.6828 9.3922 2.6844z" fill="#f00" stroke="#f00" stroke-width=".71554"/>
<path d="m272.64 87.156 24.547 24.547" fill="none" stroke="#f00" stroke-linejoin="round" stroke-width="1.5"/>
<path transform="matrix(-1 -1 1 -1 0 0)" d="m-204.83 92.744 2.1211-2.1211-7.4258 2.1211 7.4258 2.1211z" fill="#f00" stroke="#f00" stroke-width=".56568"/>
<path d="m361.86 176.37-24.547-24.547" fill="none" stroke="#f00" stroke-linejoin="round" stroke-width="1.5"/>
<path transform="matrix(1 1 -1 1 0 0)" d="m244.18-92.744 2.1211-2.1211-7.4258 2.1211 7.4258 2.1211z" fill="#f00" stroke="#f00" stroke-width=".56568"/>
<path d="m98.086 176.37c0 2.1719-1.7656 3.9375-3.9375 3.9375-2.1758 0-3.9375-1.7656-3.9375-3.9375 0-2.1758 1.7617-3.9375 3.9375-3.9375 2.1719 0 3.9375 1.7617 3.9375 3.9375z" stroke="#000" stroke-linejoin="round" stroke-width="2.3625"/>
<path d="m276.5 91.617c0 2.1758-1.7656 3.9375-3.9375 3.9375s-3.9375-1.7617-3.9375-3.9375c0-2.1719 1.7656-3.9375 3.9375-3.9375s3.9375 1.7656 3.9375 3.9375z" stroke="#000" stroke-linejoin="round" stroke-width="2.3625"/>
<path d="m365.71 176.37c0 2.1719-1.7656 3.9375-3.9375 3.9375-2.1758 0-3.9375-1.7656-3.9375-3.9375 0-2.1758 1.7617-3.9375 3.9375-3.9375 2.1719 0 3.9375 1.7617 3.9375 3.9375z" stroke="#000" stroke-linejoin="round" stroke-width="2.3625"/>
</g>
</defs>
<use xlink:href="#k"/>
<g>
<use x="58.543" y="194.211" xlink:href="#f"/>
<use x="75.665" y="198.395" xlink:href="#i"/>
<use x="254.8" y="78.236" xlink:href="#f"/>
<use x="271.922" y="82.421" xlink:href="#e"/>
<use x="370.775" y="194.211" xlink:href="#f"/>
<use x="387.896" y="198.395" xlink:href="#h"/>
</g>
<g fill="#f00">
<use x="94.228" y="149.606" xlink:href="#d"/>
<use x="105.03" y="154.328" xlink:href="#c"/>
<use x="109.970255" y="154.328" xlink:href="#b"/>
<use x="121.959649" y="154.328" xlink:href="#a"/>
<use x="210.196" y="87.156" xlink:href="#d"/>
<use x="220.997" y="91.878" xlink:href="#c"/>
<use x="225.937255" y="91.878" xlink:href="#b"/>
<use x="237.926649" y="91.878" xlink:href="#a"/>
<use x="294.949" y="96.075" xlink:href="#d"/>
<use x="305.75" y="100.797" xlink:href="#c"/>
<use x="310.690255" y="100.797" xlink:href="#b"/>
<use x="322.679649" y="100.797" xlink:href="#a"/>
<use x="352.936" y="158.526" xlink:href="#d"/>
<use x="363.737" y="163.248" xlink:href="#c"/>
<use x="368.677255" y="163.248" xlink:href="#b"/>
<use x="380.666649" y="163.248" xlink:href="#a"/>
</g>
<g>
<use x="183.437" y="176.365" xlink:href="#g"/>
<use x="191.573" y="180.549" xlink:href="#i"/>
<use x="200.527945" y="180.549" xlink:href="#e"/>
<use x="294.949" y="167.445" xlink:href="#g"/>
<use x="303.085" y="171.63" xlink:href="#e"/>
<use x="312.039945" y="171.63" xlink:href="#h"/>
</g>
<use xlink:href="#j"/>
</svg>
