<?xml version="1.0" encoding="UTF-8" standalone="no"?>
<!-- Created with Inkscape (http://www.inkscape.org/) -->

<svg
   width="99.603828mm"
   height="87.700127mm"
   viewBox="0 0 99.603828 87.700127"
   version="1.1"
   id="svg1"
   inkscape:version="1.4.3 (0d15f75042, 2025-12-25)"
   sodipodi:docname="cameras.svg"
   xmlns:inkscape="http://www.inkscape.org/namespaces/inkscape"
   xmlns:sodipodi="http://sodipodi.sourceforge.net/DTD/sodipodi-0.dtd"
   xmlns="http://www.w3.org/2000/svg"
   xmlns:svg="http://www.w3.org/2000/svg">
  <sodipodi:namedview
     id="namedview1"
     pagecolor="#ffffff"
     bordercolor="#000000"
     borderopacity="0.25"
     inkscape:showpageshadow="2"
     inkscape:pageopacity="0.0"
     inkscape:pagecheckerboard="0"
     inkscape:deskcolor="#d1d1d1"
     inkscape:document-units="mm"
     inkscape:zoom="0.72604517"
     inkscape:cx="197.6461"
     inkscape:cy="277.53094"
     inkscape:window-width="1920"
     inkscape:window-height="1024"
     inkscape:window-x="0"
     inkscape:window-y="0"
     inkscape:window-maximized="1"
     inkscape:current-layer="layer1" />
  <defs
     id="defs1">
    <clipPath
       clipPathUnits="userSpaceOnUse"
       id="clipPath10">
      <path
         d="M 208.628,503.664 H 585.08404 V 171.9783 H 208.628 Z"
         id="path10" />
    </clipPath>
    <clipPath
       clipPathUnits="userSpaceOnUse"
       id="clipPath9">
      <path
         d="M 0,8.547309e-6 H 750.71875 V 661.43751 H 0 Z"
         clip-rule="evenodd"
         id="path9" />
    </clipPath>
    <clipPath
       clipPathUnits="userSpaceOnUse"
       id="clipPath12">
      <path
         d="M 208.628,503.664 H 585.08404 V 171.9783 H 208.628 Z"
         id="path12" />
    </clipPath>
    <clipPath
       clipPathUnits="userSpaceOnUse"
       id="clipPath11">
      <path
         d="M -388.09996,653.60872 V -128.9789 h 689.51629 v 782.58762 z"
         clip-rule="evenodd"
         id="path11" />
    </clipPath>
    <clipPath
       clipPathUnits="userSpaceOnUse"
       id="clipPath1">
      <path
         d="M -388.09996,653.60872 V -128.9789 h 689.51629 v 782.58762 z"
         clip-rule="evenodd"
         id="path1" />
    </clipPath>
    <clipPath
       clipPathUnits="userSpaceOnUse"
       id="clipPath2">
      <path
         d="M -388.09996,653.60872 V -128.9789 h 689.51629 v 782.58762 z"
         clip-rule="evenodd"
         id="path2" />
    </clipPath>
    <clipPath
       clipPathUnits="userSpaceOnUse"
       id="clipPath3">
      <path
         d="M -388.09996,653.60872 V -128.9789 h 689.51629 v 782.58762 z"
         clip-rule="evenodd"
         id="path3" />
    </clipPath>
  </defs>
  <g
     inkscape:label="Layer 1"
     inkscape:groupmode="layer"
     id="layer1"
     transform="translate(-52.976188,-74.896767)">
    <g
       id="g49"
       transform="matrix(0.26458333,0,0,0.26458333,-2.2233033,29.394175)">
      <g
         clip-path="url(#clipPath10)"
         id="g13">
        <path
           d="M 0,0 H 751 V 661 H 0 Z"
           style="fill:#ffffff;fill-opacity:1;fill-rule:nonzero;stroke:none"
           transform="matrix(0.50145998,0,0,0.50145998,208.628,171.9783)"
           clip-path="url(#clipPath9)"
           id="path13" />
      </g>
      <g
         clip-path="url(#clipPath12)"
         id="g17">
        <path
           d="m 112.41,532.59998 h 75.17 l 20,20 v 100 h -75.17 l -20,-20 z"
           style="fill:#000000;fill-opacity:1;fill-rule:nonzero;stroke:#ffffff;stroke-width:1;stroke-linecap:butt;stroke-linejoin:miter;stroke-miterlimit:10;stroke-dasharray:none;stroke-opacity:1"
           transform="matrix(0,0.48103931,-0.48103931,0,523.03949,358.66964)"
           clip-path="url(#clipPath11)"
           id="path14" />
        <path
           d="m 112.41,532.59998 h 75.17 l 20,20 h -75.17 z"
           style="fill:#000000;fill-opacity:0.05;fill-rule:nonzero;stroke:none"
           transform="matrix(0,0.48103931,-0.48103931,0,523.03949,358.66964)"
           clip-path="url(#clipPath11)"
           id="path15" />
        <path
           d="m 112.41,532.59998 20,20 v 100 l -20,-20 z"
           style="fill:#000000;fill-opacity:0.1;fill-rule:nonzero;stroke:none"
           transform="matrix(0,0.48103931,-0.48103931,0,523.03949,358.66964)"
           clip-path="url(#clipPath11)"
           id="path16" />
        <path
           d="m 132.41,652.59998 v -100 l -20,-20 m 20,20 h 75.17"
           style="fill:none;stroke:#ffffff;stroke-width:1;stroke-linecap:butt;stroke-linejoin:miter;stroke-miterlimit:10;stroke-dasharray:none;stroke-opacity:1"
           transform="matrix(0,0.48103931,-0.48103931,0,523.03949,358.66964)"
           clip-path="url(#clipPath11)"
           id="path17" />
      </g>
      <path
         d="m 130,508 c 0,-10.67001 60,-10.67001 60,0 v 44 c 0,10.66998 -60,10.66998 -60,0 z"
         style="fill:#000000;fill-opacity:1;fill-rule:nonzero;stroke:#ffffff;stroke-width:1;stroke-linecap:butt;stroke-linejoin:miter;stroke-miterlimit:10;stroke-dasharray:none;stroke-opacity:1"
         transform="matrix(0.48103931,0,0,0.48103931,161.00933,150.57206)"
         id="path18" />
      <path
         d="m 130,508 c 0,8 60,8 60,0 m -60,4 c 0,8 60,8 60,0 m -60,4 c 0,8 60,8 60,0"
         style="fill:none;stroke:#ffffff;stroke-width:1;stroke-linecap:butt;stroke-linejoin:miter;stroke-miterlimit:10;stroke-dasharray:none;stroke-opacity:1"
         transform="matrix(0.48103931,0,0,0.48103931,161.00933,150.57206)"
         id="path19" />
      <path
         d="m 690,547.59998 h 100 l 20,20 v 70 H 710 l -20,-20 z"
         style="fill:#000000;fill-opacity:1;fill-rule:nonzero;stroke:#ffffff;stroke-width:1;stroke-linecap:butt;stroke-linejoin:miter;stroke-miterlimit:10;stroke-dasharray:none;stroke-opacity:1"
         transform="matrix(0.48103931,0,0,0.48103931,161.00933,150.57206)"
         id="path20" />
      <path
         d="m 690,547.59998 h 100 l 20,20 H 710 Z"
         style="fill:#000000;fill-opacity:0.05;fill-rule:nonzero;stroke:none"
         transform="matrix(0.48103931,0,0,0.48103931,161.00933,150.57206)"
         id="path21" />
      <path
         d="m 690,547.59998 20,20 v 70 l -20,-20 z"
         style="fill:#000000;fill-opacity:0.1;fill-rule:nonzero;stroke:none"
         transform="matrix(0.48103931,0,0,0.48103931,161.00933,150.57206)"
         id="path22" />
      <path
         d="m 710,637.59998 v -70 l -20,-20 m 20,20 h 100"
         style="fill:none;stroke:#ffffff;stroke-width:1;stroke-linecap:butt;stroke-linejoin:miter;stroke-miterlimit:10;stroke-dasharray:none;stroke-opacity:1"
         transform="matrix(0.48103931,0,0,0.48103931,161.00933,150.57206)"
         id="path23" />
      <path
         d="m 720,508 c 0,-10.67001 60,-10.67001 60,0 v 44 c 0,10.66998 -60,10.66998 -60,0 z"
         style="fill:#000000;fill-opacity:1;fill-rule:nonzero;stroke:#ffffff;stroke-width:1;stroke-linecap:butt;stroke-linejoin:miter;stroke-miterlimit:10;stroke-dasharray:none;stroke-opacity:1"
         transform="matrix(0.48103931,0,0,0.48103931,161.00933,150.57206)"
         id="path24" />
      <path
         d="m 720,508 c 0,8 60,8 60,0 m -60,4 c 0,8 60,8 60,0 m -60,4 c 0,8 60,8 60,0"
         style="fill:none;stroke:#ffffff;stroke-width:1;stroke-linecap:butt;stroke-linejoin:miter;stroke-miterlimit:10;stroke-dasharray:none;stroke-opacity:1"
         transform="matrix(0.48103931,0,0,0.48103931,161.00933,150.57206)"
         id="path25" />
      <path
         d="m 159.54652,499.78937 1.26372,-2.72086 0.90695,0.42127 -1.26371,2.72085 m 1.62046,-5.86297 1.26372,-2.72086 0.90695,0.42127 -1.26371,2.72085 m 1.62048,-5.86294 1.2637,-2.72086 0.90695,0.42126 -1.2637,2.72086 m 1.62047,-5.86298 1.26372,-2.72085 0.90695,0.42126 -1.26372,2.72086 m 1.62047,-5.86298 1.26372,-2.72085 0.90695,0.42126 -1.26372,2.72086 m 1.62048,-5.86295 1.26372,-2.72085 0.90695,0.42126 -1.26371,2.72086 m 1.62046,-5.86298 1.26372,-2.72086 0.90695,0.42127 -1.26371,2.72085 m 1.62048,-5.86297 1.2637,-2.72086 0.90695,0.42127 -1.2637,2.72085 m 1.62047,-5.86297 1.26372,-2.72083 0.90695,0.42127 -1.26372,2.72082 m 1.62047,-5.86294 1.26372,-2.72086 0.90695,0.42127 -1.26372,2.72085 m 1.62049,-5.86298 1.2637,-2.72085 0.90695,0.42126 -1.2637,2.72086 m 1.62047,-5.86298 1.26371,-2.72085 0.90696,0.42126 -1.26372,2.72086 m 1.62047,-5.86295 1.26371,-2.72085 0.90696,0.42126 -1.26372,2.72086 m 1.62048,-5.86298 1.2637,-2.72085 0.90696,0.42126 -1.26371,2.72086 m 1.62047,-5.86298 1.26372,-2.72083 0.90695,0.42127 -1.26372,2.72082 m 1.62047,-5.86297 1.26372,-2.72083 0.90695,0.42127 -1.26372,2.72082 m 1.62049,-5.86294 1.2637,-2.72086 0.90695,0.42127 -1.2637,2.72085 m 1.62047,-5.86297 1.26371,-2.72086 0.90696,0.42126 -1.26372,2.72086 m 1.62047,-5.86294 1.26371,-2.72086 0.90696,0.42126 -1.26372,2.72086 m 1.62048,-5.86298 1.2637,-2.72085 0.90696,0.42126 -1.26371,2.72086 m 1.62047,-5.86298 1.26372,-2.72085 0.90695,0.42126 -1.26372,2.72086 m 1.62047,-5.86298 1.26372,-2.72082 0.90695,0.42126 -1.26372,2.72083 m 1.62049,-5.86295 1.2637,-2.72086 0.90695,0.42127 -1.2637,2.72085 m 1.62047,-5.86297 1.26371,-2.72086 0.90696,0.42127 -1.26372,2.72085 m 1.62047,-5.86294 1.26371,-2.72089 0.90696,0.42127 -1.26372,2.72088 m 1.62048,-5.86297 1.2637,-2.72086 0.90696,0.42127 -1.26371,2.72085 m 1.62049,-5.86298 1.2637,-2.72085 0.90695,0.42126 -1.2637,2.72086 m 1.62045,-5.86298 1.26374,-2.72082 0.90695,0.42126 -1.26374,2.72083 m 1.62049,-5.86298 1.2637,-2.72082 0.90695,0.42126 -1.2637,2.72083 m 1.62048,-5.86295 1.26371,-2.72085 0.90695,0.42126 -1.2637,2.72086 m 1.62046,-5.86298 1.26372,-2.72086 0.90695,0.42127 -1.26371,2.72085 m 1.62046,-5.86294 1.26372,-2.72089 0.90695,0.42127 -1.26371,2.72088 m 1.62048,-5.86297 1.2637,-2.72086 0.90695,0.42127 -1.2637,2.72085 m 1.62047,-5.86297 1.26372,-2.72086 0.90695,0.42126 -1.26372,2.72086 m 1.62047,-5.86298 1.26372,-2.72082 0.90695,0.42126 -1.26372,2.72083 m 1.62048,-5.86298 1.26371,-2.72082 0.90695,0.42126 -1.2637,2.72083 m 1.62046,-5.86295 1.26372,-2.72085 0.90695,0.42126 -1.26371,2.72086 m 1.62046,-5.86295 1.26372,-2.72089 0.90695,0.42127 -1.26371,2.72089 m 1.62048,-5.86298 1.26372,-2.72089 0.90692,0.42127 -1.2637,2.72088 m 1.62048,-5.86297 1.26373,-2.72086 0.90692,0.42127 -1.26373,2.72085 m 1.62051,-5.86297 1.26371,-2.72083 0.90692,0.42127 -1.2637,2.72082 m 1.62051,-5.86297 1.2637,-2.72083 0.90692,0.42126 -1.2637,2.72083 m 1.62048,-5.86295 1.26374,-2.72085 0.90692,0.42126 -1.26373,2.72086 m 1.62051,-5.86298 1.2637,-2.72085 0.90692,0.42126 -1.2637,2.72086 m 1.62052,-5.86295 1.2637,-2.72088 0.90692,0.42126 -1.2637,2.72089 m 1.62048,-5.86298 1.26373,-2.72084 0.90692,0.42123 -1.26373,2.72084 m 1.62052,-5.86293 1.2637,-2.72085 0.90692,0.42123 -1.2637,2.72086 m 1.62051,-5.86293 1.2637,-2.72087 0.90692,0.42123 -1.2637,2.72087 m 1.62049,-5.86293 1.26373,-2.72085 0.90692,0.42123 -1.26373,2.72086 m 1.62051,-5.86295 1.26373,-2.72085 0.90693,0.42123 -1.26374,2.72085 m 1.62052,-5.86294 1.2637,-2.72086 0.90692,0.42124 -1.2637,2.72085 m 1.62048,-5.86291 1.26373,-2.72086 0.90693,0.42124 -1.26374,2.72085 m 1.62055,-5.86294 1.26367,-2.72086 0.90692,0.42124 -1.26367,2.72085 m 1.62048,-5.86294 1.26373,-2.72086 0.90693,0.42123 -1.26374,2.72086 m 1.62049,-5.86295 1.26373,-2.72082 0.90692,0.42123 -1.26373,2.72083 m 1.62054,-5.86292 1.26367,-2.72085 0.90693,0.42123 -1.26368,2.72086 m 1.62049,-5.86295 1.26373,-2.72085 0.90692,0.42123 -1.26373,2.72086 m 1.62048,-5.86295 1.26373,-2.72082 0.90693,0.42123 -1.26374,2.72082 m 1.62055,-5.86291 1.2637,-2.72086 0.90692,0.42124 -1.2637,2.72085 m 1.62048,-5.86294 1.26374,-2.72086 0.90692,0.42124 -1.26374,2.72085 m 1.62052,-5.86294 1.2637,-2.72086 0.90692,0.42124 -1.2637,2.72085 m 1.62051,-5.86291 1.26371,-2.72086 0.90692,0.42123 -1.26371,2.72086 m 1.62049,-5.86295 1.26373,-2.72085 0.90692,0.42123 -1.26373,2.72086 m 1.62051,-5.86295 1.26371,-2.72085 0.90692,0.42123 -1.26371,2.72086 m 1.62052,-5.86292 1.2637,-2.72085 0.90692,0.42123 -1.2637,2.72086 m 1.62048,-5.86295 1.26374,-2.72085 0.90692,0.42123 -1.26374,2.72085 m 1.62052,-5.86294 1.2637,-2.72086 0.90692,0.42124 -1.2637,2.72085 m 1.62051,-5.86294 1.26371,-2.72083 0.90692,0.42124 -1.2637,2.72082 m 1.62048,-5.86291 1.26373,-2.72086 0.90692,0.42124 -1.26373,2.72085 m 1.62051,-5.86294 1.26371,-2.72086 0.90692,0.42123 -1.2637,2.72086 m 1.62051,-5.86295 1.2637,-2.72085 0.90692,0.42123 -1.2637,2.72086 m 1.62048,-5.86292 1.26374,-2.72085 0.90692,0.42123 -1.26373,2.72086 m 1.62051,-5.86295 1.2637,-2.72085 0.90692,0.42123 -1.2637,2.72086 m 1.62051,-5.86295 1.26371,-2.720855 0.90692,0.421235 -1.2637,2.72085 m 1.62048,-5.862911 1.26373,-2.720855 0.90692,0.421234 -1.26373,2.720855 m 1.62051,-5.862945 1.26371,-2.720856 0.90692,0.421234 -1.2637,2.720856 m 1.62051,-5.862946 1.2637,-2.720855 0.90692,0.421234 -1.2637,2.720856 m 1.62048,-5.862946 1.26374,-2.720825 0.90692,0.421234 -1.26373,2.720825"
         style="fill:#000000;fill-opacity:1;fill-rule:nonzero;stroke:none"
         transform="matrix(0.48103931,0,0,0.48103931,161.00933,150.57206)"
         id="path26" />
      <path
         d="m 749.63367,500.34033 -2.04193,-2.19781 0.73266,-0.68067 2.04193,2.19782 m -4.81659,-3.715 -2.04193,-2.19781 0.73267,-0.68067 2.04193,2.19782 m -4.81653,-3.71497 -2.04199,-2.19784 0.73267,-0.68067 2.04199,2.19785 m -4.81659,-3.715 -2.04193,-2.19781 0.73266,-0.68067 2.04193,2.19782 m -4.81659,-3.715 -2.04193,-2.19781 0.73267,-0.68067 2.04193,2.19782 m -4.81653,-3.71497 -2.04199,-2.19784 0.73267,-0.68067 2.04199,2.19785 m -4.81659,-3.715 -2.04193,-2.19781 0.73266,-0.68067 2.04194,2.19782 m -4.81659,-3.715 -2.04194,-2.19781 0.73267,-0.68067 2.04193,2.19782 m -4.81653,-3.71497 -2.04199,-2.19785 0.73267,-0.68066 2.04199,2.19785 m -4.81659,-3.715 -2.04193,-2.19781 0.73266,-0.68067 2.04194,2.19782 m -4.81653,-3.715 -2.04199,-2.19782 0.73266,-0.68066 2.04199,2.19782 m -4.81659,-3.71497 -2.04193,-2.19785 0.73267,-0.68066 2.04193,2.19785 m -4.81659,-3.715 -2.04193,-2.19782 0.73267,-0.68066 2.04193,2.19782 m -4.81653,-3.715 -2.04199,-2.19782 0.73266,-0.68066 2.04199,2.19781 m -4.81658,-3.71496 -2.04194,-2.19785 0.73267,-0.68066 2.04193,2.19784 m -4.81659,-3.71499 -2.04193,-2.19782 0.73267,-0.68066 2.04193,2.19781 m -4.81653,-3.71499 -2.04199,-2.19782 0.73266,-0.68066 2.042,2.19781 m -4.81659,-3.71496 -2.04193,-2.19785 0.73266,-0.68066 2.04193,2.19784 m -4.81659,-3.71499 -2.04193,-2.19782 0.73267,-0.68066 2.04193,2.19781 m -4.81653,-3.71499 -2.04199,-2.19782 0.73266,-0.68066 2.042,2.19781 m -4.81659,-3.71496 -2.04193,-2.19785 0.73266,-0.68066 2.04193,2.19784 m -4.81659,-3.71499 -2.04193,-2.19782 0.73267,-0.68066 2.04193,2.19781 m -4.81653,-3.71499 -2.04199,-2.19782 0.73267,-0.68066 2.04199,2.19781 m -4.81659,-3.71496 -2.04193,-2.19785 0.73266,-0.68066 2.04193,2.19784 m -4.81658,-3.71499 -2.04194,-2.19782 0.73267,-0.68066 2.04193,2.19781 m -4.81653,-3.71499 -2.04199,-2.19782 0.73267,-0.68066 2.04199,2.19781 m -4.81659,-3.71496 -2.04193,-2.19785 0.73266,-0.68066 2.04194,2.19784 m -4.81659,-3.71499 -2.04194,-2.19782 0.73267,-0.68066 2.04193,2.19781 m -4.81653,-3.71499 -2.04199,-2.19782 0.73267,-0.68066 2.04199,2.19781 m -4.81659,-3.71496 -2.04193,-2.19785 0.73267,-0.68066 2.04193,2.19784 m -4.81659,-3.71499 -2.04193,-2.19782 0.73266,-0.68066 2.04193,2.19781 m -4.81653,-3.71496 -2.04199,-2.19785 0.73267,-0.68066 2.04199,2.19784 m -4.81659,-3.71503 -2.04193,-2.19781 0.73267,-0.68066 2.04193,2.19781 m -4.81659,-3.71497 -2.04193,-2.19781 0.73266,-0.68066 2.04193,2.19781 m -4.81652,-3.71497 -2.042,-2.19784 0.73267,-0.68066 2.04199,2.19784 m -4.81659,-3.71503 -2.04193,-2.19781 0.73267,-0.68067 2.04193,2.19782 m -4.81659,-3.71497 -2.04193,-2.19781 0.73266,-0.68067 2.04194,2.19782 m -4.81653,-3.71497 -2.042,-2.19784 0.73267,-0.68067 2.04199,2.19785 m -4.81659,-3.71503 -2.04193,-2.19781 0.73267,-0.68067 2.04193,2.19782 m -4.81659,-3.71497 -2.04193,-2.19781 0.73267,-0.68067 2.04193,2.19782 m -4.81653,-3.71497 -2.04199,-2.19784 0.73266,-0.68067 2.04199,2.19785 m -4.81659,-3.71503 -2.04193,-2.19781 0.73267,-0.68067 2.04193,2.19782 m -4.81659,-3.71497 -2.04193,-2.19781 0.73267,-0.68067 2.04193,2.19782 m -4.81653,-3.71497 -2.04199,-2.19784 0.73266,-0.68067 2.04199,2.19785 m -4.81658,-3.71503 -2.04194,-2.19781 0.73267,-0.68067 2.04193,2.19782 m -4.81653,-3.71497 -2.04199,-2.19781 0.73267,-0.68067 2.04199,2.19782 m -4.81659,-3.71497 -2.04193,-2.19784 0.73266,-0.68067 2.04194,2.19785 m -4.81659,-3.71503 -2.04193,-2.19781 0.73266,-0.68067 2.04193,2.19782 m -4.81653,-3.71497 -2.04199,-2.19781 0.73267,-0.68067 2.04199,2.19782 m -4.81659,-3.71497 -2.04193,-2.19784 0.73267,-0.68067 2.04193,2.19785 m -4.81653,-3.71503 -2.04199,-2.19781 0.73266,-0.68067 2.04199,2.19782 m -4.81658,-3.71497 -2.04194,-2.19781 0.73267,-0.68067 2.04193,2.19782 m -4.81659,-3.71497 -2.04193,-2.19784 0.73267,-0.68067 2.04193,2.19785 m -4.81653,-3.71503 -2.04199,-2.19782 0.73266,-0.68066 2.042,2.19782 m -4.81659,-3.71497 -2.04193,-2.19782 0.73266,-0.68066 2.04193,2.19782 m -4.81659,-3.71497 -2.04193,-2.19785 0.73267,-0.68066 2.04193,2.19785 m -4.81653,-3.71502 -2.04199,-2.19781 0.73266,-0.68066 2.042,2.19781 m -4.81659,-3.71498 -2.04193,-2.19783 0.73266,-0.68067 2.04193,2.19783 m -4.81659,-3.71498 -2.0419,-2.19783 0.73261,-0.68066 2.04196,2.19783 m -4.81653,-3.71498 -2.04196,-2.19785 0.7326,-0.68066 2.04197,2.19784 m -4.8165,-3.71499 -2.04196,-2.19782 0.7326,-0.68066 2.04196,2.19781 m -4.81652,-3.71499 -2.04194,-2.19782 0.73261,-0.68066 2.04193,2.19781 m -4.8165,-3.71496 -2.04196,-2.19785 0.73261,-0.68066 2.04196,2.19784 m -4.8165,-3.71499 -2.04196,-2.19782 0.7326,-0.68066 2.04196,2.19781 m -4.81652,-3.71499 -2.04193,-2.19782 0.7326,-0.68066 2.04193,2.19781 m -4.8165,-3.71496 -2.04193,-2.19785 0.73261,-0.68066 2.04193,2.19784 m -4.8165,-3.71499 -2.04196,-2.19782 0.7326,-0.68066 2.04197,2.19781 m -4.8165,-3.71499 -2.04196,-2.19782 0.7326,-0.68066 2.04196,2.19781 m -4.81653,-3.71496 -2.04193,-2.19785 0.73261,-0.68066 2.04193,2.19784 m -4.8165,-3.71499 -2.04196,-2.19782 0.73261,-0.68066 2.04196,2.19781 m -4.8165,-3.71499 -2.04196,-2.19782 0.7326,-0.68066 2.04196,2.19781 m -4.81652,-3.71496 -2.04194,-2.19785 0.73261,-0.68066 2.04193,2.19784 m -4.8165,-3.71499 -2.04196,-2.19782 0.73261,-0.68066 2.04196,2.19781 m -4.8165,-3.71499 -2.04196,-2.19782 0.7326,-0.68066 2.04197,2.19781 m -4.81653,-3.71496 -2.04193,-2.19785 0.7326,-0.68066 2.04193,2.19784 m -4.8165,-3.715 -2.04196,-2.19781 0.73261,-0.68066 2.04196,2.19781 m -4.8165,-3.715 -2.04196,-2.19781 0.7326,-0.68066 2.04197,2.19781 m -4.8165,-3.71497 -2.04196,-2.19784 0.7326,-0.68067 2.04196,2.19785 m -4.81653,-3.715 -2.04193,-2.19781 0.73261,-0.68067 2.04193,2.19782 m -4.8165,-3.715 -2.04196,-2.19781 0.73261,-0.68067 2.04196,2.19782 m -4.8165,-3.71497 -2.04196,-2.19784 0.7326,-0.68067 2.04196,2.19785 m -4.81652,-3.715 -2.04194,-2.19781 0.73261,-0.68067 2.04193,2.19782 m -4.8165,-3.715 -2.04196,-2.19781 0.73261,-0.68067 2.04196,2.19782 m -4.8165,-3.71497 -2.04196,-2.19784 0.7326,-0.68067 2.04197,2.19785 m -4.81653,-3.715 -2.04193,-2.19781 0.7326,-0.68067 2.04193,2.19782 m -4.8165,-3.715 -2.04196,-2.19782 0.73261,-0.68065 2.04196,2.19782 m -4.8165,-3.71498 -2.04196,-2.19785 0.7326,-0.68065 2.04197,2.19785 m -4.81653,-3.71501 -2.04193,-2.19782 0.7326,-0.68065 2.04193,2.19782 m -4.81649,-3.71502 -2.04194,-2.19781 0.73261,-0.68065 2.04193,2.19781 m -4.8165,-3.71498 -2.04196,-2.19784 0.73261,-0.68065 2.04196,2.19785 m -4.8165,-3.71502 -2.04196,-2.19781 0.7326,-0.68065 2.04196,2.19782 m -4.81652,-3.71502 -2.04193,-2.197811 0.7326,-0.680649 2.04193,2.197815 m -4.8165,-3.714981 -2.04196,-2.197846 0.73261,-0.680649 2.04196,2.197846 m -4.8165,-3.715012 -2.04196,-2.197815 0.7326,-0.680649 2.04197,2.197815 m -4.81653,-3.715011 -2.04193,-2.197815 0.7326,-0.680649 2.04193,2.197815 m -4.8165,-3.714981 -2.04196,-2.197846 0.73261,-0.680648 2.04196,2.197845 m -4.8165,-3.715011 -0.9454,-1.017579 0.7326,-0.680648 0.94541,1.017578"
         style="fill:#000000;fill-opacity:1;fill-rule:nonzero;stroke:none"
         transform="matrix(0.48103931,0,0,0.48103931,161.00933,150.57206)"
         id="path27" />
      <path
         d="m 355.5,100 v 3 h -1 v -3 m 1,6 v 3 h -1 v -3 m 1,6 v 3 h -1 v -3 m 1,6 v 3 h -1 v -3 m 1,6 v 3 h -1 v -3 m 1,6 v 3 h -1 v -3 m 1,6 v 3 h -1 v -3 m 1,6 v 3 h -1 v -3 m 1,6 v 3 h -1 v -3 m 1,6 v 3 h -1 v -3 m 1,6 v 3 h -1 v -3 m 1,6 v 3 h -1 v -3 m 1,6 v 3 h -1 v -3 m 1,6 v 3 h -1 v -3 m 1,6 v 3 h -1 v -3 m 1,6 v 3 h -1 v -3 m 1,6 v 3 h -1 v -3 m 1,6 v 3 h -1 v -3 m 1,6 v 3 h -1 v -3 m 1,6 v 3 h -1 v -3 m 1,6 v 3 h -1 v -3 m 1,6 v 3 h -1 v -3 m 1,6 v 3 h -1 v -3 m 1,6 v 3 h -1 v -3 m 1,6 v 3 h -1 v -3 m 1,6 v 3 h -1 v -3 m 1,6 v 3 h -1 v -3 m 1,6 v 3 h -1 v -3 m 1,6 v 3 h -1 v -3 m 1,6 v 3 h -1 v -3 m 1,6 v 3 h -1 v -3 m 1,6 v 3 h -1 v -3 m 1,6 v 3 h -1 v -3 m 1,6 v 3 h -1 v -3 m 1,6 v 3 h -1 v -3 m 1,6 v 3 h -1 v -3 m 1,6 v 3 h -1 v -3 m 1,6 v 3 h -1 v -3 m 1,6 v 3 h -1 v -3 m 1,6 v 3 h -1 v -3 m 1,6 v 3 h -1 v -3 m 1,6 v 3 h -1 v -3 m 1,6 v 3 h -1 v -3 m 1,6 v 3 h -1 v -3 m 1,6 v 3 h -1 v -3 m 1,6 v 3 h -1 v -3 m 1,6 v 3 h -1 v -3 m 1,6 v 3 h -1 v -3 m 1,6 v 3 h -1 v -3 m 1,6 v 3 h -1 v -3 m 1,6 v 3 h -1 v -3 m 1,6 v 3 h -1 v -3 m 1,6 v 3 h -1 v -3 m 1,6 v 3 h -1 v -3 m 1,6 v 3 h -1 v -3 m 1,6 v 3 h -1 v -3 m 1,6 v 3 h -1 v -3 m 1,6 v 3 h -1 v -3 m 1,6 v 3 h -1 v -3 m 1,6 v 3 h -1 v -3 m 1,6 v 3 h -1 v -3 m 1,6 v 3 h -1 v -3 m 1,6 v 3 h -1 v -3 m 1,6 v 3 h -1 v -3 m 1,6 v 3 h -1 v -3 m 1,6 v 3 h -1 v -3 m 1,6 v 3 h -1 v -3"
         style="fill:#000000;fill-opacity:1;fill-rule:nonzero;stroke:none"
         transform="matrix(0.48103931,0,0,0.48103931,161.00933,150.57206)"
         id="path28" />
      <path
         d="M 150,652.59003 H 760"
         style="fill:none;stroke:#000000;stroke-width:1;stroke-linecap:butt;stroke-linejoin:miter;stroke-miterlimit:10;stroke-dasharray:none;stroke-opacity:1"
         transform="matrix(0.48103931,0,0,0.48103931,161.00933,150.57206)"
         id="path29" />
      <path
         d="m 150,648.59003 v 8"
         style="fill:none;stroke:#000000;stroke-width:1;stroke-linecap:butt;stroke-linejoin:miter;stroke-miterlimit:10;stroke-dasharray:none;stroke-opacity:1"
         transform="matrix(0.48103931,0,0,0.48103931,161.00933,150.57206)"
         id="path30" />
      <path
         d="m 760,656.59003 v -8"
         style="fill:none;stroke:#000000;stroke-width:1;stroke-linecap:butt;stroke-linejoin:miter;stroke-miterlimit:10;stroke-dasharray:none;stroke-opacity:1"
         transform="matrix(0.48103931,0,0,0.48103931,161.00933,150.57206)"
         id="path31" />
      <path
         d="m 231,637 c -18,0 -28.66667,0.33331 -32,1 -3.33333,0.66669 -5,4.33331 -5,11 0,18 3.66667,29 11,33 0.66667,0.66669 44,1 130,1 172.66669,0 263.66669,-0.66669 273,-2 42,-6.66669 77,-21.66669 105,-45 28,-23.33331 42.33331,-54 43,-92 0,-42.66666 -19.33331,-81 -58,-115 -38.66669,-34 -83,-57 -133,-69 l -10,-3 c 42.66669,-6 77.66669,-21.33334 105,-46 27.33331,-24.66666 41.33331,-55.33333 42,-92 C 702,170.33333 678,123.33334 630,78 582,32.666664 523,7 453,1 448.33334,0.33333331 378,0 242,0 108.66666,0 41,0.66666663 39,2 c -2.666668,2 -4,4.6666665 -4,8 0,4.666667 0.666668,9.333332 2,14 3.333332,12.666668 6.666668,19.666668 10,21 2.666668,0.666668 7.666668,1 15,1 h 6 c 18,0 38,1 60,3 9.33333,2 15.66667,6 19,12 2,2.666668 26,95.33333 72,278 46,182.66669 69,279 69,289 0,4.66669 -19,7.66669 -57,9 z m 418,-93 c 0,20 -5,38.66669 -15,56 -10,17.33331 -26.33331,28.66669 -49,34 -4.66669,1.33331 -35.33331,2.33331 -92,3 -13.33334,0 -27.33334,0 -42,0 -14.66666,0 -26.33334,-0.33331 -35,-1 h -13 c -10,-0.66669 -16.33334,-4 -19,-10 -1.33334,-2.66669 -12,-42.66669 -32,-120 0,-2 -0.33334,-4 -1,-6 L 320,374 h 81 c 54,0 85,0.66666 93,2 40,6.66666 75.66669,26 107,58 31.33331,32 47.33331,68.66666 48,110 z M 595,229 c 0,29.33334 -7.66669,53.66666 -23,73 -15.33331,19.33334 -35.33331,30.66666 -60,34 -4,0.66666 -31.66666,1 -83,1 -78.66669,0 -118.33334,-0.33334 -119,-1 0,-1.33334 -5.66666,-25.66666 -17,-73 -11.33334,-47.33334 -23,-94.33333 -35,-141 L 240,52 c 0,-2.666668 4,-4 12,-4 8,0 35,-0.666668 81,-2 59.33334,0 91.33334,0.333332 96,1 41.33334,4.666668 79.33334,24 114,58 34.66669,34 52,75.33333 52,124 z"
         style="fill:#000000;fill-opacity:1;fill-rule:nonzero;stroke:#000000;stroke-width:1;stroke-linecap:butt;stroke-linejoin:miter;stroke-miterlimit:10;stroke-dasharray:none;stroke-opacity:0.1012"
         transform="matrix(0.02255972,0,0,-0.02255972,378.2019,486.59306)"
         id="path32" />
      <path
         d="m 35,200 c 0,68 13,139.66666 39,215 26,75.33334 61.33333,140.33331 106,195 44.66667,54.66669 91,86 139,94 0.66666,0 3.33334,0 8,0 4.66666,0 8.66666,0.33331 12,1 36,-2.66669 64,-19 84,-49 26,-40 39,-93.66669 39,-161 C 462,418.33331 447,340.33334 417,261 387,181.66666 348.66666,116.66667 302,66 255.33333,15.333332 210.66667,-10 168,-10 h -7 c -24,0 -44.66666,6.666666 -62,20 -17.333336,13.333334 -30.333336,31 -39,53 -8.666668,22 -15,44.33333 -19,67 -4,22.66667 -6,46 -6,70 z m 348,366 c 0,68 -17.66666,102 -53,102 -24,0 -47.33334,-15 -70,-45 -22.66667,-30 -41.33333,-64 -56,-102 -14.66667,-38 -26,-71.33334 -34,-100 -8,-28.66666 -12.33333,-45.33334 -13,-50 32.66667,-0.66666 65,-1 97,-1 l 97,1 c 0.66666,0.66666 3.33334,11.66666 8,33 4.66666,21.33334 10,48 16,80 6,32 8.66666,59.33331 8,82 z M 113,132 c 0,-70.666672 17.66666,-106 53,-106 10,0 20.66667,3.333332 32,10 11.33333,6.666668 25,19.333332 41,38 16,18.666672 32,47.66666 48,87 16,39.33334 32,88 48,146 l 5,17 H 145 c 0,-2 -3,-14.66666 -9,-38 -6,-23.33334 -11.33334,-49.33333 -16,-78 -4.66666,-28.66667 -7,-54 -7,-76 z"
         style="fill:#000000;fill-opacity:1;fill-rule:nonzero;stroke:#000000;stroke-width:1;stroke-linecap:butt;stroke-linejoin:miter;stroke-miterlimit:10;stroke-dasharray:none;stroke-opacity:0.1013"
         transform="matrix(0.0225663,0,0,-0.0225663,456.12827,375.97391)"
         id="path33" />
      <path
         d="m 231,637 c -18,0 -28.66667,0.33331 -32,1 -3.33333,0.66669 -5,4.33331 -5,11 0,18 3.66667,29 11,33 0.66667,0.66669 44,1 130,1 172.66669,0 263.66669,-0.66669 273,-2 42,-6.66669 77,-21.66669 105,-45 28,-23.33331 42.33331,-54 43,-92 0,-42.66666 -19.33331,-81 -58,-115 -38.66669,-34 -83,-57 -133,-69 l -10,-3 c 42.66669,-6 77.66669,-21.33334 105,-46 27.33331,-24.66666 41.33331,-55.33333 42,-92 C 702,170.33333 678,123.33334 630,78 582,32.666664 523,7 453,1 448.33334,0.33333331 378,0 242,0 108.66666,0 41,0.66666663 39,2 c -2.666668,2 -4,4.6666665 -4,8 0,4.666667 0.666668,9.333332 2,14 3.333332,12.666668 6.666668,19.666668 10,21 2.666668,0.666668 7.666668,1 15,1 h 6 c 18,0 38,1 60,3 9.33333,2 15.66667,6 19,12 2,2.666668 26,95.33333 72,278 46,182.66669 69,279 69,289 0,4.66669 -19,7.66669 -57,9 z m 418,-93 c 0,20 -5,38.66669 -15,56 -10,17.33331 -26.33331,28.66669 -49,34 -4.66669,1.33331 -35.33331,2.33331 -92,3 -13.33334,0 -27.33334,0 -42,0 -14.66666,0 -26.33334,-0.33331 -35,-1 h -13 c -10,-0.66669 -16.33334,-4 -19,-10 -1.33334,-2.66669 -12,-42.66669 -32,-120 0,-2 -0.33334,-4 -1,-6 L 320,374 h 81 c 54,0 85,0.66666 93,2 40,6.66666 75.66669,26 107,58 31.33331,32 47.33331,68.66666 48,110 z M 595,229 c 0,29.33334 -7.66669,53.66666 -23,73 -15.33331,19.33334 -35.33331,30.66666 -60,34 -4,0.66666 -31.66666,1 -83,1 -78.66669,0 -118.33334,-0.33334 -119,-1 0,-1.33334 -5.66666,-25.66666 -17,-73 -11.33334,-47.33334 -23,-94.33333 -35,-141 L 240,52 c 0,-2.666668 4,-4 12,-4 8,0 35,-0.666668 81,-2 59.33334,0 91.33334,0.333332 96,1 41.33334,4.666668 79.33334,24 114,58 34.66669,34 52,75.33333 52,124 z"
         style="fill:#000000;fill-opacity:1;fill-rule:nonzero;stroke:#000000;stroke-width:1;stroke-linecap:butt;stroke-linejoin:miter;stroke-miterlimit:10;stroke-dasharray:none;stroke-opacity:0.0716"
         transform="matrix(0.01595437,0,0,-0.01595437,467.45655,379.35886)"
         id="path34" />
      <path
         d="m 866,78.5 h -3 v -1 h 3 m -6,1 h -3 v -1 h 3 m -6,1 h -3 v -1 h 3 m -6,1 h -3 v -1 h 3 m -6,1 h -3 v -1 h 3 m -6,1 h -3 v -1 h 3 m -6,1 h -3 v -1 h 3 m -6,1 h -3 v -1 h 3 m -6,1 h -3 v -1 h 3 m -6,1 h -3 v -1 h 3 m -6,1 h -3 v -1 h 3 m -6,1 h -3 v -1 h 3 m -6,1 h -3 v -1 h 3 m -6,1 h -3 v -1 h 3 m -6,1 h -3 v -1 h 3 m -6,1 h -3 v -1 h 3 m -6,1 h -3 v -1 h 3 m -6,1 h -3 v -1 h 3 m -6,1 h -3 v -1 h 3 m -6,1 h -3 v -1 h 3 m -6,1 h -3 v -1 h 3 m -6,1 h -3 v -1 h 3 m -6,1 h -3 v -1 h 3 m -6,1 h -3 v -1 h 3 m -6,1 h -3 v -1 h 3 m -6,1 h -3 v -1 h 3 m -6,1 h -3 v -1 h 3 m -6,1 h -3 v -1 h 3 m -6,1 h -3 v -1 h 3 m -6,1 h -3 v -1 h 3 m -6,1 h -3 v -1 h 3 m -6,1 h -3 v -1 h 3 m -6,1 h -3 v -1 h 3 m -6,1 h -3 v -1 h 3 m -6,1 h -3 v -1 h 3 m -6,1 h -3 v -1 h 3 m -6,1 h -3 v -1 h 3 m -6,1 h -3 v -1 h 3 m -6,1 h -3 v -1 h 3 m -6,1 h -3 v -1 h 3 m -6,1 h -3 v -1 h 3 m -6,1 h -3 v -1 h 3 m -6,1 h -3 v -1 h 3 m -6,1 h -3 v -1 h 3 m -6,1 h -3 v -1 h 3 m -6,1 h -3 v -1 h 3 m -6,1 h -3 v -1 h 3 m -6,1 h -3 v -1 h 3 m -6,1 h -3 v -1 h 3 m -6,1 h -3 v -1 h 3 m -6,1 h -3 v -1 h 3 m -6,1 h -3 v -1 h 3 m -6,1 h -3 v -1 h 3 m -6,1 h -3 v -1 h 3 m -6,1 h -3 v -1 h 3 m -6,1 h -3 v -1 h 3 m -6,1 h -3 v -1 h 3 m -6,1 h -3 v -1 h 3 m -6,1 h -3 v -1 h 3 m -6,1 h -2.99997 v -1 H 512 m -5.99997,1 h -3 v -1 h 3 m -6,1 h -3 v -1 h 3 m -6,1 h -3 v -1 h 3 m -6,1 h -3 v -1 h 3 m -6,1 h -3 v -1 h 3 m -6,1 h -3 v -1 h 3 m -6,1 h -3 v -1 h 3 m -6,1 h -3 v -1 h 3 m -6,1 h -3 v -1 h 3 m -6,1 h -3 v -1 h 3 m -6,1 h -3 v -1 h 3 m -6,1 h -3 v -1 h 3 m -6,1 h -3 v -1 h 3 m -6,1 h -3 v -1 h 3 m -6,1 h -3 v -1 h 3 m -6,1 h -3 v -1 h 3 m -6,1 h -3 v -1 h 3 m -6,1 h -3 v -1 h 3 m -6,1 h -3 v -1 h 3 m -6,1 h -3 v -1 h 3 m -6,1 h -3 v -1 h 3 m -6,1 h -3 v -1 h 3"
         style="fill:#000000;fill-opacity:1;fill-rule:nonzero;stroke:none"
         transform="matrix(0.48103931,0,0,0.48103931,161.00933,150.57206)"
         id="path35" />
      <path
         d="m 870,500.5 h -3 v -1 h 3 m -6,1 h -3 v -1 h 3 m -6,1 h -3 v -1 h 3 m -6,1 h -3 v -1 h 3 m -6,1 h -3 v -1 h 3 m -6,1 h -3 v -1 h 3 m -6,1 h -3 v -1 h 3 m -6,1 h -3 v -1 h 3 m -6,1 h -3 v -1 h 3 m -6,1 h -3 v -1 h 3 m -6,1 h -3 v -1 h 3 m -6,1 h -3 v -1 h 3 m -6,1 h -3 v -1 h 3 m -6,1 h -3 v -1 h 3 m -6,1 h -3 v -1 h 3 m -6,1 h -3 v -1 h 3 m -6,1 h -3 v -1 h 3 m -6,1 h -3 v -1 h 3 m -6,1 h -3 v -1 h 3 m -6,1 h -3 v -1 h 3"
         style="fill:#000000;fill-opacity:1;fill-rule:nonzero;stroke:none"
         transform="matrix(0.48103931,0,0,0.48103931,161.00933,150.57206)"
         id="path36" />
      <path
         d="M 820,493.63 V 86.370003"
         style="fill:none;stroke:#000000;stroke-width:1;stroke-linecap:butt;stroke-linejoin:miter;stroke-miterlimit:10;stroke-dasharray:none;stroke-opacity:1"
         transform="matrix(0.48103931,0,0,0.48103931,161.00933,150.57206)"
         id="path37" />
      <path
         d="m 820,498.88 -3.5,-7 3.5,1.75 3.5,-1.75 z"
         style="fill:#000000;fill-opacity:1;fill-rule:nonzero;stroke:#000000;stroke-width:1;stroke-linecap:butt;stroke-linejoin:miter;stroke-miterlimit:10;stroke-dasharray:none;stroke-opacity:1"
         transform="matrix(0.48103931,0,0,0.48103931,161.00933,150.57206)"
         id="path38" />
      <path
         d="m 820,81.120003 3.5,7 -3.5,-1.75 -3.5,1.75 z"
         style="fill:#000000;fill-opacity:1;fill-rule:nonzero;stroke:#000000;stroke-width:1;stroke-linecap:butt;stroke-linejoin:miter;stroke-miterlimit:10;stroke-dasharray:none;stroke-opacity:1"
         transform="matrix(0.48103931,0,0,0.48103931,161.00933,150.57206)"
         id="path39" />
      <path
         d="m 347,338 c -6.66666,0 -24.33334,3.66666 -53,11 -28.66666,7.33334 -49.66667,11 -63,11 -13.33333,0 -24.66667,-1.33334 -34,-4 -9.33333,-2.66666 -17,-6 -23,-10 -6,-4 -10,-7.66666 -12,-11 -2,-3.33334 -4.33333,-7 -7,-11 l -2,-4 c -2,-2 -7,-3 -15,-3 -14,0 -21,2.66666 -21,8 0,3.33334 1,8 3,14 8.66667,26 23,48.33334 43,67 20,18.66666 42,30 66,34 8,1.33334 13.66667,2 17,2 16.66666,0 31.66666,-5.66666 45,-17 13.33334,-11.33334 26,-22.33334 38,-33 12,-10.66666 24.66666,-16.33334 38,-17 14.66666,0 29.33334,11 44,33 14.66666,22 22.33334,33 23,33 0.66666,0.66666 5.66666,1 15,1 h 13 c 4,-4 6,-6.66666 6,-8 0,-2.66666 -1.66666,-7.33334 -5,-14 -3.33334,-6.66666 -8,-13.66666 -14,-21 -6,-7.33334 -11.66666,-14.66666 -17,-22 -5.33334,-7.33334 -10,-13.66666 -14,-19 l -7,-9 C 382.33334,315 337,270 275,214 213,158 174.66667,122 160,106 l -12,-12 15,-1 c 14.66667,0 36,-3.666664 64,-11 28,-7.333336 49,-11 63,-11 25.33334,0 48.66666,6.333336 70,19 21.33334,12.66666 35.33334,29.33333 42,50 2.66666,6 5,9.66667 7,11 2,1.33333 7,2 15,2 12.66666,0 19,-3.33333 19,-10 0,-3.33333 -0.33334,-6.33333 -1,-9 C 430.66666,92.666664 408.66666,58.333336 376,31 343.33334,3.666666 310.66666,-10.333333 278,-11 260.66666,-11 245.33333,-5.333334 232,6 218.66667,17.333334 205.66667,28.666666 193,40 180.33333,51.333336 167.66667,57 155,57 125.66666,57 99.333336,37 76,-3 72,-8.333334 66.333336,-11 59,-11 H 54 41 c -4,4 -6,7 -6,9 0,10 19.333332,38.666664 58,86 26,30 70,73.33333 132,130 62,56.66666 100.33334,92.66666 115,108 8,10.66666 10.33334,16 7,16 z"
         style="fill:#000000;fill-opacity:1;fill-rule:nonzero;stroke:#000000;stroke-width:1;stroke-linecap:butt;stroke-linejoin:miter;stroke-miterlimit:10;stroke-dasharray:none;stroke-opacity:0.1012"
         transform="matrix(0.02256488,0,0,-0.02256488,564.36077,299.32567)"
         id="path40" />
      <path
         d="m 35,200 c 0,68 13,139.66666 39,215 26,75.33334 61.33333,140.33331 106,195 44.66667,54.66669 91,86 139,94 0.66666,0 3.33334,0 8,0 4.66666,0 8.66666,0.33331 12,1 36,-2.66669 64,-19 84,-49 26,-40 39,-93.66669 39,-161 C 462,418.33331 447,340.33334 417,261 387,181.66666 348.66666,116.66667 302,66 255.33333,15.333332 210.66667,-10 168,-10 h -7 c -24,0 -44.66666,6.666666 -62,20 -17.333336,13.333334 -30.333336,31 -39,53 -8.666668,22 -15,44.33333 -19,67 -4,22.66667 -6,46 -6,70 z m 348,366 c 0,68 -17.66666,102 -53,102 -24,0 -47.33334,-15 -70,-45 -22.66667,-30 -41.33333,-64 -56,-102 -14.66667,-38 -26,-71.33334 -34,-100 -8,-28.66666 -12.33333,-45.33334 -13,-50 32.66667,-0.66666 65,-1 97,-1 l 97,1 c 0.66666,0.66666 3.33334,11.66666 8,33 4.66666,21.33334 10,48 16,80 6,32 8.66666,59.33331 8,82 z M 113,132 c 0,-70.666672 17.66666,-106 53,-106 10,0 20.66667,3.333332 32,10 11.33333,6.666668 25,19.333332 41,38 16,18.666672 32,47.66666 48,87 16,39.33334 32,88 48,146 l 5,17 H 145 c 0,-2 -3,-14.66666 -9,-38 -6,-23.33334 -11.33334,-49.33333 -16,-78 -4.66666,-28.66667 -7,-54 -7,-76 z"
         style="fill:#000000;fill-opacity:1;fill-rule:nonzero;stroke:#000000;stroke-width:1;stroke-linecap:butt;stroke-linejoin:miter;stroke-miterlimit:10;stroke-dasharray:none;stroke-opacity:0.1012"
         transform="matrix(0.02256537,0,0,-0.02256537,269.00905,371.16287)"
         id="path41" />
      <path
         d="m 208,74 c 0,-16 15.33333,-25.333332 46,-28 12,0 18,-3.666668 18,-11 0,-0.666668 -0.66666,-5 -2,-13 -2,-9.333334 -4,-15.333333 -6,-18 -2,-2.6666668 -6.33334,-4 -13,-4 -1.33333,0 -5.33333,0 -12,0 -6.66667,0 -18,0.33333331 -34,1 C 189,1.6666667 167.66667,2 141,2 93.666664,2 63.333336,1.3333334 50,0 h -8 c -4.666668,4.666667 -7,8.333333 -7,11 1.333332,18 5.666668,29.666668 13,35 h 14 c 46.66667,2 80.66667,18.666664 102,50 4,4 64.33333,105.66666 181,305 116.66669,199.33337 176,300.33331 178,303 4.66669,8 12.66669,12 24,12 h 8 17 c 4,-6 6,-9.33331 6,-10 l 28,-323 c 18.66669,-215.33334 28.66669,-324 30,-326 3.33331,-7.333332 25,-11 65,-11 16.66669,0 25,-3.333332 25,-10 0,-1.333332 -1,-6 -3,-14 C 721,12 719.33331,6 718,4 716.66669,2 712,0.66666669 704,0 702,0 697.33331,0 690,0 682.66669,0 669.66669,0.33333331 651,1 632.33331,1.6666667 608,2 578,2 515.33331,2 474.33334,1.3333334 455,0 h -12 c -4,4 -6,7 -6,9 0,2 0.66666,8 2,18 2.66666,8.666668 4.66666,14 6,16 l 4,3 h 20 c 36,2 57.33331,7.666664 64,17 L 521,213 H 283 L 249,155 C 221.66667,109 208,82 208,74 Z m 308,186 c 0,7.33334 -4,59.33331 -12,156 -8,96.66669 -12.66666,145.33331 -14,146 L 463,519 C 452.33334,501 431.33334,465.33334 400,412 l -90,-152 103,-1 c 68.66669,0 103,0.33334 103,1 z"
         style="fill:#000000;fill-opacity:1;fill-rule:nonzero;stroke:#000000;stroke-width:1;stroke-linecap:butt;stroke-linejoin:miter;stroke-miterlimit:10;stroke-dasharray:none;stroke-opacity:0.0716"
         transform="matrix(0.01595372,0,0,-0.01595372,280.33686,374.60861)"
         id="path42" />
      <path
         d="m 355,487.59 h 15"
         style="fill:none;stroke:#000000;stroke-width:1;stroke-linecap:butt;stroke-linejoin:miter;stroke-miterlimit:10;stroke-dasharray:none;stroke-opacity:1"
         transform="matrix(0.48103931,0,0,0.48103931,161.00933,150.57206)"
         id="path43" />
      <path
         d="M 370,500 V 487.41"
         style="fill:none;stroke:#000000;stroke-width:1;stroke-linecap:butt;stroke-linejoin:miter;stroke-miterlimit:10;stroke-dasharray:none;stroke-opacity:1"
         transform="matrix(0.48103931,0,0,0.48103931,161.00933,150.57206)"
         id="path44" />
      <path
         d="m 160,499.5 h 3 v 1 h -3 m 6,-1 h 3 v 1 h -3 m 6,-1 h 3 v 1 h -3 m 6,-1 h 3 v 1 h -3 m 6,-1 h 3 v 1 h -3 m 6,-1 h 3 v 1 h -3 m 6,-1 h 3 v 1 h -3 m 6,-1 h 3 v 1 h -3 m 6,-1 h 3 v 1 h -3 m 6,-1 h 3 v 1 h -3 m 6,-1 h 3 v 1 h -3 m 6,-1 h 3 v 1 h -3 m 6,-1 h 3 v 1 h -3 m 6,-1 h 3 v 1 h -3 m 6,-1 h 3 v 1 h -3 m 6,-1 h 3 v 1 h -3 m 6,-1 h 3 v 1 h -3 m 6,-1 h 3 v 1 h -3 m 6,-1 h 3 v 1 h -3 m 6,-1 h 3 v 1 h -3 m 6,-1 h 3 v 1 h -3 m 6,-1 h 3 v 1 h -3 m 6,-1 h 3 v 1 h -3 m 6,-1 h 3 v 1 h -3 m 6,-1 h 3 v 1 h -3 m 6,-1 h 3 v 1 h -3 m 6,-1 h 3 v 1 h -3 m 6,-1 h 3 v 1 h -3 m 6,-1 h 3 v 1 h -3 m 6,-1 h 3 v 1 h -3 m 6,-1 h 3 v 1 h -3 m 6,-1 h 3 v 1 h -3 m 6,-1 h 3 v 1 h -3 m 6,-1 h 3 v 1 h -3 m 6,-1 h 3 v 1 h -3 m 6,-1 h 3 v 1 h -3 m 6,-1 h 3 v 1 h -3 m 6,-1 h 3 v 1 h -3 m 6,-1 h 3 v 1 h -3 m 6,-1 h 3 v 1 h -3 m 6,-1 h 3 v 1 h -3 m 6,-1 h 3 v 1 h -3 m 6,-1 h 3 v 1 h -3 m 6,-1 h 3 v 1 h -3 m 6,-1 h 3 v 1 h -3 m 6,-1 h 3 v 1 h -3 m 6,-1 h 3 v 1 h -3 m 6,-1 h 3 v 1 h -3 m 6,-1 h 3 v 1 h -3 m 6,-1 h 3 v 1 h -3 m 6,-1 h 3 v 1 h -3 m 6,-1 h 3 v 1 h -3 m 6,-1 h 3 v 1 h -3 m 6,-1 h 3 v 1 h -3 m 6,-1 h 3 v 1 h -3 m 6,-1 h 3 v 1 h -3 m 6,-1 h 3 v 1 h -3 m 6,-1 h 3 v 1 h -3 m 6,-1 h 3 v 1 h -3 m 6,-1 h 3 v 1 h -3 m 6,-1 h 3 v 1 h -3 m 6,-1 h 3 v 1 h -3 m 6,-1 h 3 v 1 h -3 m 6,-1 h 3 v 1 h -3 m 6,-1 h 3 v 1 h -3 m 6,-1 h 3 v 1 h -3 m 6,-1 h 3 v 1 h -3 m 6,-1 h 3 v 1 h -3 m 6,-1 h 3 v 1 h -3 m 6,-1 h 3 v 1 h -3 m 6,-1 h 3 v 1 h -3 m 6,-1 h 3 v 1 h -3 m 6,-1 h 3 v 1 h -3 m 6,-1 h 3 v 1 h -3 m 6,-1 h 3 v 1 h -3 m 6,-1 h 3 v 1 h -3 m 6,-1 h 3 v 1 h -3 m 6,-1 h 3 v 1 h -3 m 6,-1 h 3 v 1 h -3 m 6,-1 h 3 v 1 h -3 m 6,-1 h 3 v 1 h -3 m 6,-1 h 3 v 1 h -3 m 6,-1 h 3 v 1 h -3 m 6,-1 h 3 v 1 h -3 m 6,-1 h 3 v 1 h -3 m 6,-1 h 3 v 1 h -3 m 6,-1 h 3 v 1 h -3 m 6,-1 h 3 v 1 h -3 m 6,-1 h 3 v 1 h -3 m 6,-1 h 3 v 1 h -3 m 6,-1 h 3 v 1 h -3 m 6,-1 h 3 v 1 h -3 m 6,-1 h 3 v 1 h -3 m 6,-1 h 3 v 1 h -3 m 6,-1 h 3 v 1 h -3 m 6,-1 h 3 v 1 h -3 m 6,-1 h 3 v 1 h -3 m 6,-1 h 3 v 1 h -3 m 6,-1 h 2 v 1 h -2"
         style="fill:#000000;fill-opacity:1;fill-rule:nonzero;stroke:none"
         transform="matrix(0.48103931,0,0,0.48103931,161.00933,150.57206)"
         id="path45" />
      <path
         d="m 670,500 c 0,-26.66666 11.66669,-43.33334 35,-50"
         style="fill:none;stroke:#000000;stroke-width:1;stroke-linecap:butt;stroke-linejoin:miter;stroke-miterlimit:10;stroke-dasharray:none;stroke-opacity:1"
         transform="matrix(0.48103931,0,0,0.48103931,161.00933,150.57206)"
         id="path46" />
      <path
         d="m 220,500 c 0,-20 -3.33333,-33.33334 -10,-40 -6.66667,-6.66666 -15.33333,-11 -26,-13"
         style="fill:none;stroke:#000000;stroke-width:1;stroke-linecap:butt;stroke-linejoin:miter;stroke-miterlimit:10;stroke-dasharray:none;stroke-opacity:1"
         transform="matrix(0.48103931,0,0,0.48103931,161.00933,150.57206)"
         id="path47" />
      <path
         d="m 333,77.5 h 45"
         style="fill:none;stroke:#ff0000;stroke-width:10;stroke-linecap:butt;stroke-linejoin:miter;stroke-miterlimit:10;stroke-dasharray:none;stroke-opacity:1"
         transform="matrix(0,-0.48103931,0.48103931,0,294.49773,358.62155)"
         id="path48" />
      <path
         d="m 333,77.5 h 45"
         style="fill:none;stroke:#ff0000;stroke-width:10;stroke-linecap:butt;stroke-linejoin:miter;stroke-miterlimit:10;stroke-dasharray:none;stroke-opacity:1"
         transform="matrix(0.48103931,0,0,0.48103931,160.76881,150.33154)"
         id="path49" />
    </g>
  </g>
</svg>
