<?xml version="1.0" encoding="UTF-8" standalone="no"?>
<!-- Created with Inkscape (http://www.inkscape.org/) -->

<svg
   width="173.34056mm"
   height="38.351696mm"
   viewBox="0 0 173.34056 38.351696"
   version="1.1"
   id="svg1"
   inkscape:version="1.4.2 (ebf0e940d0, 2025-05-08)"
   sodipodi:docname="crossection.svg"
   inkscape:export-filename="crossection.pdf"
   inkscape:export-xdpi="96"
   inkscape:export-ydpi="96"
   xmlns:inkscape="http://www.inkscape.org/namespaces/inkscape"
   xmlns:sodipodi="http://sodipodi.sourceforge.net/DTD/sodipodi-0.dtd"
   xmlns="http://www.w3.org/2000/svg"
   xmlns:svg="http://www.w3.org/2000/svg">
  <sodipodi:namedview
     id="namedview1"
     pagecolor="#ffffff"
     bordercolor="#000000"
     borderopacity="0.25"
     inkscape:showpageshadow="2"
     inkscape:pageopacity="0.0"
     inkscape:pagecheckerboard="0"
     inkscape:deskcolor="#d1d1d1"
     inkscape:document-units="mm"
     inkscape:zoom="1.8419388"
     inkscape:cx="16.558639"
     inkscape:cy="87.679353"
     inkscape:window-width="1920"
     inkscape:window-height="1024"
     inkscape:window-x="0"
     inkscape:window-y="0"
     inkscape:window-maximized="1"
     inkscape:current-layer="layer1" />
  <defs
     id="defs1">
    <clipPath
       clipPathUnits="userSpaceOnUse"
       id="clipPath44">
      <path
         d="M 207.74226,2770.5607 H 727.38774 V 2846.24 H 207.74226 Z"
         id="path44" />
    </clipPath>
    <clipPath
       clipPathUnits="userSpaceOnUse"
       id="clipPath4">
      <path
         d="M 207.74226,2770.5607 H 727.38774 V 2846.24 H 207.74226 Z"
         id="path4" />
    </clipPath>
    <clipPath
       clipPathUnits="userSpaceOnUse"
       id="clipPath6">
      <path
         d="M 207.74226,2770.5607 H 727.38774 V 2846.24 H 207.74226 Z"
         id="path6" />
    </clipPath>
    <clipPath
       clipPathUnits="userSpaceOnUse"
       id="clipPath10">
      <path
         d="M 207.74226,2770.5607 H 727.38774 V 2846.24 H 207.74226 Z"
         id="path10" />
    </clipPath>
    <clipPath
       clipPathUnits="userSpaceOnUse"
       id="clipPath14">
      <path
         d="M 207.74226,2770.5607 H 727.38774 V 2846.24 H 207.74226 Z"
         id="path14" />
    </clipPath>
    <clipPath
       clipPathUnits="userSpaceOnUse"
       id="clipPath18">
      <path
         d="M 207.74226,2770.5607 H 727.38774 V 2846.24 H 207.74226 Z"
         id="path18" />
    </clipPath>
    <clipPath
       clipPathUnits="userSpaceOnUse"
       id="clipPath22">
      <path
         d="M 207.74226,2770.5607 H 727.38774 V 2846.24 H 207.74226 Z"
         id="path22" />
    </clipPath>
    <clipPath
       clipPathUnits="userSpaceOnUse"
       id="clipPath26">
      <path
         d="M 207.74226,2770.5607 H 727.38774 V 2846.24 H 207.74226 Z"
         id="path26" />
    </clipPath>
    <clipPath
       clipPathUnits="userSpaceOnUse"
       id="clipPath33">
      <path
         d="M 207.74226,2770.5607 H 727.38774 V 2846.24 H 207.74226 Z"
         id="path33" />
    </clipPath>
    <clipPath
       clipPathUnits="userSpaceOnUse"
       id="clipPath37">
      <path
         d="M 207.74226,2770.5607 H 727.38774 V 2846.24 H 207.74226 Z"
         id="path37" />
    </clipPath>
    <clipPath
       clipPathUnits="userSpaceOnUse"
       id="clipPath44-0">
      <path
         d="M 207.74226,2770.5607 H 727.38774 V 2846.24 H 207.74226 Z"
         id="path44-2" />
    </clipPath>
    <clipPath
       clipPathUnits="userSpaceOnUse"
       id="clipPath52">
      <path
         d="M -1016,-351 H 1660 V 1068 H -1016 Z"
         transform="translate(1.3541333e-4)"
         id="path52" />
    </clipPath>
    <clipPath
       clipPathUnits="userSpaceOnUse"
       id="clipPath54">
      <path
         d="M -1016,-351 H 1660 V 1068 H -1016 Z"
         transform="translate(-2.0833333e-5)"
         id="path54" />
    </clipPath>
    <clipPath
       clipPathUnits="userSpaceOnUse"
       id="clipPath56">
      <path
         d="M -1016,-351 H 1660 V 1068 H -1016 Z"
         transform="translate(2.2916666e-4)"
         id="path56" />
    </clipPath>
    <clipPath
       clipPathUnits="userSpaceOnUse"
       id="clipPath58">
      <path
         d="M -1016,-351 H 1660 V 1068 H -1016 Z"
         transform="translate(1.4583333e-4)"
         id="path58" />
    </clipPath>
    <clipPath
       clipPathUnits="userSpaceOnUse"
       id="clipPath60">
      <path
         d="M -1016,-351 H 1660 V 1068 H -1016 Z"
         transform="translate(-1.9792e-4)"
         id="path60" />
    </clipPath>
    <marker
       style="overflow:visible"
       id="Triangle-6"
       refX="0"
       refY="0"
       orient="auto-start-reverse"
       inkscape:stockid="Triangle arrow"
       markerWidth="0.30000001"
       markerHeight="0.30000001"
       viewBox="0 0 1 1"
       inkscape:isstock="true"
       inkscape:collect="always"
       preserveAspectRatio="xMidYMid"
       markerUnits="userSpaceOnUse">
      <path
         transform="scale(0.5)"
         style="fill:context-stroke;fill-rule:evenodd;stroke:context-stroke;stroke-width:1pt"
         d="M 5.77,0 -2.88,5 V -5 Z"
         id="path135-6" />
    </marker>
    <clipPath
       clipPathUnits="userSpaceOnUse"
       id="clipPath4-6">
      <path
         d="M 207.74226,2770.5607 H 727.38774 V 2846.24 H 207.74226 Z"
         id="path4-5" />
    </clipPath>
    <clipPath
       clipPathUnits="userSpaceOnUse"
       id="clipPath44-0-6">
      <path
         d="M 207.74226,2770.5607 H 727.38774 V 2846.24 H 207.74226 Z"
         id="path44-2-3" />
    </clipPath>
    <marker
       style="overflow:visible"
       id="Triangle-6-3"
       refX="0"
       refY="0"
       orient="auto-start-reverse"
       inkscape:stockid="Triangle arrow"
       markerWidth="0.30000001"
       markerHeight="0.30000001"
       viewBox="0 0 1 1"
       inkscape:isstock="true"
       inkscape:collect="always"
       preserveAspectRatio="xMidYMid"
       markerUnits="userSpaceOnUse">
      <path
         transform="scale(0.5)"
         style="fill:context-stroke;fill-rule:evenodd;stroke:context-stroke;stroke-width:1pt"
         d="M 5.77,0 -2.88,5 V -5 Z"
         id="path135-6-8" />
    </marker>
  </defs>
  <g
     inkscape:label="Layer 1"
     inkscape:groupmode="layer"
     id="layer1"
     transform="translate(-27.269297,-61.03407)">
    <g
       id="Axes"
       style="display:inline"
       transform="translate(0,-2.1166667)">
      <path
         id="path2"
         d="M 22.280578,91.13784 H 205.59995 V 64.439866 H 22.280578 Z"
         style="display:none;fill:#ffffff;fill-opacity:1;fill-rule:nonzero;stroke:none;stroke-width:0.352778"
         sodipodi:nodetypes="ccccc" />
      <path
         id="path3"
         d="m 233.34484,2803.3119 0.46832,0.8987 0.48376,0.8881 0.49915,0.8774 0.5145,0.8669 0.52979,0.8562 0.54504,0.8455 0.56023,0.8348 0.57538,0.8241 0.59047,0.8134 0.60552,0.8026 0.62052,0.7918 0.63548,0.781 0.65037,0.7702 0.66522,0.7593 0.68003,0.7485 0.69478,0.7375 0.70949,0.7266 0.72414,0.7157 0.73875,0.7048 0.7533,0.6937 0.76781,0.6828 0.78227,0.6717 0.79669,0.6606 0.81104,0.6496 0.82535,0.6385 0.83962,0.6274 0.85383,0.6162 0.86799,0.605 0.88212,0.5939 0.89617,0.5827 0.9102,0.5714 0.92416,0.5602 0.93808,0.5489 0.95195,0.5376 0.96577,0.5263 0.97954,0.515 0.99327,0.5035 1.00694,0.4922 1.02056,0.4808 1.03414,0.4694 1.04767,0.4579 1.06114,0.4464 1.07457,0.4349 1.08795,0.4235 1.10128,0.4118 1.11456,0.4003 1.12779,0.3887 1.14097,0.3771 1.15411,0.3655 1.16719,0.3538 1.18023,0.3422 1.19321,0.3304 1.20615,0.3187 1.21904,0.307 1.23188,0.2952 1.24467,0.2835 1.2574,0.2716 1.2701,0.2598 1.28275,0.2479 1.29533,0.236 1.30788,0.2242 1.32037,0.2122 1.33283,0.2003 1.34521,0.1883 1.35757,0.1764 1.36986,0.1643 1.38212,0.1523 1.39431,0.1402 1.40647,0.1282 1.41857,0.116 1.43062,0.104 1.44262,0.092 1.45459,0.08 1.46648,0.067 1.47835,0.055 1.49015,0.043 1.50191,0.031 1.51362,0.018 1.52528,0.01 1.25502,-0.01 1.40115,-0.025 1.54446,-0.041 1.68494,-0.057 1.82258,-0.073 1.95742,-0.088 2.08941,-0.1032 2.21857,-0.1183 2.34493,-0.133 2.46844,-0.1476 2.58913,-0.162 2.70699,-0.1761 2.82203,-0.19 2.93424,-0.2037 3.04361,-0.2171 3.15018,-0.2304 3.2539,-0.2434 3.35481,-0.2561 3.45287,-0.2687 3.54813,-0.281 3.64055,-0.2931 3.73014,-0.3049 3.8169,-0.3166 3.90085,-0.3281 3.98196,-0.3392 4.06024,-0.3502 4.13571,-0.3609 4.20834,-0.3714 4.27814,-0.3817 4.34512,-0.3918 4.40927,-0.4016 4.4706,-0.4113 4.52909,-0.4206 4.58476,-0.4297 4.63761,-0.4387 4.68763,-0.4474 4.73481,-0.4559 4.77918,-0.4642 4.82071,-0.4722 4.85942,-0.4799 4.89531,-0.4876 4.92836,-0.4949 4.95859,-0.502 4.98599,-0.5089 5.01056,-0.5156 5.03231,-0.5221 5.05124,-0.5282 5.06732,-0.5343 5.0806,-0.54 5.09103,-0.5456 5.09864,-0.5509 5.10344,-0.556 5.10539,-0.5608 5.10452,-0.5655 5.10083,-0.5699 5.09431,-0.5741 5.08496,-0.578 5.07278,-0.5818 5.05778,-0.5853 5.03995,-0.5886 5.0193,-0.5916 4.99581,-0.5945 4.96951,-0.597 4.94036,-0.5995 4.9084,-0.6016 4.87361,-0.6035 4.836,-0.6053 4.79555,-0.6067 4.75227,-0.6079 4.70618,-0.609 4.65726,-0.6098 4.6055,-0.6104 4.55092,-0.6107 4.49352,-0.6108 4.43328,-0.6107 4.37022,-0.6104 4.30434,-0.6099 4.23562,-0.609 4.16408,-0.6081 4.08972,-0.6068 4.01251,-0.6053 3.9325,-0.6037 3.84965,-0.6017 3.76398,-0.5996 3.67547,-0.5973 3.58414,-0.5946 3.48999,-0.5919 3.393,-0.5888 3.2932,-0.5855 3.19055,-0.5821 3.0851,-0.5783 2.9768,-0.5743 2.86569,-0.5702 2.75174,-0.5658 2.63497,-0.5612 2.51537,-0.5563 2.39294,-0.5513 2.2677,-0.546 2.13961,-0.5404 0.14625,-0.046 0.14036,-0.062 0.13283,-0.077 0.12375,-0.091 0.11322,-0.1036 0.10135,-0.1153 0.0883,-0.1255 0.0742,-0.1343 0.0593,-0.1415 0.0436,-0.1472 0.0274,-0.1509 0.0109,-0.1531 -0.006,-0.1533 -0.0222,-0.1519 -0.0385,-0.1485 -0.0543,-0.1435 -0.0695,-0.1368 -0.0839,-0.1285 -0.0973,-0.1187 -0.10957,-0.1074 -0.12054,-0.095 -0.1301,-0.081 -0.13813,-0.067 -0.14456,-0.052 -0.14927,-0.036 -0.15224,-0.019 h -0.15343 l -0.15282,0.014 -0.15041,0.03 -2.1394,0.5404 -2.26705,0.5459 -2.39189,0.5511 -2.5139,0.5561 -2.6331,0.561 -2.74948,0.5655 -2.86304,0.5699 -2.97379,0.5739 -3.08171,0.5779 -3.18682,0.5816 -3.28911,0.585 -3.38858,0.5882 -3.48523,0.5913 -3.57907,0.594 -3.67009,0.5965 -3.75828,0.5989 -3.84367,0.601 -3.92623,0.6029 -4.00597,0.6045 -4.0829,0.6059 -4.157,0.6072 -4.2283,0.6081 -4.29677,0.6089 -4.36242,0.6094 -4.42526,0.6097 -4.48528,0.6097 -4.54247,0.6097 -4.59686,0.6092 -4.64842,0.6087 -4.69717,0.6078 -4.74309,0.6068 -4.7862,0.6055 -4.82649,0.6041 -4.86397,0.6023 -4.89861,0.6003 -4.93046,0.5982 -4.95947,0.5958 -4.98568,0.5932 -5.00905,0.5903 -5.02962,0.5873 -5.04737,0.5839 -5.06229,0.5805 -5.0744,0.5767 -5.0837,0.5727 -5.09016,0.5686 -5.09383,0.5641 -5.09465,0.5595 -5.09268,0.5546 -5.08788,0.5495 -5.08026,0.5442 -5.06983,0.5386 -5.05657,0.5329 -5.0405,0.5269 -5.02161,0.5207 -4.9999,0.5142 -4.97538,0.5076 -4.94803,0.5007 -4.91787,0.4935 -4.88489,0.4863 -4.84909,0.4786 -4.81047,0.4709 -4.76904,0.4628 -4.72478,0.4547 -4.67772,0.4461 -4.62782,0.4375 -4.57512,0.4285 -4.51959,0.4194 -4.46125,0.41 -4.40009,0.4005 -4.3361,0.3906 -4.26931,0.3806 -4.1997,0.3703 -4.12725,0.3599 -4.05201,0.3491 -3.97393,0.3382 -3.89305,0.327 -3.80934,0.3157 -3.72282,0.304 -3.63347,0.2922 -3.54131,0.2801 -3.44633,0.2679 -3.34853,0.2553 -3.24792,0.2426 -3.14448,0.2296 -3.03824,0.2165 -2.92916,0.203 -2.81728,0.1894 -2.70257,0.1756 -2.58504,0.1614 -2.4647,0.1472 -2.34154,0.1326 -2.21557,0.1178 -2.08676,0.1029 -1.95515,0.088 -1.82072,0.072 -1.68347,0.057 -1.5434,0.041 -1.40051,0.025 -1.2548,0.01 -1.52528,-0.01 -1.51362,-0.018 -1.50191,-0.031 -1.49015,-0.043 -1.47835,-0.055 -1.46648,-0.067 -1.45459,-0.08 -1.44262,-0.092 -1.43062,-0.1039 -1.41857,-0.1161 -1.40647,-0.1281 -1.39431,-0.1402 -1.38212,-0.1523 -1.36986,-0.1644 -1.35757,-0.1763 -1.34521,-0.1883 -1.33283,-0.2003 -1.32037,-0.2122 -1.30788,-0.2242 -1.29533,-0.236 -1.28275,-0.248 -1.2701,-0.2598 -1.2574,-0.2716 -1.24467,-0.2834 -1.23188,-0.2952 -1.21904,-0.307 -1.20615,-0.3187 -1.19321,-0.3305 -1.18023,-0.3421 -1.16719,-0.3538 -1.15411,-0.3655 -1.14097,-0.3771 -1.12779,-0.3887 -1.11456,-0.4003 -1.10128,-0.4119 -1.08795,-0.4234 -1.07457,-0.4349 -1.06114,-0.4464 -1.04767,-0.4579 -1.03414,-0.4694 -1.02056,-0.4808 -1.00694,-0.4922 -0.99327,-0.5036 -0.97954,-0.5149 -0.96577,-0.5263 -0.95195,-0.5376 -0.93808,-0.5489 -0.45095,-0.2734 -0.43904,-0.2759 -0.4269,-0.2781 -0.41455,-0.2799 -0.40197,-0.2815 -0.38916,-0.2828 -0.37614,-0.2837 -0.36289,-0.2844 -0.34942,-0.2848 -0.33572,-0.2848 -0.32181,-0.2847 -0.30767,-0.2841 -0.2933,-0.2832 -0.27871,-0.2821 -0.2639,-0.2807 -0.24887,-0.279 -0.23361,-0.2769 -0.21814,-0.2745 -0.20243,-0.272 -0.1865,-0.269 -0.17036,-0.2658 -0.15398,-0.2622 -0.13739,-0.2584 -0.12057,-0.2542 -0.10352,-0.2498 -0.0863,-0.2451 -0.0688,-0.24 -0.0511,-0.2347 -0.0331,-0.229 -0.015,-0.2231 0.003,-0.2169 0.022,-0.2103 0.0408,-0.2034 0.0599,-0.1963 0.0792,-0.1889 0.0987,-0.1811 0.11837,-0.1731 0.13831,-0.1647 0.15848,-0.156 0.17886,-0.1472 0.19948,-0.1378 0.22031,-0.1283 0.24136,-0.1185 0.26265,-0.1083 0.28415,-0.098 0.30587,-0.087 0.32783,-0.076 0.35,-0.065 0.37239,-0.053 v 0 l 1.15124,-0.1789 1.13741,-0.2523 1.11894,-0.3246 1.09585,-0.3956 1.06828,-0.4649 1.03632,-0.5324 1.00011,-0.5976 0.95979,-0.6604 0.91554,-0.7205 0.86753,-0.7777 0.81596,-0.8316 0.76104,-0.8822 0.703,-0.929 0.64208,-0.9722 0.57851,-1.0113 0.51258,-1.0462 0.44454,-1.0769 0.37468,-1.1032 0.30328,-1.1249 0.23064,-1.142 0.15705,-1.1544 0.0828,-1.1621 0.008,-1.1651 -0.0664,-1.1632 -0.14071,-1.1565 -0.21446,-1.1451 -0.28735,-1.1291 -0.35904,-1.1084 -0.42927,-1.0831 -0.49774,-1.0534 -0.56416,-1.0193 -0.62826,-0.9812 -0.6898,-0.9389 -0.74849,-0.8928 -0.80412,-0.8431 -0.85645,-0.7898 -0.90526,-0.7334 -0.95036,-0.6739 -0.99156,-0.6117 -1.02869,-0.547 -1.0616,-0.48 -1.09015,-0.411 -1.11423,-0.3404 -1.13373,-0.2684 -1.1486,-0.1952 -1.15873,-0.1212 -1.16412,-0.047 -1.16473,0.028 -1.16056,0.1023 -1.15163,0.1764 -1.13798,0.2498 -1.11964,0.3222 -1.09673,0.3931 -1.0693,0.4626 -1.03749,0.53 -1.00143,0.5954 -0.96125,0.6584 -0.91713,0.7185 -0.86925,0.7757 -0.81779,0.8298 -0.76299,0.8805 -0.70505,0.9275 -0.64422,0.9707 -0.58075,1.01 -0.51489,1.0451 -0.44692,1.076 -0.37712,1.1023 -0.30576,1.1242 -0.23316,1.1415 -0.15959,1.1541 -0.0854,1.1619 -0.0108,1.1651 0.0638,1.1633 0.13815,1.1568 0.21194,1.1456 0.28485,1.1297 0.35659,1.1092 0.42688,1.084 0.49541,1.0545 z"
         style="display:none;fill:#808080;fill-opacity:0.3;fill-rule:nonzero;stroke:#808080;stroke-width:1;stroke-linecap:butt;stroke-linejoin:miter;stroke-miterlimit:10;stroke-dasharray:none;stroke-opacity:0.3"
         transform="matrix(0.35277776,0,0,-0.35277776,-51.006271,1068.53)"
         clip-path="url(#clipPath4)" />
      <path
         id="path5"
         d="M 231.36251,2770.5607 V 2846.24"
         style="display:none;fill:none;stroke:#c5c5c5;stroke-width:1;stroke-linecap:square;stroke-linejoin:round;stroke-miterlimit:10;stroke-dasharray:none;stroke-opacity:0.3"
         transform="matrix(0.35277776,0,0,-0.35277776,-51.006271,1068.53)"
         clip-path="url(#clipPath6)" />
      <path
         id="path7"
         d="M 30.613277,91.13784 V 89.903118"
         style="display:none;fill:#c5c5c5;fill-opacity:1;fill-rule:nonzero;stroke:#c5c5c5;stroke-width:0.282222;stroke-linecap:butt;stroke-linejoin:round;stroke-miterlimit:10;stroke-dasharray:none;stroke-opacity:1" />
      <path
         id="path8"
         d="m 30.613277,64.439866 v 1.234723"
         style="display:none;fill:#c5c5c5;fill-opacity:1;fill-rule:nonzero;stroke:#c5c5c5;stroke-width:0.282222;stroke-linecap:butt;stroke-linejoin:round;stroke-miterlimit:10;stroke-dasharray:none;stroke-opacity:1" />
      <text
         id="text8"
         xml:space="preserve"
         x="26.96699"
         y="95.856155"
         style="font-size:4.23333px;display:inline;stroke-width:0.352778"><tspan
           id="tspan8"
           style="font-variant:normal;font-weight:normal;font-size:4.58611px;font-family:'DejaVu Sans';writing-mode:lr-tb;fill:#000000;fill-opacity:1;fill-rule:nonzero;stroke:none;stroke-width:0.352778"
           x="26.96699"
           y="95.856155">0.0</tspan></text>
      <path
         id="path9"
         d="M 325.8435,2770.5607 V 2846.24"
         style="display:none;fill:none;stroke:#c5c5c5;stroke-width:1;stroke-linecap:square;stroke-linejoin:round;stroke-miterlimit:10;stroke-dasharray:none;stroke-opacity:0.3"
         transform="matrix(0.35277776,0,0,-0.35277776,-51.006271,1068.53)"
         clip-path="url(#clipPath10)" />
      <path
         id="path11"
         d="M 63.944069,91.13784 V 89.903118"
         style="display:none;fill:#c5c5c5;fill-opacity:1;fill-rule:nonzero;stroke:#c5c5c5;stroke-width:0.282222;stroke-linecap:butt;stroke-linejoin:round;stroke-miterlimit:10;stroke-dasharray:none;stroke-opacity:1" />
      <path
         id="path12"
         d="m 63.944069,64.439866 v 1.234723"
         style="display:none;fill:#c5c5c5;fill-opacity:1;fill-rule:nonzero;stroke:#c5c5c5;stroke-width:0.282222;stroke-linecap:butt;stroke-linejoin:round;stroke-miterlimit:10;stroke-dasharray:none;stroke-opacity:1" />
      <text
         id="text12"
         xml:space="preserve"
         x="60.297783"
         y="95.856155"
         style="font-size:4.23333px;display:inline;stroke-width:0.352778"><tspan
           id="tspan12"
           style="font-variant:normal;font-weight:normal;font-size:4.58611px;font-family:'DejaVu Sans';writing-mode:lr-tb;fill:#000000;fill-opacity:1;fill-rule:nonzero;stroke:none;stroke-width:0.352778"
           x="60.297783"
           y="95.856155">0.2</tspan></text>
      <path
         id="path13"
         d="M 420.3245,2770.5607 V 2846.24"
         style="display:none;fill:none;stroke:#c5c5c5;stroke-width:1;stroke-linecap:square;stroke-linejoin:round;stroke-miterlimit:10;stroke-dasharray:none;stroke-opacity:0.3"
         transform="matrix(0.35277776,0,0,-0.35277776,-51.006271,1068.53)"
         clip-path="url(#clipPath14)" />
      <path
         id="path15"
         d="M 97.274861,91.13784 V 89.903118"
         style="display:none;fill:#c5c5c5;fill-opacity:1;fill-rule:nonzero;stroke:#c5c5c5;stroke-width:0.282222;stroke-linecap:butt;stroke-linejoin:round;stroke-miterlimit:10;stroke-dasharray:none;stroke-opacity:1" />
      <path
         id="path16"
         d="m 97.274861,64.439866 v 1.234723"
         style="display:none;fill:#c5c5c5;fill-opacity:1;fill-rule:nonzero;stroke:#c5c5c5;stroke-width:0.282222;stroke-linecap:butt;stroke-linejoin:round;stroke-miterlimit:10;stroke-dasharray:none;stroke-opacity:1" />
      <text
         id="text16"
         xml:space="preserve"
         x="93.628578"
         y="95.856155"
         style="font-size:4.23333px;display:inline;stroke-width:0.352778"><tspan
           id="tspan16"
           style="font-variant:normal;font-weight:normal;font-size:4.58611px;font-family:'DejaVu Sans';writing-mode:lr-tb;fill:#000000;fill-opacity:1;fill-rule:nonzero;stroke:none;stroke-width:0.352778"
           x="93.628578"
           y="95.856155">0.4</tspan></text>
      <path
         id="path17"
         d="M 514.8055,2770.5607 V 2846.24"
         style="display:none;fill:none;stroke:#c5c5c5;stroke-width:1;stroke-linecap:square;stroke-linejoin:round;stroke-miterlimit:10;stroke-dasharray:none;stroke-opacity:0.3"
         transform="matrix(0.35277776,0,0,-0.35277776,-51.006271,1068.53)"
         clip-path="url(#clipPath18)" />
      <path
         id="path19"
         d="M 130.60566,91.13784 V 89.903118"
         style="display:none;fill:#c5c5c5;fill-opacity:1;fill-rule:nonzero;stroke:#c5c5c5;stroke-width:0.282222;stroke-linecap:butt;stroke-linejoin:round;stroke-miterlimit:10;stroke-dasharray:none;stroke-opacity:1" />
      <path
         id="path20"
         d="m 130.60566,64.439866 v 1.234723"
         style="display:none;fill:#c5c5c5;fill-opacity:1;fill-rule:nonzero;stroke:#c5c5c5;stroke-width:0.282222;stroke-linecap:butt;stroke-linejoin:round;stroke-miterlimit:10;stroke-dasharray:none;stroke-opacity:1" />
      <text
         id="text20"
         xml:space="preserve"
         x="126.95937"
         y="95.856155"
         style="font-size:4.23333px;display:inline;stroke-width:0.352778"><tspan
           id="tspan20"
           style="font-variant:normal;font-weight:normal;font-size:4.58611px;font-family:'DejaVu Sans';writing-mode:lr-tb;fill:#000000;fill-opacity:1;fill-rule:nonzero;stroke:none;stroke-width:0.352778"
           x="126.95937"
           y="95.856155">0.6</tspan></text>
      <path
         id="path21"
         d="M 609.2865,2770.5607 V 2846.24"
         style="display:none;fill:none;stroke:#c5c5c5;stroke-width:1;stroke-linecap:square;stroke-linejoin:round;stroke-miterlimit:10;stroke-dasharray:none;stroke-opacity:0.3"
         transform="matrix(0.35277776,0,0,-0.35277776,-51.006271,1068.53)"
         clip-path="url(#clipPath22)" />
      <path
         id="path23"
         d="M 163.93645,91.13784 V 89.903118"
         style="display:none;fill:#c5c5c5;fill-opacity:1;fill-rule:nonzero;stroke:#c5c5c5;stroke-width:0.282222;stroke-linecap:butt;stroke-linejoin:round;stroke-miterlimit:10;stroke-dasharray:none;stroke-opacity:1" />
      <path
         id="path24"
         d="m 163.93645,64.439866 v 1.234723"
         style="display:none;fill:#c5c5c5;fill-opacity:1;fill-rule:nonzero;stroke:#c5c5c5;stroke-width:0.282222;stroke-linecap:butt;stroke-linejoin:round;stroke-miterlimit:10;stroke-dasharray:none;stroke-opacity:1" />
      <text
         id="text24"
         xml:space="preserve"
         x="160.29018"
         y="95.856155"
         style="font-size:4.23333px;display:inline;stroke-width:0.352778"><tspan
           id="tspan24"
           style="font-variant:normal;font-weight:normal;font-size:4.58611px;font-family:'DejaVu Sans';writing-mode:lr-tb;fill:#000000;fill-opacity:1;fill-rule:nonzero;stroke:none;stroke-width:0.352778"
           x="160.29018"
           y="95.856155">0.8</tspan></text>
      <path
         id="path25"
         d="M 703.76749,2770.5607 V 2846.24"
         style="display:none;fill:none;stroke:#c5c5c5;stroke-width:1;stroke-linecap:square;stroke-linejoin:round;stroke-miterlimit:10;stroke-dasharray:none;stroke-opacity:0.3"
         transform="matrix(0.35277776,0,0,-0.35277776,-51.006271,1068.53)"
         clip-path="url(#clipPath26)" />
      <path
         id="path27"
         d="M 197.26725,91.13784 V 89.903118"
         style="display:none;fill:#c5c5c5;fill-opacity:1;fill-rule:nonzero;stroke:#c5c5c5;stroke-width:0.282222;stroke-linecap:butt;stroke-linejoin:round;stroke-miterlimit:10;stroke-dasharray:none;stroke-opacity:1" />
      <path
         id="path28"
         d="m 197.26725,64.439866 v 1.234723"
         style="display:none;fill:#c5c5c5;fill-opacity:1;fill-rule:nonzero;stroke:#c5c5c5;stroke-width:0.282222;stroke-linecap:butt;stroke-linejoin:round;stroke-miterlimit:10;stroke-dasharray:none;stroke-opacity:1" />
      <text
         id="text28"
         xml:space="preserve"
         x="193.62097"
         y="95.856155"
         style="font-size:4.23333px;display:inline;stroke-width:0.352778"><tspan
           id="tspan28"
           style="font-variant:normal;font-weight:normal;font-size:4.58611px;font-family:'DejaVu Sans';writing-mode:lr-tb;fill:#000000;fill-opacity:1;fill-rule:nonzero;stroke:none;stroke-width:0.352778"
           x="193.62097"
           y="95.856155">1.0</tspan></text>
      <path
         id="path32"
         d="M 207.74226,2795.0549 H 727.38774"
         style="display:none;fill:none;stroke:#c5c5c5;stroke-width:1;stroke-linecap:square;stroke-linejoin:round;stroke-miterlimit:10;stroke-dasharray:none;stroke-opacity:0.3"
         transform="matrix(0.35277776,0,0,-0.35277776,-51.006271,1068.53)"
         clip-path="url(#clipPath33)"
         sodipodi:nodetypes="cc" />
      <path
         id="path34"
         d="M 22.280578,82.496831 H 23.5153"
         style="display:none;fill:#c5c5c5;fill-opacity:1;fill-rule:nonzero;stroke:#c5c5c5;stroke-width:0.282222;stroke-linecap:butt;stroke-linejoin:round;stroke-miterlimit:10;stroke-dasharray:none;stroke-opacity:1" />
      <path
         id="path35"
         d="m 205.59995,82.496831 h -1.23473"
         style="display:none;fill:#c5c5c5;fill-opacity:1;fill-rule:nonzero;stroke:#c5c5c5;stroke-width:0.282222;stroke-linecap:butt;stroke-linejoin:round;stroke-miterlimit:10;stroke-dasharray:none;stroke-opacity:1" />
      <text
         id="text35"
         xml:space="preserve"
         x="13.753279"
         y="84.238586"
         style="font-size:4.23333px;display:none;stroke-width:0.352778"><tspan
           id="tspan35"
           style="font-variant:normal;font-weight:normal;font-size:4.58611px;font-family:'DejaVu Sans';writing-mode:lr-tb;fill:#000000;fill-opacity:1;fill-rule:nonzero;stroke:none;stroke-width:0.352778"
           x="13.753279"
           y="84.238586">0.0</tspan></text>
      <path
         id="path36"
         d="M 207.74226,2842.2954 H 727.38774"
         style="display:none;fill:none;stroke:#c5c5c5;stroke-width:1;stroke-linecap:square;stroke-linejoin:round;stroke-miterlimit:10;stroke-dasharray:none;stroke-opacity:0.3"
         transform="matrix(0.35277776,0,0,-0.35277776,-51.006271,1068.53)"
         clip-path="url(#clipPath37)" />
      <path
         id="path38"
         d="M 22.280578,65.831434 H 23.5153"
         style="display:none;fill:#c5c5c5;fill-opacity:1;fill-rule:nonzero;stroke:#c5c5c5;stroke-width:0.282222;stroke-linecap:butt;stroke-linejoin:round;stroke-miterlimit:10;stroke-dasharray:none;stroke-opacity:1" />
      <path
         id="path39"
         d="m 205.59995,65.831434 h -1.23473"
         style="display:none;fill:#c5c5c5;fill-opacity:1;fill-rule:nonzero;stroke:#c5c5c5;stroke-width:0.282222;stroke-linecap:butt;stroke-linejoin:round;stroke-miterlimit:10;stroke-dasharray:none;stroke-opacity:1" />
      <text
         id="text39"
         xml:space="preserve"
         x="13.753279"
         y="67.573189"
         style="font-size:4.23333px;display:none;stroke-width:0.352778"><tspan
           id="tspan39"
           style="font-variant:normal;font-weight:normal;font-size:4.58611px;font-family:'DejaVu Sans';writing-mode:lr-tb;fill:#000000;fill-opacity:1;fill-rule:nonzero;stroke:none;stroke-width:0.352778"
           x="13.753279"
           y="67.573189">0.1</tspan></text>
      <text
         id="text40"
         xml:space="preserve"
         transform="rotate(-90)"
         x="-84.667938"
         y="11.234228"
         style="font-size:4.23333px;display:none;stroke-width:0.352778"><tspan
           id="tspan40"
           style="font-style:oblique;font-variant:normal;font-weight:normal;font-size:4.58611px;font-family:'DejaVu Sans';writing-mode:lr-tb;fill:#000000;fill-opacity:1;fill-rule:nonzero;stroke:none;stroke-width:0.352778"
           x="-84.667938"
           y="11.234228">y</tspan><tspan
           id="tspan41"
           style="font-variant:normal;font-weight:normal;font-size:4.58611px;font-family:'DejaVu Sans';writing-mode:lr-tb;fill:#000000;fill-opacity:1;fill-rule:nonzero;stroke:none;stroke-width:0.352778"
           x="-81.953896"
           y="11.234228">/</tspan><tspan
           id="tspan42"
           style="font-style:oblique;font-variant:normal;font-weight:normal;font-size:4.58611px;font-family:'DejaVu Sans';writing-mode:lr-tb;fill:#000000;fill-opacity:1;fill-rule:nonzero;stroke:none;stroke-width:0.352778"
           x="-80.408768"
           y="11.234228">c</tspan><tspan
           id="tspan43"
           style="font-variant:normal;font-weight:normal;font-size:4.58611px;font-family:'DejaVu Sans';writing-mode:lr-tb;fill:#000000;fill-opacity:1;fill-rule:nonzero;stroke:none;stroke-width:0.352778"
           x="-77.887306"
           y="11.234228"> (-)</tspan></text>
      <path
         id="path43"
         d="m 233.34484,2803.3119 1.45123,2.6642 1.58933,2.5686 1.72608,2.4723 2.51189,3.1456 2.74952,2.9719 2.984,2.797 3.21535,2.6204 3.44356,2.4425 3.66861,2.2632 3.89053,2.0824 4.10931,1.9003 4.32494,1.7166 4.53743,1.5316 4.74678,1.3451 4.95299,1.1573 5.15606,0.9679 5.35598,0.7772 5.55276,0.585 5.7464,0.3914 5.93689,0.1964 5.69507,-0.01 7.0094,-0.258 11.71048,-0.6641 17.91095,-1.2607 25.44425,-2.0485 29.41878,-2.5968 32.42368,-3.0678 34.45894,-3.4611 35.52458,-3.7771 35.62057,-4.0154 29.87333,-3.5728 28.62087,-3.6422 22.45344,-3.053 20.80627,-3.0391 18.80574,-2.9969 13.36674,-2.3483 11.67933,-2.2886 7.54328,-1.6688 4.82675,-1.2717 0.42661,-0.4351 0.20451,-0.5739 -0.0554,-0.6068 -0.30507,-0.5275 -0.49834,-0.3506 -0.5995,-0.1089 -0.30323,0.044 -6.79834,1.6374 -7.89648,1.6826 -12.10536,2.3033 -13.74199,2.3585 -15.19827,2.3993 -20.77094,3.0346 -22.41229,3.0477 -28.56534,3.6352 -29.81289,3.5651 -35.5464,4.006 -35.44933,3.7674 -34.38563,3.4518 -36.75541,3.4595 -32.66069,2.8314 -24.08486,1.8717 -16.53699,1.0931 -10.41974,0.5132 -5.88218,0.1301 -6.03096,-0.098 -5.84204,-0.2941 -5.64997,-0.4883 -5.45476,-0.6813 -5.25641,-0.8727 -5.05492,-1.0628 -4.85028,-1.2514 -4.6425,-1.4385 -4.43158,-1.6243 -4.21752,-1.8086 -4.00031,-1.9915 -3.74579,-2.1621 -2.00872,-1.406 -1.67751,-1.4228 -1.31839,-1.4019 -0.93141,-1.3435 -0.44775,-1.0075 -0.16795,-0.9268 0.0662,-0.6306 0.23769,-0.5663 0.41516,-0.4938 0.59865,-0.4133 0.78816,-0.3247 1.35609,-0.2809 v 0 l 2.28865,-0.4312 2.21479,-0.7202 2.1046,-0.9973 1.9599,-1.258 1.78307,-1.4982 1.577,-1.7138 1.34508,-1.9012 1.09109,-2.0575 0.81922,-2.1801 0.53392,-2.2669 0.23986,-2.3165 -0.0581,-2.3283 -0.35517,-2.3016 -0.64639,-2.2375 -0.92701,-2.1365 -1.19242,-2.0005 -1.43829,-1.8317 -1.66057,-1.6329 -1.85562,-1.4073 -2.02025,-1.1587 -2.15175,-0.891 -2.24796,-0.6088 -2.30733,-0.3164 -2.32885,-0.019 -2.31219,0.2787 -2.25762,0.572 -2.16603,0.8557 -2.03892,1.1254 -1.87838,1.3769 -1.68704,1.6055 -1.46804,1.808 -1.22497,1.9807 -0.96181,2.1211 -0.68288,2.2265 -0.39275,2.2956 -0.0962,2.327 0.20195,2.3201 0.49679,2.2753 0.78347,2.1932 0.49541,1.0545 v 0"
         style="display:none;fill:none;stroke:#808080;stroke-width:2;stroke-linecap:square;stroke-linejoin:round;stroke-miterlimit:10;stroke-dasharray:none;stroke-opacity:1"
         transform="matrix(0.35277776,0,0,-0.35277776,-51.006271,1068.53)"
         clip-path="url(#clipPath44-0)" />
      <path
         id="path47"
         d="M 22.280578,91.13784 V 64.439866"
         style="display:none;fill:none;stroke:#c5c5c5;stroke-width:0.352778;stroke-linecap:square;stroke-linejoin:miter;stroke-miterlimit:10;stroke-dasharray:none;stroke-opacity:1" />
      <path
         id="path48"
         d="M 205.59995,91.13784 V 64.439866"
         style="display:none;fill:none;stroke:#c5c5c5;stroke-width:0.352778;stroke-linecap:square;stroke-linejoin:miter;stroke-miterlimit:10;stroke-dasharray:none;stroke-opacity:1" />
      <path
         id="path49"
         d="M 22.280578,91.13784 H 205.59995"
         style="display:none;fill:none;stroke:#c5c5c5;stroke-width:0.352778;stroke-linecap:square;stroke-linejoin:miter;stroke-miterlimit:10;stroke-dasharray:none;stroke-opacity:1" />
      <path
         id="path50"
         d="M 22.280578,64.439866 H 205.59995"
         style="display:none;fill:none;stroke:#c5c5c5;stroke-width:0.352778;stroke-linecap:square;stroke-linejoin:miter;stroke-miterlimit:10;stroke-dasharray:none;stroke-opacity:1" />
      <g
         id="g1"
         transform="matrix(0.26458333,0,0,0.26458333,-50.042361,51.772886)"
         style="display:inline">
        <text
           id="text29"
           xml:space="preserve"
           transform="matrix(1.3333333,0,0,1.3333333,597.42,185.66904)"><tspan
             id="tspan29"
             style="font-style:oblique;font-variant:normal;font-weight:normal;font-size:13px;font-family:'DejaVu Sans';writing-mode:lr-tb;fill:#000000;fill-opacity:1;fill-rule:nonzero;stroke:none"
             x="0"
             y="0">x</tspan><tspan
             id="tspan30"
             style="font-variant:normal;font-weight:normal;font-size:13px;font-family:'DejaVu Sans';writing-mode:lr-tb;fill:#000000;fill-opacity:1;fill-rule:nonzero;stroke:none"
             x="7.6933594"
             y="0">/</tspan><tspan
             id="tspan31"
             style="font-style:oblique;font-variant:normal;font-weight:normal;font-size:13px;font-family:'DejaVu Sans';writing-mode:lr-tb;fill:#000000;fill-opacity:1;fill-rule:nonzero;stroke:none"
             x="12.073242"
             y="0">c</tspan><tspan
             id="tspan32"
             style="font-variant:normal;font-weight:normal;font-size:13px;font-family:'DejaVu Sans';writing-mode:lr-tb;fill:#000000;fill-opacity:1;fill-rule:nonzero;stroke:none"
             x="19.220703"
             y="0"> (-)</tspan></text>
      </g>
    </g>
    <g
       id="Crossection">
      <path
         id="path3-8"
         d="m 233.34484,2803.3119 0.46832,0.8987 0.48376,0.8881 0.49915,0.8774 0.5145,0.8669 0.52979,0.8562 0.54504,0.8455 0.56023,0.8348 0.57538,0.8241 0.59047,0.8134 0.60552,0.8026 0.62052,0.7918 0.63548,0.781 0.65037,0.7702 0.66522,0.7593 0.68003,0.7485 0.69478,0.7375 0.70949,0.7266 0.72414,0.7157 0.73875,0.7048 0.7533,0.6937 0.76781,0.6828 0.78227,0.6717 0.79669,0.6606 0.81104,0.6496 0.82535,0.6385 0.83962,0.6274 0.85383,0.6162 0.86799,0.605 0.88212,0.5939 0.89617,0.5827 0.9102,0.5714 0.92416,0.5602 0.93808,0.5489 0.95195,0.5376 0.96577,0.5263 0.97954,0.515 0.99327,0.5035 1.00694,0.4922 1.02056,0.4808 1.03414,0.4694 1.04767,0.4579 1.06114,0.4464 1.07457,0.4349 1.08795,0.4235 1.10128,0.4118 1.11456,0.4003 1.12779,0.3887 1.14097,0.3771 1.15411,0.3655 1.16719,0.3538 1.18023,0.3422 1.19321,0.3304 1.20615,0.3187 1.21904,0.307 1.23188,0.2952 1.24467,0.2835 1.2574,0.2716 1.2701,0.2598 1.28275,0.2479 1.29533,0.236 1.30788,0.2242 1.32037,0.2122 1.33283,0.2003 1.34521,0.1883 1.35757,0.1764 1.36986,0.1643 1.38212,0.1523 1.39431,0.1402 1.40647,0.1282 1.41857,0.116 1.43062,0.104 1.44262,0.092 1.45459,0.08 1.46648,0.067 1.47835,0.055 1.49015,0.043 1.50191,0.031 1.51362,0.018 1.52528,0.01 1.25502,-0.01 1.40115,-0.025 1.54446,-0.041 1.68494,-0.057 1.82258,-0.073 1.95742,-0.088 2.08941,-0.1032 2.21857,-0.1183 2.34493,-0.133 2.46844,-0.1476 2.58913,-0.162 2.70699,-0.1761 2.82203,-0.19 2.93424,-0.2037 3.04361,-0.2171 3.15018,-0.2304 3.2539,-0.2434 3.35481,-0.2561 3.45287,-0.2687 3.54813,-0.281 3.64055,-0.2931 3.73014,-0.3049 3.8169,-0.3166 3.90085,-0.3281 3.98196,-0.3392 4.06024,-0.3502 4.13571,-0.3609 4.20834,-0.3714 4.27814,-0.3817 4.34512,-0.3918 4.40927,-0.4016 4.4706,-0.4113 4.52909,-0.4206 4.58476,-0.4297 4.63761,-0.4387 4.68763,-0.4474 4.73481,-0.4559 4.77918,-0.4642 4.82071,-0.4722 4.85942,-0.4799 4.89531,-0.4876 4.92836,-0.4949 4.95859,-0.502 4.98599,-0.5089 5.01056,-0.5156 5.03231,-0.5221 5.05124,-0.5282 5.06732,-0.5343 5.0806,-0.54 5.09103,-0.5456 5.09864,-0.5509 5.10344,-0.556 5.10539,-0.5608 5.10452,-0.5655 5.10083,-0.5699 5.09431,-0.5741 5.08496,-0.578 5.07278,-0.5818 5.05778,-0.5853 5.03995,-0.5886 5.0193,-0.5916 4.99581,-0.5945 4.96951,-0.597 4.94036,-0.5995 4.9084,-0.6016 4.87361,-0.6035 4.836,-0.6053 4.79555,-0.6067 4.75227,-0.6079 4.70618,-0.609 4.65726,-0.6098 4.6055,-0.6104 4.55092,-0.6107 4.49352,-0.6108 4.43328,-0.6107 4.37022,-0.6104 4.30434,-0.6099 4.23562,-0.609 4.16408,-0.6081 4.08972,-0.6068 4.01251,-0.6053 3.9325,-0.6037 3.84965,-0.6017 3.76398,-0.5996 3.67547,-0.5973 3.58414,-0.5946 3.48999,-0.5919 3.393,-0.5888 3.2932,-0.5855 3.19055,-0.5821 3.0851,-0.5783 2.9768,-0.5743 2.86569,-0.5702 2.75174,-0.5658 2.63497,-0.5612 2.51537,-0.5563 2.39294,-0.5513 2.2677,-0.546 2.13961,-0.5404 0.14625,-0.046 0.14036,-0.062 0.13283,-0.077 0.12375,-0.091 0.11322,-0.1036 0.10135,-0.1153 0.0883,-0.1255 0.0742,-0.1343 0.0593,-0.1415 0.0436,-0.1472 0.0274,-0.1509 0.0109,-0.1531 -0.006,-0.1533 -0.0222,-0.1519 -0.0385,-0.1485 -0.0543,-0.1435 -0.0695,-0.1368 -0.0839,-0.1285 -0.0973,-0.1187 -0.10957,-0.1074 -0.12054,-0.095 -0.1301,-0.081 -0.13813,-0.067 -0.14456,-0.052 -0.14927,-0.036 -0.15224,-0.019 h -0.15343 l -0.15282,0.014 -0.15041,0.03 -2.1394,0.5404 -2.26705,0.5459 -2.39189,0.5511 -2.5139,0.5561 -2.6331,0.561 -2.74948,0.5655 -2.86304,0.5699 -2.97379,0.5739 -3.08171,0.5779 -3.18682,0.5816 -3.28911,0.585 -3.38858,0.5882 -3.48523,0.5913 -3.57907,0.594 -3.67009,0.5965 -3.75828,0.5989 -3.84367,0.601 -3.92623,0.6029 -4.00597,0.6045 -4.0829,0.6059 -4.157,0.6072 -4.2283,0.6081 -4.29677,0.6089 -4.36242,0.6094 -4.42526,0.6097 -4.48528,0.6097 -4.54247,0.6097 -4.59686,0.6092 -4.64842,0.6087 -4.69717,0.6078 -4.74309,0.6068 -4.7862,0.6055 -4.82649,0.6041 -4.86397,0.6023 -4.89861,0.6003 -4.93046,0.5982 -4.95947,0.5958 -4.98568,0.5932 -5.00905,0.5903 -5.02962,0.5873 -5.04737,0.5839 -5.06229,0.5805 -5.0744,0.5767 -5.0837,0.5727 -5.09016,0.5686 -5.09383,0.5641 -5.09465,0.5595 -5.09268,0.5546 -5.08788,0.5495 -5.08026,0.5442 -5.06983,0.5386 -5.05657,0.5329 -5.0405,0.5269 -5.02161,0.5207 -4.9999,0.5142 -4.97538,0.5076 -4.94803,0.5007 -4.91787,0.4935 -4.88489,0.4863 -4.84909,0.4786 -4.81047,0.4709 -4.76904,0.4628 -4.72478,0.4547 -4.67772,0.4461 -4.62782,0.4375 -4.57512,0.4285 -4.51959,0.4194 -4.46125,0.41 -4.40009,0.4005 -4.3361,0.3906 -4.26931,0.3806 -4.1997,0.3703 -4.12725,0.3599 -4.05201,0.3491 -3.97393,0.3382 -3.89305,0.327 -3.80934,0.3157 -3.72282,0.304 -3.63347,0.2922 -3.54131,0.2801 -3.44633,0.2679 -3.34853,0.2553 -3.24792,0.2426 -3.14448,0.2296 -3.03824,0.2165 -2.92916,0.203 -2.81728,0.1894 -2.70257,0.1756 -2.58504,0.1614 -2.4647,0.1472 -2.34154,0.1326 -2.21557,0.1178 -2.08676,0.1029 -1.95515,0.088 -1.82072,0.072 -1.68347,0.057 -1.5434,0.041 -1.40051,0.025 -1.2548,0.01 -1.52528,-0.01 -1.51362,-0.018 -1.50191,-0.031 -1.49015,-0.043 -1.47835,-0.055 -1.46648,-0.067 -1.45459,-0.08 -1.44262,-0.092 -1.43062,-0.1039 -1.41857,-0.1161 -1.40647,-0.1281 -1.39431,-0.1402 -1.38212,-0.1523 -1.36986,-0.1644 -1.35757,-0.1763 -1.34521,-0.1883 -1.33283,-0.2003 -1.32037,-0.2122 -1.30788,-0.2242 -1.29533,-0.236 -1.28275,-0.248 -1.2701,-0.2598 -1.2574,-0.2716 -1.24467,-0.2834 -1.23188,-0.2952 -1.21904,-0.307 -1.20615,-0.3187 -1.19321,-0.3305 -1.18023,-0.3421 -1.16719,-0.3538 -1.15411,-0.3655 -1.14097,-0.3771 -1.12779,-0.3887 -1.11456,-0.4003 -1.10128,-0.4119 -1.08795,-0.4234 -1.07457,-0.4349 -1.06114,-0.4464 -1.04767,-0.4579 -1.03414,-0.4694 -1.02056,-0.4808 -1.00694,-0.4922 -0.99327,-0.5036 -0.97954,-0.5149 -0.96577,-0.5263 -0.95195,-0.5376 -0.93808,-0.5489 -0.45095,-0.2734 -0.43904,-0.2759 -0.4269,-0.2781 -0.41455,-0.2799 -0.40197,-0.2815 -0.38916,-0.2828 -0.37614,-0.2837 -0.36289,-0.2844 -0.34942,-0.2848 -0.33572,-0.2848 -0.32181,-0.2847 -0.30767,-0.2841 -0.2933,-0.2832 -0.27871,-0.2821 -0.2639,-0.2807 -0.24887,-0.279 -0.23361,-0.2769 -0.21814,-0.2745 -0.20243,-0.272 -0.1865,-0.269 -0.17036,-0.2658 -0.15398,-0.2622 -0.13739,-0.2584 -0.12057,-0.2542 -0.10352,-0.2498 -0.0863,-0.2451 -0.0688,-0.24 -0.0511,-0.2347 -0.0331,-0.229 -0.015,-0.2231 0.003,-0.2169 0.022,-0.2103 0.0408,-0.2034 0.0599,-0.1963 0.0792,-0.1889 0.0987,-0.1811 0.11837,-0.1731 0.13831,-0.1647 0.15848,-0.156 0.17886,-0.1472 0.19948,-0.1378 0.22031,-0.1283 0.24136,-0.1185 0.26265,-0.1083 0.28415,-0.098 0.30587,-0.087 0.32783,-0.076 0.35,-0.065 0.37239,-0.053 v 0 l 1.15124,-0.1789 1.13741,-0.2523 1.11894,-0.3246 1.09585,-0.3956 1.06828,-0.4649 1.03632,-0.5324 1.00011,-0.5976 0.95979,-0.6604 0.91554,-0.7205 0.86753,-0.7777 0.81596,-0.8316 0.76104,-0.8822 0.703,-0.929 0.64208,-0.9722 0.57851,-1.0113 0.51258,-1.0462 0.44454,-1.0769 0.37468,-1.1032 0.30328,-1.1249 0.23064,-1.142 0.15705,-1.1544 0.0828,-1.1621 0.008,-1.1651 -0.0664,-1.1632 -0.14071,-1.1565 -0.21446,-1.1451 -0.28735,-1.1291 -0.35904,-1.1084 -0.42927,-1.0831 -0.49774,-1.0534 -0.56416,-1.0193 -0.62826,-0.9812 -0.6898,-0.9389 -0.74849,-0.8928 -0.80412,-0.8431 -0.85645,-0.7898 -0.90526,-0.7334 -0.95036,-0.6739 -0.99156,-0.6117 -1.02869,-0.547 -1.0616,-0.48 -1.09015,-0.411 -1.11423,-0.3404 -1.13373,-0.2684 -1.1486,-0.1952 -1.15873,-0.1212 -1.16412,-0.047 -1.16473,0.028 -1.16056,0.1023 -1.15163,0.1764 -1.13798,0.2498 -1.11964,0.3222 -1.09673,0.3931 -1.0693,0.4626 -1.03749,0.53 -1.00143,0.5954 -0.96125,0.6584 -0.91713,0.7185 -0.86925,0.7757 -0.81779,0.8298 -0.76299,0.8805 -0.70505,0.9275 -0.64422,0.9707 -0.58075,1.01 -0.51489,1.0451 -0.44692,1.076 -0.37712,1.1023 -0.30576,1.1242 -0.23316,1.1415 -0.15959,1.1541 -0.0854,1.1619 -0.0108,1.1651 0.0638,1.1633 0.13815,1.1568 0.21194,1.1456 0.28485,1.1297 0.35659,1.1092 0.42688,1.084 0.49541,1.0545 z"
         style="display:inline;fill:#cccccc;fill-opacity:1;fill-rule:nonzero;stroke:none;stroke-width:1;stroke-linecap:butt;stroke-linejoin:miter;stroke-miterlimit:10;stroke-dasharray:none;stroke-opacity:0.3"
         transform="matrix(0.35277777,0,0,-0.35277777,-51.084239,1068.3759)"
         clip-path="url(#clipPath4-6)" />
      <path
         id="path43-1"
         d="m 233.34484,2803.3119 1.45123,2.6642 1.58933,2.5686 1.72608,2.4723 2.51189,3.1456 2.74952,2.9719 2.984,2.797 3.21535,2.6204 3.44356,2.4425 3.66861,2.2632 3.89053,2.0824 4.10931,1.9003 4.32494,1.7166 4.53743,1.5316 4.74678,1.3451 4.95299,1.1573 5.15606,0.9679 5.35598,0.7772 5.55276,0.585 5.7464,0.3914 5.93689,0.1964 5.69507,-0.01 7.0094,-0.258 11.71048,-0.6641 17.91095,-1.2607 25.44425,-2.0485 29.41878,-2.5968 32.42368,-3.0678 34.45894,-3.4611 35.52458,-3.7771 35.62057,-4.0154 29.87333,-3.5728 28.62087,-3.6422 22.45344,-3.053 20.80627,-3.0391 18.80574,-2.9969 13.36674,-2.3483 11.67933,-2.2886 7.54328,-1.6688 4.82675,-1.2717 0.42661,-0.4351 0.20451,-0.5739 -0.0554,-0.6068 -0.30507,-0.5275 -0.49834,-0.3506 -0.5995,-0.1089 -0.30323,0.044 -6.79834,1.6374 -7.89648,1.6826 -12.10536,2.3033 -13.74199,2.3585 -15.19827,2.3993 -20.77094,3.0346 -22.41229,3.0477 -28.56534,3.6352 -29.81289,3.5651 -35.5464,4.006 -35.44933,3.7674 -34.38563,3.4518 -36.75541,3.4595 -32.66069,2.8314 -24.08486,1.8717 -16.53699,1.0931 -10.41974,0.5132 -5.88218,0.1301 -6.03096,-0.098 -5.84204,-0.2941 -5.64997,-0.4883 -5.45476,-0.6813 -5.25641,-0.8727 -5.05492,-1.0628 -4.85028,-1.2514 -4.6425,-1.4385 -4.43158,-1.6243 -4.21752,-1.8086 -4.00031,-1.9915 -3.74579,-2.1621 -2.00872,-1.406 -1.67751,-1.4228 -1.31839,-1.4019 -0.93141,-1.3435 -0.44775,-1.0075 -0.16795,-0.9268 0.0662,-0.6306 0.23769,-0.5663 0.41516,-0.4938 0.59865,-0.4133 0.78816,-0.3247 1.35609,-0.2809 v 0 l 2.28865,-0.4312 2.21479,-0.7202 2.1046,-0.9973 1.9599,-1.258 1.78307,-1.4982 1.577,-1.7138 1.34508,-1.9012 1.09109,-2.0575 0.81922,-2.1801 0.53392,-2.2669 0.23986,-2.3165 -0.0581,-2.3283 -0.35517,-2.3016 -0.64639,-2.2375 -0.92701,-2.1365 -1.19242,-2.0005 -1.43829,-1.8317 -1.66057,-1.6329 -1.85562,-1.4073 -2.02025,-1.1587 -2.15175,-0.891 -2.24796,-0.6088 -2.30733,-0.3164 -2.32885,-0.019 -2.31219,0.2787 -2.25762,0.572 -2.16603,0.8557 -2.03892,1.1254 -1.87838,1.3769 -1.68704,1.6055 -1.46804,1.808 -1.22497,1.9807 -0.96181,2.1211 -0.68288,2.2265 -0.39275,2.2956 -0.0962,2.327 0.20195,2.3201 0.49679,2.2753 0.78347,2.1932 0.49541,1.0545 v 0"
         style="display:inline;fill:none;stroke:#808080;stroke-width:2.00126;stroke-linecap:square;stroke-linejoin:round;stroke-miterlimit:10;stroke-dasharray:none;stroke-opacity:1"
         transform="matrix(0.35277777,0,0,-0.35277777,-51.084239,1068.3759)"
         clip-path="url(#clipPath44-0-6)"
         sodipodi:nodetypes="ccccccccccccccccccccccccccccccccccccccccccccccccccccccccccccccccccccccccccccccccccccccccccccccccccccccccccccccccccccccccccccccccccc" />
      <path
         style="fill:#cccccc;fill-opacity:1;stroke:none;stroke-width:0.4;stroke-miterlimit:3.6;stroke-dasharray:none;stroke-dashoffset:0"
         d="m 39.896271,78.171015 c -2.538798,-1.406632 -4.607089,-2.584559 -4.607089,-2.584559 l 1.457307,-2.185936 2.267842,-1.642893 c 0,0 4.646749,-2.392628 7.367631,-3.127733 1.102395,-0.297836 8.649147,-1.485323 8.649147,-1.485323 l 9.446988,0.04205 37.274063,3.061157 31.53686,3.331243 32.84729,3.968643 21.09948,3.278101 10.00687,2.047389 -0.41841,2.35967 -1.67897,1.020184 -3.43732,-0.462348 -27.30924,-3.22496 -33.9307,-3.876814 -26.21137,-2.676031 -37.395821,-3.430809 c 0,0 -9.331798,-0.17154 -9.640572,-0.17154 -0.308771,0 -6.106839,0.308773 -6.106839,0.308773 l -4.082662,0.72047 -2.641723,1.303707 z"
         id="path55"
         sodipodi:nodetypes="ccccsccccccccccccccscccc" />
      <path
         style="fill:none;fill-opacity:1;stroke:#808080;stroke-width:0.706;stroke-miterlimit:3.6;stroke-dasharray:none;stroke-dashoffset:0"
         d="m 40.870443,77.719687 c 0.316279,-0.441933 2.655568,-2.509053 4.92799,-3.475564 2.909184,-1.276903 5.97709,-1.600177 8.982554,-1.818012 4.118551,-0.132952 7.777106,0.07909 11.514724,0.23184 l 10.587366,0.772801 15.224164,1.46832 39.335539,3.864002 62.35373,7.64009 c 0.61729,0.08654 1.62781,0.136466 2.0948,-0.253837 0.58147,-0.225686 0.64048,-0.67641 0.91886,-1.02084 0.22234,-0.667175 0.33102,-0.928606 0.39791,-1.627371"
         id="path51"
         sodipodi:nodetypes="ccccccccccc" />
    </g>
    <g
       id="bridles"
       inkscape:label="bridles"
       style="display:none;fill:none;stroke:#333333;stroke-width:0.4;stroke-dasharray:none">
      <path
         style="fill:none;fill-opacity:1;stroke:#333333;stroke-width:0.4;stroke-miterlimit:3.6;stroke-dasharray:none;stroke-dashoffset:0"
         d="m 32.538957,87.53779 3.664274,6.93982 5.541442,-7.293886"
         id="path41"
         sodipodi:nodetypes="ccc" />
      <path
         style="fill:none;fill-opacity:1;stroke:#333333;stroke-width:0.4;stroke-miterlimit:3.6;stroke-dasharray:none;stroke-dashoffset:0"
         d="m 54.672471,74.418085 9.943125,14.07317 14.78527,-12.756829"
         id="path42"
         sodipodi:nodetypes="ccc" />
      <path
         style="fill:none;fill-opacity:1;stroke:#333333;stroke-width:0.4;stroke-miterlimit:3.6;stroke-dasharray:none;stroke-dashoffset:0"
         d="M 36.225566,94.420369 41.916354,105.58469 64.604137,88.501655"
         id="path45"
         sodipodi:nodetypes="ccc" />
      <path
         style="fill:none;fill-opacity:1;stroke:#333333;stroke-width:0.4;stroke-miterlimit:3.6;stroke-dasharray:none;stroke-dashoffset:0"
         d="m 183.47237,87.911986 -2.03142,17.267094"
         id="path46"
         sodipodi:nodetypes="cc" />
    </g>
    <g
       id="chordline">
      <path
         style="fill:#ff0000;fill-opacity:1;stroke:#1a1a1a;stroke-width:0.750094;stroke-miterlimit:3.6;stroke-dasharray:none;stroke-dashoffset:0;marker-end:url(#Triangle-6)"
         d="M 32.664786,87.510898 V 84.117815"
         id="path40"
         sodipodi:nodetypes="cc" />
      <path
         style="fill:#ff0000;fill-opacity:1;stroke:#1a1a1a;stroke-width:0.750094;stroke-miterlimit:3.6;stroke-dasharray:none;stroke-dashoffset:0;marker-end:url(#Triangle-6)"
         d="M 41.687469,87.613225 V 84.107412"
         id="path40-8"
         sodipodi:nodetypes="cc" />
      <path
         style="fill:#ff0000;fill-opacity:1;stroke:#1a1a1a;stroke-width:0.750094;stroke-miterlimit:3.6;stroke-dasharray:none;stroke-dashoffset:0;marker-end:url(#Triangle-6)"
         d="m 54.584967,73.733303 v 7.27458"
         id="path40-5"
         sodipodi:nodetypes="cc" />
      <path
         style="fill:#ff0000;fill-opacity:1;stroke:#1a1a1a;stroke-width:0.750094;stroke-miterlimit:3.6;stroke-dasharray:none;stroke-dashoffset:0;marker-end:url(#Triangle-6)"
         d="m 79.552367,74.54647 v 6.473532"
         id="path40-2"
         sodipodi:nodetypes="cc" />
      <path
         d="M 188.57626,85.94459 V 84.097999"
         style="fill:#ff0000;fill-opacity:1;stroke:#1a1a1a;stroke-width:0.750094;stroke-miterlimit:3.6;stroke-dasharray:none;stroke-dashoffset:0;marker-end:url(#Triangle-6)"
         id="path1"
         sodipodi:nodetypes="cc" />
      <path
         style="fill:#666666;fill-opacity:0.298039;stroke:#1a1a1a;stroke-width:0.750094;stroke-dasharray:1.50019, 0.750094;stroke-dashoffset:0"
         d="M 30.27782,82.562673 H 197.36563 Z"
         id="path29"
         sodipodi:nodetypes="ccc" />
      <circle
         style="fill:#ff0000;fill-opacity:1;stroke:#1a1a1a;stroke-width:0.187312;stroke-dasharray:none"
         id="path30"
         cx="32.670692"
         cy="87.1884"
         r="1.1010722" />
      <circle
         style="fill:#1a1a1a;fill-opacity:1;stroke:#1a1a1a;stroke-width:0.187312;stroke-dasharray:none"
         id="path30-5"
         cx="30.724592"
         cy="82.493172"
         r="1.1010722" />
      <circle
         style="fill:#1a1a1a;fill-opacity:1;stroke:#1a1a1a;stroke-width:0.187312;stroke-dasharray:none"
         id="path30-5-9"
         cx="197.32503"
         cy="82.627304"
         r="1.1010722" />
      <circle
         style="fill:#ff0000;fill-opacity:1;stroke:#1a1a1a;stroke-width:0.187312;stroke-dasharray:none"
         id="path30-4"
         cx="41.694813"
         cy="87.1996"
         r="1.1010722" />
      <circle
         style="fill:#ff0000;fill-opacity:1;stroke:#1a1a1a;stroke-width:0.187312;stroke-dasharray:none"
         id="path30-7"
         cx="54.567108"
         cy="72.664894"
         r="1.1010722" />
      <circle
         style="fill:#ff0000;fill-opacity:1;stroke:#1a1a1a;stroke-width:0.187312;stroke-dasharray:none"
         id="path30-78"
         cx="79.576065"
         cy="74.108086"
         r="1.1010722" />
      <circle
         style="fill:#ff0000;fill-opacity:1;stroke:#1a1a1a;stroke-width:0.187312;stroke-dasharray:none"
         id="path30-3"
         cx="188.60818"
         cy="85.927017"
         r="1.1010722"
         inkscape:label="path30-3" />
    </g>
    <text
       id="text29-9"
       xml:space="preserve"
       style="font-size:3.52778px;display:inline;stroke-width:0.352778"
       x="153.90834"
       y="63.830475"><tspan
         style="font-style:normal;font-variant:normal;font-weight:normal;font-stretch:normal;font-size:3.52778px;font-family:'DejaVu Sans';-inkscape-font-specification:'DejaVu Sans'"
         id="tspan57">Bridle attachment point</tspan></text>
    <circle
       style="fill:#ff0000;fill-opacity:1;stroke:#1a1a1a;stroke-width:0.187312;stroke-dasharray:none"
       id="path30-78-0"
       cx="151.37486"
       cy="62.228798"
       r="1.1010722" />
    <text
       id="text29-9-4"
       xml:space="preserve"
       style="font-size:3.52778px;display:inline;stroke-width:0.352778"
       x="154.0946"
       y="67.9291"><tspan
         style="font-style:normal;font-variant:normal;font-weight:normal;font-stretch:normal;font-family:'DejaVu Sans';-inkscape-font-specification:'DejaVu Sans'"
         id="tspan58">Chord line</tspan></text>
    <text
       id="text29-9-4-7"
       xml:space="preserve"
       style="font-size:3.52778px;display:inline;stroke-width:0.352778"
       x="154.09244"
       y="72.276955"><tspan
         style="font-style:normal;font-variant:normal;font-weight:normal;font-stretch:normal;font-family:'DejaVu Sans';-inkscape-font-specification:'DejaVu Sans'"
         id="tspan58-7">Projection onto chord</tspan></text>
    <path
       style="fill:#666666;fill-opacity:0.298039;stroke:#1a1a1a;stroke-width:0.750094;stroke-dasharray:1.50019, 0.750094;stroke-dashoffset:0"
       d="m 149.45739,66.893089 h 4.1385 z"
       id="path29-1"
       sodipodi:nodetypes="ccc" />
    <path
       style="fill:#ff0000;fill-opacity:1;stroke:#1a1a1a;stroke-width:0.750094;stroke-miterlimit:3.6;stroke-dasharray:none;stroke-dashoffset:0;marker-end:url(#Triangle-6-3)"
       d="m 149.37227,71.048765 2.73187,0.01386"
       id="path40-2-4"
       sodipodi:nodetypes="cc" />
  </g>
</svg>
