<?xml version="1.0" encoding="utf-8" standalone="no"?>
<!DOCTYPE svg PUBLIC "-//W3C//DTD SVG 1.1//EN"
  "http://www.w3.org/Graphics/SVG/1.1/DTD/svg11.dtd">
<svg xmlns:xlink="http://www.w3.org/1999/xlink" width="1382.4pt" height="709.2pt" viewBox="0 0 1382.4 709.2" xmlns="http://www.w3.org/2000/svg" version="1.1">
 <metadata>
  <rdf:RDF xmlns:dc="http://purl.org/dc/elements/1.1/" xmlns:cc="http://creativecommons.org/ns#" xmlns:rdf="http://www.w3.org/1999/02/22-rdf-syntax-ns#">
   <cc:Work>
    <dc:type rdf:resource="http://purl.org/dc/dcmitype/StillImage"/>
    <dc:date>2026-01-23T12:40:03.063546</dc:date>
    <dc:format>image/svg+xml</dc:format>
    <dc:creator>
     <cc:Agent>
      <dc:title>Matplotlib v3.10.7, https://matplotlib.org/</dc:title>
     </cc:Agent>
    </dc:creator>
   </cc:Work>
  </rdf:RDF>
 </metadata>
 <defs>
  <style type="text/css">*{stroke-linejoin: round; stroke-linecap: butt}</style>
 </defs>
 <g id="figure_1">
  <g id="patch_1">
   <path d="M 0 709.2 
L 1382.4 709.2 
L 1382.4 0 
L 0 0 
z
" style="fill: #ffffff"/>
  </g>
  <g id="patch_2">
   <path d="M 435.438 631.188 
L 981.522 631.188 
L 981.522 85.104 
L 435.438 85.104 
z
" style="fill: #ffffff"/>
  </g>
  <g id="pane3d_1">
   <g id="patch_3">
    <path d="M 939.233301 498.727464 
L 714.601994 405.031939 
L 717.199947 122.73764 
L 951.923097 199.994184 
" style="fill: #f2f2f2; opacity: 0.5; stroke: #f2f2f2; stroke-linejoin: miter"/>
   </g>
  </g>
  <g id="pane3d_2">
   <g id="patch_4">
    <path d="M 489.649614 495.245305 
L 714.601994 405.031939 
L 717.199947 122.73764 
L 482.516435 196.201932 
" style="fill: #e6e6e6; opacity: 0.5; stroke: #e6e6e6; stroke-linejoin: miter"/>
   </g>
  </g>
  <g id="pane3d_3">
   <g id="patch_5">
    <path d="M 714.377993 602.79648 
L 939.233301 498.727464 
L 714.601994 405.031939 
L 489.649614 495.245305 
" style="fill: #ececec; opacity: 0.5; stroke: #ececec; stroke-linejoin: miter"/>
   </g>
  </g>
  <g id="grid3d_1">
   <g id="Line3DCollection_1">
    <path d="M 732.262673 594.518974 
L 507.461153 488.102286 
L 501.148054 190.369572 
" style="fill: none; stroke: #b0b0b0; stroke-width: 0.8"/>
    <path d="M 773.655546 575.361252 
L 548.738155 471.54884 
L 544.292687 176.863766 
" style="fill: none; stroke: #b0b0b0; stroke-width: 0.8"/>
    <path d="M 813.985029 556.695695 
L 589.026635 455.391823 
L 586.359879 163.695238 
" style="fill: none; stroke: #b0b0b0; stroke-width: 0.8"/>
    <path d="M 853.291581 538.503578 
L 628.361686 439.617163 
L 627.389493 150.851508 
" style="fill: none; stroke: #b0b0b0; stroke-width: 0.8"/>
    <path d="M 891.613633 520.767113 
L 666.776755 424.211446 
L 667.419448 138.320708 
" style="fill: none; stroke: #b0b0b0; stroke-width: 0.8"/>
    <path d="M 928.987715 503.469394 
L 704.303745 409.161878 
L 706.485839 126.091537 
" style="fill: none; stroke: #b0b0b0; stroke-width: 0.8"/>
   </g>
  </g>
  <g id="grid3d_2">
   <g id="Line3DCollection_2">
    <path d="M 914.734434 187.753944 
L 903.729478 483.918534 
L 678.711446 585.727078 
" style="fill: none; stroke: #b0b0b0; stroke-width: 0.8"/>
    <path d="M 872.059119 173.707834 
L 862.947787 466.908163 
L 637.811348 566.152987 
" style="fill: none; stroke: #b0b0b0; stroke-width: 0.8"/>
    <path d="M 830.43604 160.008055 
L 823.130617 450.300101 
L 597.949058 547.075574 
" style="fill: none; stroke: #b0b0b0; stroke-width: 0.8"/>
    <path d="M 789.826755 146.641955 
L 784.24415 434.080242 
L 559.085573 528.476172 
" style="fill: none; stroke: #b0b0b0; stroke-width: 0.8"/>
    <path d="M 750.194669 133.59749 
L 746.256131 418.235134 
L 521.183816 510.337037 
" style="fill: none; stroke: #b0b0b0; stroke-width: 0.8"/>
   </g>
  </g>
  <g id="grid3d_3">
   <g id="Line3DCollection_3">
    <path d="M 489.512861 489.512246 
L 714.651942 399.6046 
L 939.476586 493.000226 
" style="fill: none; stroke: #b0b0b0; stroke-width: 0.8"/>
    <path d="M 488.303845 438.826813 
L 715.093284 351.648225 
L 941.627442 442.366464 
" style="fill: none; stroke: #b0b0b0; stroke-width: 0.8"/>
    <path d="M 487.076632 387.378502 
L 715.540826 303.018179 
L 943.810654 390.97099 
" style="fill: none; stroke: #b0b0b0; stroke-width: 0.8"/>
    <path d="M 485.830808 335.14996 
L 715.9947 253.700164 
L 946.026958 338.796486 
" style="fill: none; stroke: #b0b0b0; stroke-width: 0.8"/>
    <path d="M 484.565945 282.123301 
L 716.45504 203.679479 
L 948.277112 285.825104 
" style="fill: none; stroke: #b0b0b0; stroke-width: 0.8"/>
    <path d="M 483.281606 228.28009 
L 716.921986 152.940997 
L 950.561899 232.038447 
" style="fill: none; stroke: #b0b0b0; stroke-width: 0.8"/>
   </g>
  </g>
  <g id="axis3d_1">
   <g id="line2d_1">
    <path d="M 939.233301 498.727464 
L 714.377993 602.79648 
" style="fill: none; stroke: #000000; stroke-width: 0.8; stroke-linecap: square"/>
   </g>
   <g id="xtick_1">
    <g id="line2d_2">
     <path d="M 730.331171 593.604639 
L 736.132605 596.350925 
" style="fill: none; stroke: #000000; stroke-width: 0.8; stroke-linecap: square"/>
    </g>
    <g id="text_1">
     <!-- −4 -->
     <g transform="translate(734.523325 618.960415) scale(0.1 -0.1)">
      <defs>
       <path id="DejaVuSans-2212" d="M 678 2272 
L 4684 2272 
L 4684 1741 
L 678 1741 
L 678 2272 
z
" transform="scale(0.015625)"/>
       <path id="DejaVuSans-34" d="M 2419 4116 
L 825 1625 
L 2419 1625 
L 2419 4116 
z
M 2253 4666 
L 3047 4666 
L 3047 1625 
L 3713 1625 
L 3713 1100 
L 3047 1100 
L 3047 0 
L 2419 0 
L 2419 1100 
L 313 1100 
L 313 1709 
L 2253 4666 
z
" transform="scale(0.015625)"/>
      </defs>
      <use xlink:href="#DejaVuSans-2212"/>
      <use xlink:href="#DejaVuSans-34" transform="translate(83.789062 0)"/>
     </g>
    </g>
   </g>
   <g id="xtick_2">
    <g id="line2d_3">
     <path d="M 771.72478 574.470092 
L 777.523913 577.146728 
" style="fill: none; stroke: #000000; stroke-width: 0.8; stroke-linecap: square"/>
    </g>
    <g id="text_2">
     <!-- −2 -->
     <g transform="translate(775.839482 599.560701) scale(0.1 -0.1)">
      <defs>
       <path id="DejaVuSans-32" d="M 1228 531 
L 3431 531 
L 3431 0 
L 469 0 
L 469 531 
Q 828 903 1448 1529 
Q 2069 2156 2228 2338 
Q 2531 2678 2651 2914 
Q 2772 3150 2772 3378 
Q 2772 3750 2511 3984 
Q 2250 4219 1831 4219 
Q 1534 4219 1204 4116 
Q 875 4013 500 3803 
L 500 4441 
Q 881 4594 1212 4672 
Q 1544 4750 1819 4750 
Q 2544 4750 2975 4387 
Q 3406 4025 3406 3419 
Q 3406 3131 3298 2873 
Q 3191 2616 2906 2266 
Q 2828 2175 2409 1742 
Q 1991 1309 1228 531 
z
" transform="scale(0.015625)"/>
      </defs>
      <use xlink:href="#DejaVuSans-2212"/>
      <use xlink:href="#DejaVuSans-32" transform="translate(83.789062 0)"/>
     </g>
    </g>
   </g>
   <g id="xtick_3">
    <g id="line2d_4">
     <path d="M 812.055599 555.826829 
L 817.850632 558.436464 
" style="fill: none; stroke: #000000; stroke-width: 0.8; stroke-linecap: square"/>
    </g>
    <g id="text_3">
     <!-- 0 -->
     <g transform="translate(820.28283 580.659949) scale(0.1 -0.1)">
      <defs>
       <path id="DejaVuSans-30" d="M 2034 4250 
Q 1547 4250 1301 3770 
Q 1056 3291 1056 2328 
Q 1056 1369 1301 889 
Q 1547 409 2034 409 
Q 2525 409 2770 889 
Q 3016 1369 3016 2328 
Q 3016 3291 2770 3770 
Q 2525 4250 2034 4250 
z
M 2034 4750 
Q 2819 4750 3233 4129 
Q 3647 3509 3647 2328 
Q 3647 1150 3233 529 
Q 2819 -91 2034 -91 
Q 1250 -91 836 529 
Q 422 1150 422 2328 
Q 422 3509 836 4129 
Q 1250 4750 2034 4750 
z
" transform="scale(0.015625)"/>
      </defs>
      <use xlink:href="#DejaVuSans-30"/>
     </g>
    </g>
   </g>
   <g id="xtick_4">
    <g id="line2d_5">
     <path d="M 851.36404 537.656169 
L 857.153314 540.20132 
" style="fill: none; stroke: #000000; stroke-width: 0.8; stroke-linecap: square"/>
    </g>
    <g id="text_4">
     <!-- 2 -->
     <g transform="translate(859.514157 562.239152) scale(0.1 -0.1)">
      <use xlink:href="#DejaVuSans-32"/>
     </g>
    </g>
   </g>
   <g id="xtick_5">
    <g id="line2d_6">
     <path d="M 889.688491 519.940366 
L 895.470475 522.423425 
" style="fill: none; stroke: #000000; stroke-width: 0.8; stroke-linecap: square"/>
    </g>
    <g id="text_5">
     <!-- 4 -->
     <g transform="translate(897.761755 544.280259) scale(0.1 -0.1)">
      <use xlink:href="#DejaVuSans-34"/>
     </g>
    </g>
   </g>
   <g id="xtick_6">
    <g id="line2d_7">
     <path d="M 927.065445 502.662552 
L 932.838724 505.085793 
" style="fill: none; stroke: #000000; stroke-width: 0.8; stroke-linecap: square"/>
    </g>
    <g id="text_6">
     <!-- 6 -->
     <g transform="translate(935.062166 526.766111) scale(0.1 -0.1)">
      <defs>
       <path id="DejaVuSans-36" d="M 2113 2584 
Q 1688 2584 1439 2293 
Q 1191 2003 1191 1497 
Q 1191 994 1439 701 
Q 1688 409 2113 409 
Q 2538 409 2786 701 
Q 3034 994 3034 1497 
Q 3034 2003 2786 2293 
Q 2538 2584 2113 2584 
z
M 3366 4563 
L 3366 3988 
Q 3128 4100 2886 4159 
Q 2644 4219 2406 4219 
Q 1781 4219 1451 3797 
Q 1122 3375 1075 2522 
Q 1259 2794 1537 2939 
Q 1816 3084 2150 3084 
Q 2853 3084 3261 2657 
Q 3669 2231 3669 1497 
Q 3669 778 3244 343 
Q 2819 -91 2113 -91 
Q 1303 -91 875 529 
Q 447 1150 447 2328 
Q 447 3434 972 4092 
Q 1497 4750 2381 4750 
Q 2619 4750 2861 4703 
Q 3103 4656 3366 4563 
z
" transform="scale(0.015625)"/>
      </defs>
      <use xlink:href="#DejaVuSans-36"/>
     </g>
    </g>
   </g>
   <g id="text_7">
    <!-- x (m) -->
    <g transform="translate(840.53596 592.377446) rotate(-24.835954) scale(0.1 -0.1)">
     <defs>
      <path id="DejaVuSans-78" d="M 3513 3500 
L 2247 1797 
L 3578 0 
L 2900 0 
L 1881 1375 
L 863 0 
L 184 0 
L 1544 1831 
L 300 3500 
L 978 3500 
L 1906 2253 
L 2834 3500 
L 3513 3500 
z
" transform="scale(0.015625)"/>
      <path id="DejaVuSans-20" transform="scale(0.015625)"/>
      <path id="DejaVuSans-28" d="M 1984 4856 
Q 1566 4138 1362 3434 
Q 1159 2731 1159 2009 
Q 1159 1288 1364 580 
Q 1569 -128 1984 -844 
L 1484 -844 
Q 1016 -109 783 600 
Q 550 1309 550 2009 
Q 550 2706 781 3412 
Q 1013 4119 1484 4856 
L 1984 4856 
z
" transform="scale(0.015625)"/>
      <path id="DejaVuSans-6d" d="M 3328 2828 
Q 3544 3216 3844 3400 
Q 4144 3584 4550 3584 
Q 5097 3584 5394 3201 
Q 5691 2819 5691 2113 
L 5691 0 
L 5113 0 
L 5113 2094 
Q 5113 2597 4934 2840 
Q 4756 3084 4391 3084 
Q 3944 3084 3684 2787 
Q 3425 2491 3425 1978 
L 3425 0 
L 2847 0 
L 2847 2094 
Q 2847 2600 2669 2842 
Q 2491 3084 2119 3084 
Q 1678 3084 1418 2786 
Q 1159 2488 1159 1978 
L 1159 0 
L 581 0 
L 581 3500 
L 1159 3500 
L 1159 2956 
Q 1356 3278 1631 3431 
Q 1906 3584 2284 3584 
Q 2666 3584 2933 3390 
Q 3200 3197 3328 2828 
z
" transform="scale(0.015625)"/>
      <path id="DejaVuSans-29" d="M 513 4856 
L 1013 4856 
Q 1481 4119 1714 3412 
Q 1947 2706 1947 2009 
Q 1947 1309 1714 600 
Q 1481 -109 1013 -844 
L 513 -844 
Q 928 -128 1133 580 
Q 1338 1288 1338 2009 
Q 1338 2731 1133 3434 
Q 928 4138 513 4856 
z
" transform="scale(0.015625)"/>
     </defs>
     <use xlink:href="#DejaVuSans-78"/>
     <use xlink:href="#DejaVuSans-20" transform="translate(59.179688 0)"/>
     <use xlink:href="#DejaVuSans-28" transform="translate(90.966797 0)"/>
     <use xlink:href="#DejaVuSans-6d" transform="translate(129.980469 0)"/>
     <use xlink:href="#DejaVuSans-29" transform="translate(227.392578 0)"/>
    </g>
   </g>
  </g>
  <g id="axis3d_2">
   <g id="line2d_8">
    <path d="M 489.649614 495.245305 
L 714.377993 602.79648 
" style="fill: none; stroke: #000000; stroke-width: 0.8; stroke-linecap: square"/>
   </g>
   <g id="xtick_7">
    <g id="line2d_9">
     <path d="M 680.645024 584.852238 
L 674.837342 587.479901 
" style="fill: none; stroke: #000000; stroke-width: 0.8; stroke-linecap: square"/>
    </g>
    <g id="text_8">
     <!-- −4 -->
     <g transform="translate(661.50036 609.917342) scale(0.1 -0.1)">
      <use xlink:href="#DejaVuSans-2212"/>
      <use xlink:href="#DejaVuSans-34" transform="translate(83.789062 0)"/>
     </g>
    </g>
   </g>
   <g id="xtick_8">
    <g id="line2d_10">
     <path d="M 639.744229 565.300933 
L 633.938729 567.860118 
" style="fill: none; stroke: #000000; stroke-width: 0.8; stroke-linecap: square"/>
    </g>
    <g id="text_9">
     <!-- −2 -->
     <g transform="translate(620.678062 590.106436) scale(0.1 -0.1)">
      <use xlink:href="#DejaVuSans-2212"/>
      <use xlink:href="#DejaVuSans-32" transform="translate(83.789062 0)"/>
     </g>
    </g>
   </g>
   <g id="xtick_9">
    <g id="line2d_11">
     <path d="M 599.880656 546.245439 
L 594.0791 548.738753 
" style="fill: none; stroke: #000000; stroke-width: 0.8; stroke-linecap: square"/>
    </g>
    <g id="text_10">
     <!-- 0 -->
     <g transform="translate(585.082662 570.798809) scale(0.1 -0.1)">
      <use xlink:href="#DejaVuSans-30"/>
     </g>
    </g>
   </g>
   <g id="xtick_10">
    <g id="line2d_12">
     <path d="M 561.015343 527.667131 
L 555.219358 530.097051 
" style="fill: none; stroke: #000000; stroke-width: 0.8; stroke-linecap: square"/>
    </g>
    <g id="text_11">
     <!-- 2 -->
     <g transform="translate(546.295452 551.975524) scale(0.1 -0.1)">
      <use xlink:href="#DejaVuSans-32"/>
     </g>
    </g>
   </g>
   <g id="xtick_11">
    <g id="line2d_13">
     <path d="M 523.111259 509.548307 
L 517.322348 511.917189 
" style="fill: none; stroke: #000000; stroke-width: 0.8; stroke-linecap: square"/>
    </g>
    <g id="text_12">
     <!-- 4 -->
     <g transform="translate(508.469184 533.618581) scale(0.1 -0.1)">
      <use xlink:href="#DejaVuSans-34"/>
     </g>
    </g>
   </g>
   <g id="text_13">
    <!-- y (m) -->
    <g transform="translate(563.658836 578.916763) rotate(-334.425017) scale(0.1 -0.1)">
     <defs>
      <path id="DejaVuSans-79" d="M 2059 -325 
Q 1816 -950 1584 -1140 
Q 1353 -1331 966 -1331 
L 506 -1331 
L 506 -850 
L 844 -850 
Q 1081 -850 1212 -737 
Q 1344 -625 1503 -206 
L 1606 56 
L 191 3500 
L 800 3500 
L 1894 763 
L 2988 3500 
L 3597 3500 
L 2059 -325 
z
" transform="scale(0.015625)"/>
     </defs>
     <use xlink:href="#DejaVuSans-79"/>
     <use xlink:href="#DejaVuSans-20" transform="translate(59.179688 0)"/>
     <use xlink:href="#DejaVuSans-28" transform="translate(90.966797 0)"/>
     <use xlink:href="#DejaVuSans-6d" transform="translate(129.980469 0)"/>
     <use xlink:href="#DejaVuSans-29" transform="translate(227.392578 0)"/>
    </g>
   </g>
  </g>
  <g id="axis3d_3">
   <g id="line2d_14">
    <path d="M 489.649614 495.245305 
L 482.516435 196.201932 
" style="fill: none; stroke: #000000; stroke-width: 0.8; stroke-linecap: square"/>
   </g>
   <g id="xtick_12">
    <g id="line2d_15">
     <path d="M 491.43966 488.742793 
L 485.652747 491.053754 
" style="fill: none; stroke: #000000; stroke-width: 0.8; stroke-linecap: square"/>
    </g>
    <g id="text_14">
     <!-- 0 -->
     <g transform="translate(468.128569 496.969579) scale(0.1 -0.1)">
      <use xlink:href="#DejaVuSans-30"/>
     </g>
    </g>
   </g>
   <g id="xtick_13">
    <g id="line2d_16">
     <path d="M 490.245713 438.080353 
L 484.413492 440.322277 
" style="fill: none; stroke: #000000; stroke-width: 0.8; stroke-linecap: square"/>
    </g>
    <g id="text_15">
     <!-- 2 -->
     <g transform="translate(466.783559 446.282055) scale(0.1 -0.1)">
      <use xlink:href="#DejaVuSans-32"/>
     </g>
    </g>
   </g>
   <g id="xtick_14">
    <g id="line2d_17">
     <path d="M 489.033806 386.655816 
L 483.155563 388.826355 
" style="fill: none; stroke: #000000; stroke-width: 0.8; stroke-linecap: square"/>
    </g>
    <g id="text_16">
     <!-- 4 -->
     <g transform="translate(465.418305 394.831606) scale(0.1 -0.1)">
      <use xlink:href="#DejaVuSans-34"/>
     </g>
    </g>
   </g>
   <g id="xtick_15">
    <g id="line2d_18">
     <path d="M 487.803531 334.451857 
L 481.878536 336.548579 
" style="fill: none; stroke: #000000; stroke-width: 0.8; stroke-linecap: square"/>
    </g>
    <g id="text_17">
     <!-- 6 -->
     <g transform="translate(464.032347 342.600877) scale(0.1 -0.1)">
      <use xlink:href="#DejaVuSans-36"/>
     </g>
    </g>
   </g>
   <g id="xtick_16">
    <g id="line2d_19">
     <path d="M 486.554467 281.45062 
L 480.581971 283.471006 
" style="fill: none; stroke: #000000; stroke-width: 0.8; stroke-linecap: square"/>
    </g>
    <g id="text_18">
     <!-- 8 -->
     <g transform="translate(462.625208 289.571981) scale(0.1 -0.1)">
      <defs>
       <path id="DejaVuSans-38" d="M 2034 2216 
Q 1584 2216 1326 1975 
Q 1069 1734 1069 1313 
Q 1069 891 1326 650 
Q 1584 409 2034 409 
Q 2484 409 2743 651 
Q 3003 894 3003 1313 
Q 3003 1734 2745 1975 
Q 2488 2216 2034 2216 
z
M 1403 2484 
Q 997 2584 770 2862 
Q 544 3141 544 3541 
Q 544 4100 942 4425 
Q 1341 4750 2034 4750 
Q 2731 4750 3128 4425 
Q 3525 4100 3525 3541 
Q 3525 3141 3298 2862 
Q 3072 2584 2669 2484 
Q 3125 2378 3379 2068 
Q 3634 1759 3634 1313 
Q 3634 634 3220 271 
Q 2806 -91 2034 -91 
Q 1263 -91 848 271 
Q 434 634 434 1313 
Q 434 1759 690 2068 
Q 947 2378 1403 2484 
z
M 1172 3481 
Q 1172 3119 1398 2916 
Q 1625 2713 2034 2713 
Q 2441 2713 2670 2916 
Q 2900 3119 2900 3481 
Q 2900 3844 2670 4047 
Q 2441 4250 2034 4250 
Q 1625 4250 1398 4047 
Q 1172 3844 1172 3481 
z
" transform="scale(0.015625)"/>
      </defs>
      <use xlink:href="#DejaVuSans-38"/>
     </g>
    </g>
   </g>
   <g id="xtick_17">
    <g id="line2d_20">
     <path d="M 485.286179 227.633701 
L 479.265418 229.57514 
" style="fill: none; stroke: #000000; stroke-width: 0.8; stroke-linecap: square"/>
    </g>
    <g id="text_19">
     <!-- 10 -->
     <g transform="translate(458.015151 235.726483) scale(0.1 -0.1)">
      <defs>
       <path id="DejaVuSans-31" d="M 794 531 
L 1825 531 
L 1825 4091 
L 703 3866 
L 703 4441 
L 1819 4666 
L 2450 4666 
L 2450 531 
L 3481 531 
L 3481 0 
L 794 0 
L 794 531 
z
" transform="scale(0.015625)"/>
      </defs>
      <use xlink:href="#DejaVuSans-31"/>
      <use xlink:href="#DejaVuSans-30" transform="translate(63.623047 0)"/>
     </g>
    </g>
   </g>
   <g id="text_20">
    <!-- z (m) -->
    <g transform="translate(442.699053 335.71481) rotate(-271.366436) scale(0.1 -0.1)">
     <defs>
      <path id="DejaVuSans-7a" d="M 353 3500 
L 3084 3500 
L 3084 2975 
L 922 459 
L 3084 459 
L 3084 0 
L 275 0 
L 275 525 
L 2438 3041 
L 353 3041 
L 353 3500 
z
" transform="scale(0.015625)"/>
     </defs>
     <use xlink:href="#DejaVuSans-7a"/>
     <use xlink:href="#DejaVuSans-20" transform="translate(52.490234 0)"/>
     <use xlink:href="#DejaVuSans-28" transform="translate(84.277344 0)"/>
     <use xlink:href="#DejaVuSans-6d" transform="translate(123.291016 0)"/>
     <use xlink:href="#DejaVuSans-29" transform="translate(220.703125 0)"/>
    </g>
   </g>
  </g>
  <g id="axes_1">
   <g id="line2d_21">
    <path d="M 634.346123 267.707897 
L 619.590024 247.076129 
" clip-path="url(#p52ae619f88)" style="fill: none; stroke: #ff0000; stroke-linecap: square"/>
   </g>
   <g id="line2d_22">
    <path d="M 619.590024 247.076129 
L 655.013829 235.282123 
" clip-path="url(#p52ae619f88)" style="fill: none; stroke: #ff0000; stroke-linecap: square"/>
   </g>
   <g id="line2d_23">
    <path d="M 655.013829 235.282123 
L 648.623632 267.303773 
" clip-path="url(#p52ae619f88)" style="fill: none; stroke: #0000ff; stroke-linecap: square"/>
   </g>
   <g id="line2d_24">
    <path d="M 648.623632 267.303773 
L 634.346123 267.707897 
" clip-path="url(#p52ae619f88)" style="fill: none; stroke: #ff0000; stroke-linecap: square"/>
   </g>
   <g id="line2d_25">
    <path d="M 634.346123 267.707897 
L 655.013829 235.282123 
" clip-path="url(#p52ae619f88)" style="fill: none; stroke: #0000ff; stroke-linecap: square"/>
   </g>
   <g id="line2d_26">
    <path d="M 619.590024 247.076129 
L 648.623632 267.303773 
" clip-path="url(#p52ae619f88)" style="fill: none; stroke: #0000ff; stroke-linecap: square"/>
   </g>
   <g id="line2d_27">
    <path d="M 619.590024 247.076129 
L 631.238949 219.655083 
" clip-path="url(#p52ae619f88)" style="fill: none; stroke: #ff0000; stroke-linecap: square"/>
   </g>
   <g id="line2d_28">
    <path d="M 631.238949 219.655083 
L 677.590288 205.178855 
" clip-path="url(#p52ae619f88)" style="fill: none; stroke: #ff0000; stroke-linecap: square"/>
   </g>
   <g id="line2d_29">
    <path d="M 677.590288 205.178855 
L 655.013829 235.282123 
" clip-path="url(#p52ae619f88)" style="fill: none; stroke: #0000ff; stroke-linecap: square"/>
   </g>
   <g id="line2d_30">
    <path d="M 655.013829 235.282123 
L 619.590024 247.076129 
" clip-path="url(#p52ae619f88)" style="fill: none; stroke: #ff0000; stroke-linecap: square"/>
   </g>
   <g id="line2d_31">
    <path d="M 619.590024 247.076129 
L 677.590288 205.178855 
" clip-path="url(#p52ae619f88)" style="fill: none; stroke: #0000ff; stroke-linecap: square"/>
   </g>
   <g id="line2d_32">
    <path d="M 631.238949 219.655083 
L 655.013829 235.282123 
" clip-path="url(#p52ae619f88)" style="fill: none; stroke: #0000ff; stroke-linecap: square"/>
   </g>
   <g id="line2d_33">
    <path d="M 631.238949 219.655083 
L 651.572034 207.925359 
" clip-path="url(#p52ae619f88)" style="fill: none; stroke: #ff0000; stroke-linecap: square"/>
   </g>
   <g id="line2d_34">
    <path d="M 651.572034 207.925359 
L 703.218562 192.21924 
" clip-path="url(#p52ae619f88)" style="fill: none; stroke: #ff0000; stroke-linecap: square"/>
   </g>
   <g id="line2d_35">
    <path d="M 703.218562 192.21924 
L 677.590288 205.178855 
" clip-path="url(#p52ae619f88)" style="fill: none; stroke: #0000ff; stroke-linecap: square"/>
   </g>
   <g id="line2d_36">
    <path d="M 677.590288 205.178855 
L 631.238949 219.655083 
" clip-path="url(#p52ae619f88)" style="fill: none; stroke: #ff0000; stroke-linecap: square"/>
   </g>
   <g id="line2d_37">
    <path d="M 631.238949 219.655083 
L 703.218562 192.21924 
" clip-path="url(#p52ae619f88)" style="fill: none; stroke: #0000ff; stroke-linecap: square"/>
   </g>
   <g id="line2d_38">
    <path d="M 651.572034 207.925359 
L 677.590288 205.178855 
" clip-path="url(#p52ae619f88)" style="fill: none; stroke: #0000ff; stroke-linecap: square"/>
   </g>
   <g id="line2d_39">
    <path d="M 651.572034 207.925359 
L 676.350404 208.625772 
" clip-path="url(#p52ae619f88)" style="fill: none; stroke: #ff0000; stroke-linecap: square"/>
   </g>
   <g id="line2d_40">
    <path d="M 676.350404 208.625772 
L 730.377433 192.13445 
" clip-path="url(#p52ae619f88)" style="fill: none; stroke: #ff0000; stroke-linecap: square"/>
   </g>
   <g id="line2d_41">
    <path d="M 730.377433 192.13445 
L 703.218562 192.21924 
" clip-path="url(#p52ae619f88)" style="fill: none; stroke: #0000ff; stroke-linecap: square"/>
   </g>
   <g id="line2d_42">
    <path d="M 703.218562 192.21924 
L 651.572034 207.925359 
" clip-path="url(#p52ae619f88)" style="fill: none; stroke: #ff0000; stroke-linecap: square"/>
   </g>
   <g id="line2d_43">
    <path d="M 651.572034 207.925359 
L 730.377433 192.13445 
" clip-path="url(#p52ae619f88)" style="fill: none; stroke: #0000ff; stroke-linecap: square"/>
   </g>
   <g id="line2d_44">
    <path d="M 676.350404 208.625772 
L 703.218562 192.21924 
" clip-path="url(#p52ae619f88)" style="fill: none; stroke: #0000ff; stroke-linecap: square"/>
   </g>
   <g id="line2d_45">
    <path d="M 676.350404 208.625772 
L 703.786321 218.512884 
" clip-path="url(#p52ae619f88)" style="fill: none; stroke: #ff0000; stroke-linecap: square"/>
   </g>
   <g id="line2d_46">
    <path d="M 703.786321 218.512884 
L 757.657584 201.662129 
" clip-path="url(#p52ae619f88)" style="fill: none; stroke: #ff0000; stroke-linecap: square"/>
   </g>
   <g id="line2d_47">
    <path d="M 757.657584 201.662129 
L 730.377433 192.13445 
" clip-path="url(#p52ae619f88)" style="fill: none; stroke: #0000ff; stroke-linecap: square"/>
   </g>
   <g id="line2d_48">
    <path d="M 730.377433 192.13445 
L 676.350404 208.625772 
" clip-path="url(#p52ae619f88)" style="fill: none; stroke: #ff0000; stroke-linecap: square"/>
   </g>
   <g id="line2d_49">
    <path d="M 676.350404 208.625772 
L 757.657584 201.662129 
" clip-path="url(#p52ae619f88)" style="fill: none; stroke: #0000ff; stroke-linecap: square"/>
   </g>
   <g id="line2d_50">
    <path d="M 703.786321 218.512884 
L 730.377433 192.13445 
" clip-path="url(#p52ae619f88)" style="fill: none; stroke: #0000ff; stroke-linecap: square"/>
   </g>
   <g id="line2d_51">
    <path d="M 703.786321 218.512884 
L 732.41855 237.270927 
" clip-path="url(#p52ae619f88)" style="fill: none; stroke: #ff0000; stroke-linecap: square"/>
   </g>
   <g id="line2d_52">
    <path d="M 732.41855 237.270927 
L 783.496838 220.496217 
" clip-path="url(#p52ae619f88)" style="fill: none; stroke: #ff0000; stroke-linecap: square"/>
   </g>
   <g id="line2d_53">
    <path d="M 783.496838 220.496217 
L 757.657584 201.662129 
" clip-path="url(#p52ae619f88)" style="fill: none; stroke: #0000ff; stroke-linecap: square"/>
   </g>
   <g id="line2d_54">
    <path d="M 757.657584 201.662129 
L 703.786321 218.512884 
" clip-path="url(#p52ae619f88)" style="fill: none; stroke: #ff0000; stroke-linecap: square"/>
   </g>
   <g id="line2d_55">
    <path d="M 703.786321 218.512884 
L 783.496838 220.496217 
" clip-path="url(#p52ae619f88)" style="fill: none; stroke: #0000ff; stroke-linecap: square"/>
   </g>
   <g id="line2d_56">
    <path d="M 732.41855 237.270927 
L 757.657584 201.662129 
" clip-path="url(#p52ae619f88)" style="fill: none; stroke: #0000ff; stroke-linecap: square"/>
   </g>
   <g id="line2d_57">
    <path d="M 732.41855 237.270927 
L 760.173906 267.241596 
" clip-path="url(#p52ae619f88)" style="fill: none; stroke: #ff0000; stroke-linecap: square"/>
   </g>
   <g id="line2d_58">
    <path d="M 760.173906 267.241596 
L 805.770387 251.214395 
" clip-path="url(#p52ae619f88)" style="fill: none; stroke: #ff0000; stroke-linecap: square"/>
   </g>
   <g id="line2d_59">
    <path d="M 805.770387 251.214395 
L 783.496838 220.496217 
" clip-path="url(#p52ae619f88)" style="fill: none; stroke: #0000ff; stroke-linecap: square"/>
   </g>
   <g id="line2d_60">
    <path d="M 783.496838 220.496217 
L 732.41855 237.270927 
" clip-path="url(#p52ae619f88)" style="fill: none; stroke: #ff0000; stroke-linecap: square"/>
   </g>
   <g id="line2d_61">
    <path d="M 732.41855 237.270927 
L 805.770387 251.214395 
" clip-path="url(#p52ae619f88)" style="fill: none; stroke: #0000ff; stroke-linecap: square"/>
   </g>
   <g id="line2d_62">
    <path d="M 760.173906 267.241596 
L 783.496838 220.496217 
" clip-path="url(#p52ae619f88)" style="fill: none; stroke: #0000ff; stroke-linecap: square"/>
   </g>
   <g id="line2d_63">
    <path d="M 760.173906 267.241596 
L 782.016333 308.672805 
" clip-path="url(#p52ae619f88)" style="fill: none; stroke: #ff0000; stroke-linecap: square"/>
   </g>
   <g id="line2d_64">
    <path d="M 782.016333 308.672805 
L 816.910544 295.385119 
" clip-path="url(#p52ae619f88)" style="fill: none; stroke: #ff0000; stroke-linecap: square"/>
   </g>
   <g id="line2d_65">
    <path d="M 816.910544 295.385119 
L 805.770387 251.214395 
" clip-path="url(#p52ae619f88)" style="fill: none; stroke: #0000ff; stroke-linecap: square"/>
   </g>
   <g id="line2d_66">
    <path d="M 805.770387 251.214395 
L 760.173906 267.241596 
" clip-path="url(#p52ae619f88)" style="fill: none; stroke: #ff0000; stroke-linecap: square"/>
   </g>
   <g id="line2d_67">
    <path d="M 760.173906 267.241596 
L 816.910544 295.385119 
" clip-path="url(#p52ae619f88)" style="fill: none; stroke: #0000ff; stroke-linecap: square"/>
   </g>
   <g id="line2d_68">
    <path d="M 782.016333 308.672805 
L 805.770387 251.214395 
" clip-path="url(#p52ae619f88)" style="fill: none; stroke: #0000ff; stroke-linecap: square"/>
   </g>
   <g id="line2d_69">
    <path d="M 782.016333 308.672805 
L 803.098519 332.512064 
" clip-path="url(#p52ae619f88)" style="fill: none; stroke: #ff0000; stroke-linecap: square"/>
   </g>
   <g id="line2d_70">
    <path d="M 803.098519 332.512064 
L 816.184942 331.337662 
" clip-path="url(#p52ae619f88)" style="fill: none; stroke: #ff0000; stroke-linecap: square"/>
   </g>
   <g id="line2d_71">
    <path d="M 816.184942 331.337662 
L 816.910544 295.385119 
" clip-path="url(#p52ae619f88)" style="fill: none; stroke: #0000ff; stroke-linecap: square"/>
   </g>
   <g id="line2d_72">
    <path d="M 816.910544 295.385119 
L 782.016333 308.672805 
" clip-path="url(#p52ae619f88)" style="fill: none; stroke: #ff0000; stroke-linecap: square"/>
   </g>
   <g id="line2d_73">
    <path d="M 782.016333 308.672805 
L 816.184942 331.337662 
" clip-path="url(#p52ae619f88)" style="fill: none; stroke: #0000ff; stroke-linecap: square"/>
   </g>
   <g id="line2d_74">
    <path d="M 803.098519 332.512064 
L 816.910544 295.385119 
" clip-path="url(#p52ae619f88)" style="fill: none; stroke: #0000ff; stroke-linecap: square"/>
   </g>
   <g id="line2d_75">
    <path d="M 697.598426 498.512161 
L 701.335022 473.369016 
" clip-path="url(#p52ae619f88)" style="fill: none; stroke: #0000ff; stroke-linecap: square"/>
   </g>
   <g id="line2d_76">
    <path d="M 701.335022 473.369016 
L 706.316748 444.065362 
" clip-path="url(#p52ae619f88)" style="fill: none; stroke: #0000ff; stroke-linecap: square"/>
   </g>
   <g id="line2d_77">
    <path d="M 701.335022 473.369016 
L 697.350618 428.613895 
" clip-path="url(#p52ae619f88)" style="fill: none; stroke: #0000ff; stroke-linecap: square"/>
   </g>
   <g id="line2d_78">
    <path d="M 701.335022 473.369016 
L 717.87462 437.37193 
" clip-path="url(#p52ae619f88)" style="fill: none; stroke: #0000ff; stroke-linecap: square"/>
   </g>
   <g id="line2d_79">
    <path d="M 697.350618 428.613895 
L 648.623632 267.303773 
" clip-path="url(#p52ae619f88)" style="fill: none; stroke: #0000ff; stroke-linecap: square"/>
   </g>
   <g id="line2d_80">
    <path d="M 717.87462 437.37193 
L 816.184942 331.337662 
" clip-path="url(#p52ae619f88)" style="fill: none; stroke: #0000ff; stroke-linecap: square"/>
   </g>
   <g id="line2d_81">
    <path d="M 701.662398 363.547143 
L 674.059316 276.032756 
" clip-path="url(#p52ae619f88)" style="fill: none; stroke: #0000ff; stroke-linecap: square"/>
   </g>
   <g id="line2d_82">
    <path d="M 701.662398 363.547143 
L 703.116131 273.184544 
" clip-path="url(#p52ae619f88)" style="fill: none; stroke: #0000ff; stroke-linecap: square"/>
   </g>
   <g id="line2d_83">
    <path d="M 736.164752 377.549961 
L 784.410014 318.169076 
" clip-path="url(#p52ae619f88)" style="fill: none; stroke: #0000ff; stroke-linecap: square"/>
   </g>
   <g id="line2d_84">
    <path d="M 736.164752 377.549961 
L 757.724399 293.798764 
" clip-path="url(#p52ae619f88)" style="fill: none; stroke: #0000ff; stroke-linecap: square"/>
   </g>
   <g id="line2d_85">
    <path d="M 674.059316 276.032756 
L 655.013829 235.282123 
" clip-path="url(#p52ae619f88)" style="fill: none; stroke: #0000ff; stroke-linecap: square"/>
   </g>
   <g id="line2d_86">
    <path d="M 674.059316 276.032756 
L 677.590288 205.178855 
" clip-path="url(#p52ae619f88)" style="fill: none; stroke: #0000ff; stroke-linecap: square"/>
   </g>
   <g id="line2d_87">
    <path d="M 784.410014 318.169076 
L 816.910544 295.385119 
" clip-path="url(#p52ae619f88)" style="fill: none; stroke: #0000ff; stroke-linecap: square"/>
   </g>
   <g id="line2d_88">
    <path d="M 784.410014 318.169076 
L 805.770387 251.214395 
" clip-path="url(#p52ae619f88)" style="fill: none; stroke: #0000ff; stroke-linecap: square"/>
   </g>
   <g id="line2d_89">
    <path d="M 703.116131 273.184544 
L 703.218562 192.21924 
" clip-path="url(#p52ae619f88)" style="fill: none; stroke: #0000ff; stroke-linecap: square"/>
   </g>
   <g id="line2d_90">
    <path d="M 703.116131 273.184544 
L 730.377433 192.13445 
" clip-path="url(#p52ae619f88)" style="fill: none; stroke: #0000ff; stroke-linecap: square"/>
   </g>
   <g id="line2d_91">
    <path d="M 757.724399 293.798764 
L 783.496838 220.496217 
" clip-path="url(#p52ae619f88)" style="fill: none; stroke: #0000ff; stroke-linecap: square"/>
   </g>
   <g id="line2d_92">
    <path d="M 757.724399 293.798764 
L 757.657584 201.662129 
" clip-path="url(#p52ae619f88)" style="fill: none; stroke: #0000ff; stroke-linecap: square"/>
   </g>
   <g id="line2d_93">
    <path d="M 697.598426 498.512161 
L 670.73231 345.713864 
" clip-path="url(#p52ae619f88)" style="fill: none; stroke: #0000ff; stroke-linecap: square"/>
   </g>
   <g id="line2d_94">
    <path d="M 697.598426 498.512161 
L 724.175871 367.315107 
" clip-path="url(#p52ae619f88)" style="fill: none; stroke: #0000ff; stroke-linecap: square"/>
   </g>
   <g id="line2d_95">
    <path d="M 670.73231 345.713864 
L 656.876592 294.535895 
" clip-path="url(#p52ae619f88)" style="fill: none; stroke: #0000ff; stroke-linecap: square"/>
   </g>
   <g id="line2d_96">
    <path d="M 670.73231 345.713864 
L 671.548578 285.78891 
" clip-path="url(#p52ae619f88)" style="fill: none; stroke: #0000ff; stroke-linecap: square"/>
   </g>
   <g id="line2d_97">
    <path d="M 724.175871 367.315107 
L 740.224197 327.022228 
" clip-path="url(#p52ae619f88)" style="fill: none; stroke: #0000ff; stroke-linecap: square"/>
   </g>
   <g id="line2d_98">
    <path d="M 724.175871 367.315107 
L 723.054296 305.629639 
" clip-path="url(#p52ae619f88)" style="fill: none; stroke: #0000ff; stroke-linecap: square"/>
   </g>
   <g id="line2d_99">
    <path d="M 656.876592 294.535895 
L 619.590024 247.076129 
" clip-path="url(#p52ae619f88)" style="fill: none; stroke: #0000ff; stroke-linecap: square"/>
   </g>
   <g id="line2d_100">
    <path d="M 656.876592 294.535895 
L 631.238949 219.655083 
" clip-path="url(#p52ae619f88)" style="fill: none; stroke: #0000ff; stroke-linecap: square"/>
   </g>
   <g id="line2d_101">
    <path d="M 740.224197 327.022228 
L 782.016333 308.672805 
" clip-path="url(#p52ae619f88)" style="fill: none; stroke: #0000ff; stroke-linecap: square"/>
   </g>
   <g id="line2d_102">
    <path d="M 740.224197 327.022228 
L 760.173906 267.241596 
" clip-path="url(#p52ae619f88)" style="fill: none; stroke: #0000ff; stroke-linecap: square"/>
   </g>
   <g id="line2d_103">
    <path d="M 671.548578 285.78891 
L 651.572034 207.925359 
" clip-path="url(#p52ae619f88)" style="fill: none; stroke: #0000ff; stroke-linecap: square"/>
   </g>
   <g id="line2d_104">
    <path d="M 671.548578 285.78891 
L 676.350404 208.625772 
" clip-path="url(#p52ae619f88)" style="fill: none; stroke: #0000ff; stroke-linecap: square"/>
   </g>
   <g id="line2d_105">
    <path d="M 723.054296 305.629639 
L 732.41855 237.270927 
" clip-path="url(#p52ae619f88)" style="fill: none; stroke: #0000ff; stroke-linecap: square"/>
   </g>
   <g id="line2d_106">
    <path d="M 723.054296 305.629639 
L 703.786321 218.512884 
" clip-path="url(#p52ae619f88)" style="fill: none; stroke: #0000ff; stroke-linecap: square"/>
   </g>
   <g id="line2d_107">
    <path d="M 701.662398 363.547143 
L 634.346123 267.707897 
" clip-path="url(#p52ae619f88)" style="fill: none; stroke: #0000ff; stroke-linecap: square"/>
   </g>
   <g id="line2d_108">
    <path d="M 736.164752 377.549961 
L 803.098519 332.512064 
" clip-path="url(#p52ae619f88)" style="fill: none; stroke: #0000ff; stroke-linecap: square"/>
   </g>
   <g id="line2d_109">
    <path d="M 670.73231 345.713864 
L 634.346123 267.707897 
" clip-path="url(#p52ae619f88)" style="fill: none; stroke: #0000ff; stroke-linecap: square"/>
   </g>
   <g id="line2d_110">
    <path d="M 724.175871 367.315107 
L 803.098519 332.512064 
" clip-path="url(#p52ae619f88)" style="fill: none; stroke: #0000ff; stroke-linecap: square"/>
   </g>
   <g id="line2d_111">
    <path d="M 706.316748 444.065362 
L 701.662398 363.547143 
" clip-path="url(#p52ae619f88)" style="fill: none; stroke: #ffa500; stroke-linecap: square"/>
   </g>
   <g id="line2d_112">
    <path d="M 701.662398 363.547143 
L 697.350618 428.613895 
" clip-path="url(#p52ae619f88)" style="fill: none; stroke: #ffa500; stroke-linecap: square"/>
   </g>
   <g id="line2d_113">
    <path d="M 706.316748 444.065362 
L 736.164752 377.549961 
" clip-path="url(#p52ae619f88)" style="fill: none; stroke: #ffa500; stroke-linecap: square"/>
   </g>
   <g id="line2d_114">
    <path d="M 736.164752 377.549961 
L 717.87462 437.37193 
" clip-path="url(#p52ae619f88)" style="fill: none; stroke: #ffa500; stroke-linecap: square"/>
   </g>
   <g id="legend_1">
    <g id="patch_6">
     <path d="M 820.512625 137.138375 
L 974.522 137.138375 
Q 976.522 137.138375 976.522 135.138375 
L 976.522 92.104 
Q 976.522 90.104 974.522 90.104 
L 820.512625 90.104 
Q 818.512625 90.104 818.512625 92.104 
L 818.512625 135.138375 
Q 818.512625 137.138375 820.512625 137.138375 
z
" style="fill: #ffffff; opacity: 0.8; stroke: #cccccc; stroke-linejoin: miter"/>
    </g>
    <g id="line2d_115">
     <path d="M 822.512625 98.202437 
L 832.512625 98.202437 
L 842.512625 98.202437 
" style="fill: none; stroke: #ff0000; stroke-linecap: square"/>
    </g>
    <g id="text_21">
     <!-- Spring -->
     <g transform="translate(850.512625 101.702437) scale(0.1 -0.1)">
      <defs>
       <path id="DejaVuSans-53" d="M 3425 4513 
L 3425 3897 
Q 3066 4069 2747 4153 
Q 2428 4238 2131 4238 
Q 1616 4238 1336 4038 
Q 1056 3838 1056 3469 
Q 1056 3159 1242 3001 
Q 1428 2844 1947 2747 
L 2328 2669 
Q 3034 2534 3370 2195 
Q 3706 1856 3706 1288 
Q 3706 609 3251 259 
Q 2797 -91 1919 -91 
Q 1588 -91 1214 -16 
Q 841 59 441 206 
L 441 856 
Q 825 641 1194 531 
Q 1563 422 1919 422 
Q 2459 422 2753 634 
Q 3047 847 3047 1241 
Q 3047 1584 2836 1778 
Q 2625 1972 2144 2069 
L 1759 2144 
Q 1053 2284 737 2584 
Q 422 2884 422 3419 
Q 422 4038 858 4394 
Q 1294 4750 2059 4750 
Q 2388 4750 2728 4690 
Q 3069 4631 3425 4513 
z
" transform="scale(0.015625)"/>
       <path id="DejaVuSans-70" d="M 1159 525 
L 1159 -1331 
L 581 -1331 
L 581 3500 
L 1159 3500 
L 1159 2969 
Q 1341 3281 1617 3432 
Q 1894 3584 2278 3584 
Q 2916 3584 3314 3078 
Q 3713 2572 3713 1747 
Q 3713 922 3314 415 
Q 2916 -91 2278 -91 
Q 1894 -91 1617 61 
Q 1341 213 1159 525 
z
M 3116 1747 
Q 3116 2381 2855 2742 
Q 2594 3103 2138 3103 
Q 1681 3103 1420 2742 
Q 1159 2381 1159 1747 
Q 1159 1113 1420 752 
Q 1681 391 2138 391 
Q 2594 391 2855 752 
Q 3116 1113 3116 1747 
z
" transform="scale(0.015625)"/>
       <path id="DejaVuSans-72" d="M 2631 2963 
Q 2534 3019 2420 3045 
Q 2306 3072 2169 3072 
Q 1681 3072 1420 2755 
Q 1159 2438 1159 1844 
L 1159 0 
L 581 0 
L 581 3500 
L 1159 3500 
L 1159 2956 
Q 1341 3275 1631 3429 
Q 1922 3584 2338 3584 
Q 2397 3584 2469 3576 
Q 2541 3569 2628 3553 
L 2631 2963 
z
" transform="scale(0.015625)"/>
       <path id="DejaVuSans-69" d="M 603 3500 
L 1178 3500 
L 1178 0 
L 603 0 
L 603 3500 
z
M 603 4863 
L 1178 4863 
L 1178 4134 
L 603 4134 
L 603 4863 
z
" transform="scale(0.015625)"/>
       <path id="DejaVuSans-6e" d="M 3513 2113 
L 3513 0 
L 2938 0 
L 2938 2094 
Q 2938 2591 2744 2837 
Q 2550 3084 2163 3084 
Q 1697 3084 1428 2787 
Q 1159 2491 1159 1978 
L 1159 0 
L 581 0 
L 581 3500 
L 1159 3500 
L 1159 2956 
Q 1366 3272 1645 3428 
Q 1925 3584 2291 3584 
Q 2894 3584 3203 3211 
Q 3513 2838 3513 2113 
z
" transform="scale(0.015625)"/>
       <path id="DejaVuSans-67" d="M 2906 1791 
Q 2906 2416 2648 2759 
Q 2391 3103 1925 3103 
Q 1463 3103 1205 2759 
Q 947 2416 947 1791 
Q 947 1169 1205 825 
Q 1463 481 1925 481 
Q 2391 481 2648 825 
Q 2906 1169 2906 1791 
z
M 3481 434 
Q 3481 -459 3084 -895 
Q 2688 -1331 1869 -1331 
Q 1566 -1331 1297 -1286 
Q 1028 -1241 775 -1147 
L 775 -588 
Q 1028 -725 1275 -790 
Q 1522 -856 1778 -856 
Q 2344 -856 2625 -561 
Q 2906 -266 2906 331 
L 2906 616 
Q 2728 306 2450 153 
Q 2172 0 1784 0 
Q 1141 0 747 490 
Q 353 981 353 1791 
Q 353 2603 747 3093 
Q 1141 3584 1784 3584 
Q 2172 3584 2450 3431 
Q 2728 3278 2906 2969 
L 2906 3500 
L 3481 3500 
L 3481 434 
z
" transform="scale(0.015625)"/>
      </defs>
      <use xlink:href="#DejaVuSans-53"/>
      <use xlink:href="#DejaVuSans-70" transform="translate(63.476562 0)"/>
      <use xlink:href="#DejaVuSans-72" transform="translate(126.953125 0)"/>
      <use xlink:href="#DejaVuSans-69" transform="translate(168.066406 0)"/>
      <use xlink:href="#DejaVuSans-6e" transform="translate(195.849609 0)"/>
      <use xlink:href="#DejaVuSans-67" transform="translate(259.228516 0)"/>
     </g>
    </g>
    <g id="line2d_116">
     <path d="M 822.512625 112.880562 
L 832.512625 112.880562 
L 842.512625 112.880562 
" style="fill: none; stroke: #0000ff; stroke-linecap: square"/>
    </g>
    <g id="text_22">
     <!-- Non-compressive Spring -->
     <g transform="translate(850.512625 116.380562) scale(0.1 -0.1)">
      <defs>
       <path id="DejaVuSans-4e" d="M 628 4666 
L 1478 4666 
L 3547 763 
L 3547 4666 
L 4159 4666 
L 4159 0 
L 3309 0 
L 1241 3903 
L 1241 0 
L 628 0 
L 628 4666 
z
" transform="scale(0.015625)"/>
       <path id="DejaVuSans-6f" d="M 1959 3097 
Q 1497 3097 1228 2736 
Q 959 2375 959 1747 
Q 959 1119 1226 758 
Q 1494 397 1959 397 
Q 2419 397 2687 759 
Q 2956 1122 2956 1747 
Q 2956 2369 2687 2733 
Q 2419 3097 1959 3097 
z
M 1959 3584 
Q 2709 3584 3137 3096 
Q 3566 2609 3566 1747 
Q 3566 888 3137 398 
Q 2709 -91 1959 -91 
Q 1206 -91 779 398 
Q 353 888 353 1747 
Q 353 2609 779 3096 
Q 1206 3584 1959 3584 
z
" transform="scale(0.015625)"/>
       <path id="DejaVuSans-2d" d="M 313 2009 
L 1997 2009 
L 1997 1497 
L 313 1497 
L 313 2009 
z
" transform="scale(0.015625)"/>
       <path id="DejaVuSans-63" d="M 3122 3366 
L 3122 2828 
Q 2878 2963 2633 3030 
Q 2388 3097 2138 3097 
Q 1578 3097 1268 2742 
Q 959 2388 959 1747 
Q 959 1106 1268 751 
Q 1578 397 2138 397 
Q 2388 397 2633 464 
Q 2878 531 3122 666 
L 3122 134 
Q 2881 22 2623 -34 
Q 2366 -91 2075 -91 
Q 1284 -91 818 406 
Q 353 903 353 1747 
Q 353 2603 823 3093 
Q 1294 3584 2113 3584 
Q 2378 3584 2631 3529 
Q 2884 3475 3122 3366 
z
" transform="scale(0.015625)"/>
       <path id="DejaVuSans-65" d="M 3597 1894 
L 3597 1613 
L 953 1613 
Q 991 1019 1311 708 
Q 1631 397 2203 397 
Q 2534 397 2845 478 
Q 3156 559 3463 722 
L 3463 178 
Q 3153 47 2828 -22 
Q 2503 -91 2169 -91 
Q 1331 -91 842 396 
Q 353 884 353 1716 
Q 353 2575 817 3079 
Q 1281 3584 2069 3584 
Q 2775 3584 3186 3129 
Q 3597 2675 3597 1894 
z
M 3022 2063 
Q 3016 2534 2758 2815 
Q 2500 3097 2075 3097 
Q 1594 3097 1305 2825 
Q 1016 2553 972 2059 
L 3022 2063 
z
" transform="scale(0.015625)"/>
       <path id="DejaVuSans-73" d="M 2834 3397 
L 2834 2853 
Q 2591 2978 2328 3040 
Q 2066 3103 1784 3103 
Q 1356 3103 1142 2972 
Q 928 2841 928 2578 
Q 928 2378 1081 2264 
Q 1234 2150 1697 2047 
L 1894 2003 
Q 2506 1872 2764 1633 
Q 3022 1394 3022 966 
Q 3022 478 2636 193 
Q 2250 -91 1575 -91 
Q 1294 -91 989 -36 
Q 684 19 347 128 
L 347 722 
Q 666 556 975 473 
Q 1284 391 1588 391 
Q 1994 391 2212 530 
Q 2431 669 2431 922 
Q 2431 1156 2273 1281 
Q 2116 1406 1581 1522 
L 1381 1569 
Q 847 1681 609 1914 
Q 372 2147 372 2553 
Q 372 3047 722 3315 
Q 1072 3584 1716 3584 
Q 2034 3584 2315 3537 
Q 2597 3491 2834 3397 
z
" transform="scale(0.015625)"/>
       <path id="DejaVuSans-76" d="M 191 3500 
L 800 3500 
L 1894 563 
L 2988 3500 
L 3597 3500 
L 2284 0 
L 1503 0 
L 191 3500 
z
" transform="scale(0.015625)"/>
      </defs>
      <use xlink:href="#DejaVuSans-4e"/>
      <use xlink:href="#DejaVuSans-6f" transform="translate(74.804688 0)"/>
      <use xlink:href="#DejaVuSans-6e" transform="translate(135.986328 0)"/>
      <use xlink:href="#DejaVuSans-2d" transform="translate(199.365234 0)"/>
      <use xlink:href="#DejaVuSans-63" transform="translate(235.449219 0)"/>
      <use xlink:href="#DejaVuSans-6f" transform="translate(290.429688 0)"/>
      <use xlink:href="#DejaVuSans-6d" transform="translate(351.611328 0)"/>
      <use xlink:href="#DejaVuSans-70" transform="translate(449.023438 0)"/>
      <use xlink:href="#DejaVuSans-72" transform="translate(512.5 0)"/>
      <use xlink:href="#DejaVuSans-65" transform="translate(551.363281 0)"/>
      <use xlink:href="#DejaVuSans-73" transform="translate(612.886719 0)"/>
      <use xlink:href="#DejaVuSans-73" transform="translate(664.986328 0)"/>
      <use xlink:href="#DejaVuSans-69" transform="translate(717.085938 0)"/>
      <use xlink:href="#DejaVuSans-76" transform="translate(744.869141 0)"/>
      <use xlink:href="#DejaVuSans-65" transform="translate(804.048828 0)"/>
      <use xlink:href="#DejaVuSans-20" transform="translate(865.572266 0)"/>
      <use xlink:href="#DejaVuSans-53" transform="translate(897.359375 0)"/>
      <use xlink:href="#DejaVuSans-70" transform="translate(960.835938 0)"/>
      <use xlink:href="#DejaVuSans-72" transform="translate(1024.3125 0)"/>
      <use xlink:href="#DejaVuSans-69" transform="translate(1065.425781 0)"/>
      <use xlink:href="#DejaVuSans-6e" transform="translate(1093.208984 0)"/>
      <use xlink:href="#DejaVuSans-67" transform="translate(1156.587891 0)"/>
     </g>
    </g>
    <g id="line2d_117">
     <path d="M 822.512625 127.558688 
L 832.512625 127.558688 
L 842.512625 127.558688 
" style="fill: none; stroke: #ffa500; stroke-linecap: square"/>
    </g>
    <g id="text_23">
     <!-- Pulley spring -->
     <g transform="translate(850.512625 131.058688) scale(0.1 -0.1)">
      <defs>
       <path id="DejaVuSans-50" d="M 1259 4147 
L 1259 2394 
L 2053 2394 
Q 2494 2394 2734 2622 
Q 2975 2850 2975 3272 
Q 2975 3691 2734 3919 
Q 2494 4147 2053 4147 
L 1259 4147 
z
M 628 4666 
L 2053 4666 
Q 2838 4666 3239 4311 
Q 3641 3956 3641 3272 
Q 3641 2581 3239 2228 
Q 2838 1875 2053 1875 
L 1259 1875 
L 1259 0 
L 628 0 
L 628 4666 
z
" transform="scale(0.015625)"/>
       <path id="DejaVuSans-75" d="M 544 1381 
L 544 3500 
L 1119 3500 
L 1119 1403 
Q 1119 906 1312 657 
Q 1506 409 1894 409 
Q 2359 409 2629 706 
Q 2900 1003 2900 1516 
L 2900 3500 
L 3475 3500 
L 3475 0 
L 2900 0 
L 2900 538 
Q 2691 219 2414 64 
Q 2138 -91 1772 -91 
Q 1169 -91 856 284 
Q 544 659 544 1381 
z
M 1991 3584 
L 1991 3584 
z
" transform="scale(0.015625)"/>
       <path id="DejaVuSans-6c" d="M 603 4863 
L 1178 4863 
L 1178 0 
L 603 0 
L 603 4863 
z
" transform="scale(0.015625)"/>
      </defs>
      <use xlink:href="#DejaVuSans-50"/>
      <use xlink:href="#DejaVuSans-75" transform="translate(58.552734 0)"/>
      <use xlink:href="#DejaVuSans-6c" transform="translate(121.931641 0)"/>
      <use xlink:href="#DejaVuSans-6c" transform="translate(149.714844 0)"/>
      <use xlink:href="#DejaVuSans-65" transform="translate(177.498047 0)"/>
      <use xlink:href="#DejaVuSans-79" transform="translate(239.021484 0)"/>
      <use xlink:href="#DejaVuSans-20" transform="translate(298.201172 0)"/>
      <use xlink:href="#DejaVuSans-73" transform="translate(329.988281 0)"/>
      <use xlink:href="#DejaVuSans-70" transform="translate(382.087891 0)"/>
      <use xlink:href="#DejaVuSans-72" transform="translate(445.564453 0)"/>
      <use xlink:href="#DejaVuSans-69" transform="translate(486.677734 0)"/>
      <use xlink:href="#DejaVuSans-6e" transform="translate(514.460938 0)"/>
      <use xlink:href="#DejaVuSans-67" transform="translate(577.839844 0)"/>
     </g>
    </g>
   </g>
  </g>
 </g>
 <defs>
  <clipPath id="p52ae619f88">
   <rect x="435.438" y="85.104" width="546.084" height="546.084"/>
  </clipPath>
 </defs>
</svg>
