<svg xmlns="http://www.w3.org/2000/svg" xmlns:dc="http://purl.org/dc/elements/1.1/" xmlns:ns2="http://creativecommons.org/ns#" xmlns:rdf="http://www.w3.org/1999/02/22-rdf-syntax-ns#" width="600" height="600" viewBox="0 0 600 600" version="1.1">
 <defs>
  <marker id="Arrow1Mend-r:r" style="overflow:visible" refX="0" refY="0" orient="auto">
  <path style="stroke:#ff0000;fill:#ff0000;stroke-width:1pt;opacity:1;stroke-linejoin:miter" d="M 0.0,0.0 L 5.0,-5.0 L -12.5,0.0 L 5.0,5.0 L 0.0,0.0 z" transform="scale(0.4) rotate(180) translate(-0.9,0)" />
  </marker>
  <marker id="Arrow1Mend-g:g" style="overflow:visible" refX="0" refY="0" orient="auto">
  <path style="stroke:#008000;fill:#008000;stroke-width:1pt;opacity:1;stroke-linejoin:miter" d="M 0.0,0.0 L 5.0,-5.0 L -12.5,0.0 L 5.0,5.0 L 0.0,0.0 z" transform="scale(0.4) rotate(180) translate(-0.9,0)" />
  </marker>
  <marker id="Arrow1Mend-b:b" style="overflow:visible" refX="0" refY="0" orient="auto">
  <path style="stroke:#0000ff;fill:#0000ff;stroke-width:1pt;opacity:1;stroke-linejoin:miter" d="M 0.0,0.0 L 5.0,-5.0 L -12.5,0.0 L 5.0,5.0 L 0.0,0.0 z" transform="scale(0.4) rotate(180) translate(-0.9,0)" />
  </marker>
</defs><metadata>
  <rdf:RDF>
   <ns2:Work>
    <dc:type rdf:resource="http://purl.org/dc/dcmitype/StillImage" />
    <dc:date>2025-10-13T19:58:26.415899</dc:date>
    <dc:format>image/svg+xml</dc:format>
    <dc:creator>
     <ns2:Agent>
      <dc:title>Matplotlib v3.10.7, https://matplotlib.org/</dc:title>
     </ns2:Agent>
    </dc:creator>
   </ns2:Work>
  </rdf:RDF>
 </metadata>
 <defs>
  <style type="text/css">*{stroke-linejoin: round; stroke-linecap: butt}</style>
 </defs>
 <g id="figure_1">
  <g id="patch_1">
   <path d="M 0 600  L 600 600  L 600 0  L 0 0  z " style="fill: #ffffff" />
  </g>
  <g id="patch_2">
   <path d="M 0 600  L 600 600  L 600 0  L 0 0  z " style="fill: #ffffff" />
  </g>
  <g id="axes_1">
   <g id="vector_1" marker-end="url(#Arrow1Mend-r:r)">
    <path d="M 241.88716 305.886025  L 494.103006 378.694468  " style="fill: none; stroke: #ff0000; stroke-width: 2" />
   </g>
   <g id="vector_2" marker-end="url(#Arrow1Mend-g:g)">
    <path d="M 241.88716 305.886025  L 241.88716 54.187448  " style="fill: none; stroke: #008000; stroke-width: 2" />
   </g>
   <g id="vector_3" marker-end="url(#Arrow1Mend-b:b)">
    <path d="M 241.88716 305.886025  L 98.923517 429.696171  " style="fill: none; stroke: #0000ff; stroke-width: 2" />
   </g>
   <g id="vector_4" marker-end="url(#Arrow1Mend-r:r)">
    <path d="M 241.88716 305.886025  L 534.563402 305.886025  " style="fill: none; stroke-dasharray: 7.4,3.2; stroke-dashoffset: 0; stroke: #ff0000; stroke-width: 2" />
   </g>
   <g id="vector_5" marker-end="url(#Arrow1Mend-b:b)">
    <path d="M 241.88716 305.886025  L 241.88716 445.631537  " style="fill: none; stroke-dasharray: 7.4,3.2; stroke-dashoffset: 0; stroke: #0000ff; stroke-width: 2" />
   </g>
   <g id="arcmeasure_1" marker-end="url(#Arrow1Mend-r:r)">
    <path d="M 374.329057 344.118707  L 375.64339 342.957169  L 376.916979 341.784339  L 378.149438 340.600574  L 379.340389 339.406235  L 380.489471 338.201685  L 381.596333 336.987291  L 382.660639 335.763423  L 383.682063 334.530455  L 384.660296 333.288761  L 385.595038 332.03872  L 386.486005 330.780713  L 387.332927 329.515122  L 388.135544 328.242334  L 388.893612 326.962736  L 389.606901 325.676718  L 389.781934 325.011965  " style="fill: none; stroke: #ff0000; stroke-width: 3" />
   </g>
   <g id="arcmeasure_2" marker-end="url(#Arrow1Mend-b:b)">
    <path d="M 165.421795 372.106973  L 167.74487 372.76414  L 170.090531 373.400935  L 172.458061 374.017164  L 174.84674 374.61264  L 177.25584 375.187181  L 179.684628 375.740612  L 182.132363 376.272764  L 184.5983 376.783477  L 187.081687 377.272593  L 189.581769 377.739964  L 192.097784 378.185448  L 194.628965 378.608909  L 197.174541 379.010217  L 199.733738 379.389251  L 202.305774 379.745896  L 204.889867 380.080042  L 207.485231 380.391588  L 210.091073 380.680438  L 212.706601 380.946506  L 215.331017 381.189709  L 217.963523 381.409974  L 220.603316 381.607234  L 222.12141 381.660312  " style="fill: none; stroke: #0000ff; stroke-width: 3" />
   </g>
   <g id="text_1">
    <g>
     <text style="font-size: 20px; font-family: 'DejaVu Sans', 'Bitstream Vera Sans', 'Computer Modern Sans Serif', 'Lucida Grande', 'Verdana', 'Geneva', 'Lucid', 'Arial', 'Helvetica', 'Avant Garde', sans-serif; text-anchor: start" x="520.015143" y="386.174658" transform="rotate(-0 520.015143 386.174658)">$x$</text>
    </g>
   </g>
   <g id="text_2">
    <g>
     <text style="font-size: 20px; font-family: 'DejaVu Sans', 'Bitstream Vera Sans', 'Computer Modern Sans Serif', 'Lucida Grande', 'Verdana', 'Geneva', 'Lucid', 'Arial', 'Helvetica', 'Avant Garde', sans-serif; text-anchor: start" x="241.88716" y="27.758041" transform="rotate(-0 241.88716 27.758041)">$y$</text>
    </g>
   </g>
   <g id="text_3">
    <g>
     <text style="font-size: 20px; font-family: 'DejaVu Sans', 'Bitstream Vera Sans', 'Computer Modern Sans Serif', 'Lucida Grande', 'Verdana', 'Geneva', 'Lucid', 'Arial', 'Helvetica', 'Avant Garde', sans-serif; text-anchor: start" x="66.01682" y="458.194207" transform="rotate(-0 66.01682 458.194207)">$z$</text>
    </g>
   </g>
   <g id="text_4">
    <g>
     <text style="font-size: 20px; font-family: 'DejaVu Sans', 'Bitstream Vera Sans', 'Computer Modern Sans Serif', 'Lucida Grande', 'Verdana', 'Geneva', 'Lucid', 'Arial', 'Helvetica', 'Avant Garde', sans-serif; text-anchor: start" x="165.421795" y="425.083732" transform="rotate(-0 165.421795 425.083732)">$\theta$</text>
    </g>
   </g>
   <g id="text_5">
    <g>
     <text style="font-size: 20px; font-family: 'DejaVu Sans', 'Bitstream Vera Sans', 'Computer Modern Sans Serif', 'Lucida Grande', 'Verdana', 'Geneva', 'Lucid', 'Arial', 'Helvetica', 'Avant Garde', sans-serif; text-anchor: start" x="414.061626" y="344.99316" transform="rotate(-0 414.061626 344.99316)">$\theta$</text>
    </g>
   </g>
  </g>
 </g>
 <defs>
  </defs>
</svg>