<svg xmlns="http://www.w3.org/2000/svg" xmlns:dc="http://purl.org/dc/elements/1.1/" xmlns:ns2="http://creativecommons.org/ns#" xmlns:rdf="http://www.w3.org/1999/02/22-rdf-syntax-ns#" width="600" height="600" viewBox="0 0 600 600" version="1.1">
 <defs>
  <marker id="Arrow1Mend-r:r" style="overflow:visible" refX="0" refY="0" orient="auto">
  <path style="stroke:#ff0000;fill:#ff0000;stroke-width:1pt;opacity:1;stroke-linejoin:miter" d="M 0.0,0.0 L 5.0,-5.0 L -12.5,0.0 L 5.0,5.0 L 0.0,0.0 z" transform="scale(0.4) rotate(180) translate(-0.9,0)" />
  </marker>
  <marker id="Arrow1Mend-g:g" style="overflow:visible" refX="0" refY="0" orient="auto">
  <path style="stroke:#008000;fill:#008000;stroke-width:1pt;opacity:1;stroke-linejoin:miter" d="M 0.0,0.0 L 5.0,-5.0 L -12.5,0.0 L 5.0,5.0 L 0.0,0.0 z" transform="scale(0.4) rotate(180) translate(-0.9,0)" />
  </marker>
  <marker id="Arrow1Mend-b:b" style="overflow:visible" refX="0" refY="0" orient="auto">
  <path style="stroke:#0000ff;fill:#0000ff;stroke-width:1pt;opacity:1;stroke-linejoin:miter" d="M 0.0,0.0 L 5.0,-5.0 L -12.5,0.0 L 5.0,5.0 L 0.0,0.0 z" transform="scale(0.4) rotate(180) translate(-0.9,0)" />
  </marker>
</defs><metadata>
  <rdf:RDF>
   <ns2:Work>
    <dc:type rdf:resource="http://purl.org/dc/dcmitype/StillImage" />
    <dc:date>2025-10-13T20:29:20.148505</dc:date>
    <dc:format>image/svg+xml</dc:format>
    <dc:creator>
     <ns2:Agent>
      <dc:title>Matplotlib v3.10.7, https://matplotlib.org/</dc:title>
     </ns2:Agent>
    </dc:creator>
   </ns2:Work>
  </rdf:RDF>
 </metadata>
 <defs>
  <style type="text/css">*{stroke-linejoin: round; stroke-linecap: butt}</style>
 </defs>
 <g id="figure_1">
  <g id="patch_1">
   <path d="M 0 600  L 600 600  L 600 0  L 0 0  z " style="fill: #ffffff" />
  </g>
  <g id="patch_2">
   <path d="M 0 600  L 600 600  L 600 0  L 0 0  z " style="fill: #ffffff" />
  </g>
  <g id="axes_1">
   <g id="vector_1" marker-end="url(#Arrow1Mend-r:r)">
    <path d="M 241.88716 305.886025  L 494.103006 378.694468  " style="fill: none; stroke: #ff0000; stroke-width: 2" />
   </g>
   <g id="vector_2" marker-end="url(#Arrow1Mend-g:g)">
    <path d="M 241.88716 305.886025  L 241.88716 54.187448  " style="fill: none; stroke: #008000; stroke-width: 2" />
   </g>
   <g id="vector_3" marker-end="url(#Arrow1Mend-b:b)">
    <path d="M 241.88716 305.886025  L 98.923517 429.696171  " style="fill: none; stroke: #0000ff; stroke-width: 2" />
   </g>
   <g id="vector_4" marker-end="url(#Arrow1Mend-r:r)">
    <path d="M 241.88716 305.886025  L 458.615307 243.321998  " style="fill: none; stroke-dasharray: 7.4,3.2; stroke-dashoffset: 0; stroke: #ff0000; stroke-width: 2" />
   </g>
   <g id="vector_5" marker-end="url(#Arrow1Mend-g:g)">
    <path d="M 241.88716 305.886025  L 115.293338 50.074607  " style="fill: none; stroke-dasharray: 7.4,3.2; stroke-dashoffset: 0; stroke: #008000; stroke-width: 2" />
   </g>
   <g id="arcmeasure_1" marker-end="url(#Arrow1Mend-r:r)">
    <path d="M 374.329057 344.118707  L 374.308885 341.801455  L 374.248377 339.473262  L 374.14755 337.134838  L 374.006435 334.786895  L 373.825075 332.430149  L 373.603526 330.065317  L 373.341855 327.69312  L 373.040141 325.31428  L 372.698477 322.929522  L 372.316967 320.539573  L 371.895726 318.14516  L 371.434883 315.747013  L 370.934579 313.345862  L 370.394966 310.942439  L 369.816208 308.537475  L 369.198482 306.131704  L 368.541976 303.725858  L 367.846889 301.32067  L 367.113433 298.916872  L 366.341833 296.515198  L 365.532322 294.116378  L 364.685148 291.721143  L 364.360179 290.961046  " style="fill: none; stroke: #ff0000; stroke-width: 3" />
   </g>
   <g id="arcmeasure_2" marker-end="url(#Arrow1Mend-g:g)">
    <path d="M 241.88716 173.444128  L 239.57573 172.797047  L 237.265004 172.190506  L 234.955686 171.624691  L 232.64848 171.099773  L 230.344088 170.615911  L 228.043212 170.173255  L 225.746553 169.771938  L 223.45481 169.412082  L 221.168682 169.093798  L 218.888865 168.817182  L 216.616054 168.582319  L 214.350941 168.389279  L 212.094215 168.238123  L 209.846565 168.128895  L 207.608674 168.06163  L 205.381225 168.036347  L 203.164896 168.053054  L 200.960363 168.111747  L 198.768296 168.212407  L 196.589363 168.355004  L 195.139205 168.612599  " style="fill: none; stroke: #008000; stroke-width: 3" />
   </g>
   <g id="text_1">
    <g>
     <text style="font-size: 20px; font-family: 'DejaVu Sans', 'Bitstream Vera Sans', 'Computer Modern Sans Serif', 'Lucida Grande', 'Verdana', 'Geneva', 'Lucid', 'Arial', 'Helvetica', 'Avant Garde', sans-serif; text-anchor: start" x="520.015143" y="386.174658" transform="rotate(-0 520.015143 386.174658)">$x$</text>
    </g>
   </g>
   <g id="text_2">
    <g>
     <text style="font-size: 20px; font-family: 'DejaVu Sans', 'Bitstream Vera Sans', 'Computer Modern Sans Serif', 'Lucida Grande', 'Verdana', 'Geneva', 'Lucid', 'Arial', 'Helvetica', 'Avant Garde', sans-serif; text-anchor: start" x="241.88716" y="27.758041" transform="rotate(-0 241.88716 27.758041)">$y$</text>
    </g>
   </g>
   <g id="text_3">
    <g>
     <text style="font-size: 20px; font-family: 'DejaVu Sans', 'Bitstream Vera Sans', 'Computer Modern Sans Serif', 'Lucida Grande', 'Verdana', 'Geneva', 'Lucid', 'Arial', 'Helvetica', 'Avant Garde', sans-serif; text-anchor: start" x="66.01682" y="458.194207" transform="rotate(-0 66.01682 458.194207)">$z$</text>
    </g>
   </g>
   <g id="text_4">
    <g>
     <text style="font-size: 20px; font-family: 'DejaVu Sans', 'Bitstream Vera Sans', 'Computer Modern Sans Serif', 'Lucida Grande', 'Verdana', 'Geneva', 'Lucid', 'Arial', 'Helvetica', 'Avant Garde', sans-serif; text-anchor: start" x="203.654477" y="140.333654" transform="rotate(-0 203.654477 140.333654)">$\psi$</text>
    </g>
   </g>
   <g id="text_5">
    <g>
     <text style="font-size: 20px; font-family: 'DejaVu Sans', 'Bitstream Vera Sans', 'Computer Modern Sans Serif', 'Lucida Grande', 'Verdana', 'Geneva', 'Lucid', 'Arial', 'Helvetica', 'Avant Garde', sans-serif; text-anchor: start" x="387.573246" y="328.075691" transform="rotate(-0 387.573246 328.075691)">$\psi$</text>
    </g>
   </g>
  </g>
 </g>
 <defs>
  </defs>
</svg>